G04 #@! TF.GenerationSoftware,KiCad,Pcbnew,(5.1.2)-1*
G04 #@! TF.CreationDate,2020-10-26T09:15:15+01:00*
G04 #@! TF.ProjectId,Flyback driver Cool-Tip v1.0.0,466c7962-6163-46b2-9064-726976657220,rev?*
G04 #@! TF.SameCoordinates,Original*
G04 #@! TF.FileFunction,Legend,Top*
G04 #@! TF.FilePolarity,Positive*
%FSLAX46Y46*%
G04 Gerber Fmt 4.6, Leading zero omitted, Abs format (unit mm)*
G04 Created by KiCad (PCBNEW (5.1.2)-1) date 2020-10-26 09:15:15*
%MOMM*%
%LPD*%
G04 APERTURE LIST*
%ADD10C,0.150000*%
%ADD11C,0.120000*%
G04 APERTURE END LIST*
D10*
X112285714Y-110571428D02*
X113047619Y-110571428D01*
X112666666Y-110952380D02*
X112666666Y-110190476D01*
X114000000Y-109952380D02*
X113523809Y-109952380D01*
X113476190Y-110428571D01*
X113523809Y-110380952D01*
X113619047Y-110333333D01*
X113857142Y-110333333D01*
X113952380Y-110380952D01*
X114000000Y-110428571D01*
X114047619Y-110523809D01*
X114047619Y-110761904D01*
X114000000Y-110857142D01*
X113952380Y-110904761D01*
X113857142Y-110952380D01*
X113619047Y-110952380D01*
X113523809Y-110904761D01*
X113476190Y-110857142D01*
X114476190Y-110857142D02*
X114523809Y-110904761D01*
X114476190Y-110952380D01*
X114428571Y-110904761D01*
X114476190Y-110857142D01*
X114476190Y-110952380D01*
X114952380Y-110857142D02*
X115000000Y-110904761D01*
X114952380Y-110952380D01*
X114904761Y-110904761D01*
X114952380Y-110857142D01*
X114952380Y-110952380D01*
X115380952Y-110047619D02*
X115428571Y-110000000D01*
X115523809Y-109952380D01*
X115761904Y-109952380D01*
X115857142Y-110000000D01*
X115904761Y-110047619D01*
X115952380Y-110142857D01*
X115952380Y-110238095D01*
X115904761Y-110380952D01*
X115333333Y-110952380D01*
X115952380Y-110952380D01*
X116571428Y-109952380D02*
X116666666Y-109952380D01*
X116761904Y-110000000D01*
X116809523Y-110047619D01*
X116857142Y-110142857D01*
X116904761Y-110333333D01*
X116904761Y-110571428D01*
X116857142Y-110761904D01*
X116809523Y-110857142D01*
X116761904Y-110904761D01*
X116666666Y-110952380D01*
X116571428Y-110952380D01*
X116476190Y-110904761D01*
X116428571Y-110857142D01*
X116380952Y-110761904D01*
X116333333Y-110571428D01*
X116333333Y-110333333D01*
X116380952Y-110142857D01*
X116428571Y-110047619D01*
X116476190Y-110000000D01*
X116571428Y-109952380D01*
X117190476Y-109952380D02*
X117523809Y-110952380D01*
X117857142Y-109952380D01*
X123714285Y-111000000D02*
X123685714Y-110971428D01*
X123628571Y-110885714D01*
X123600000Y-110828571D01*
X123571428Y-110742857D01*
X123542857Y-110600000D01*
X123542857Y-110485714D01*
X123571428Y-110342857D01*
X123600000Y-110257142D01*
X123628571Y-110200000D01*
X123685714Y-110114285D01*
X123714285Y-110085714D01*
X123942857Y-110542857D02*
X124400000Y-110542857D01*
X124171428Y-110771428D02*
X124171428Y-110314285D01*
X124657142Y-110228571D02*
X124685714Y-110200000D01*
X124742857Y-110171428D01*
X124885714Y-110171428D01*
X124942857Y-110200000D01*
X124971428Y-110228571D01*
X125000000Y-110285714D01*
X125000000Y-110342857D01*
X124971428Y-110428571D01*
X124628571Y-110771428D01*
X125000000Y-110771428D01*
X125514285Y-110371428D02*
X125514285Y-110771428D01*
X125371428Y-110142857D02*
X125228571Y-110571428D01*
X125600000Y-110571428D01*
X125742857Y-110171428D02*
X125942857Y-110771428D01*
X126142857Y-110171428D01*
X126285714Y-111000000D02*
X126314285Y-110971428D01*
X126371428Y-110885714D01*
X126400000Y-110828571D01*
X126428571Y-110742857D01*
X126457142Y-110600000D01*
X126457142Y-110485714D01*
X126428571Y-110342857D01*
X126400000Y-110257142D01*
X126371428Y-110200000D01*
X126314285Y-110114285D01*
X126285714Y-110085714D01*
X131976190Y-110571428D02*
X132738095Y-110571428D01*
X133833333Y-109952380D02*
X134404761Y-109952380D01*
X134119047Y-110952380D02*
X134119047Y-109952380D01*
X135309523Y-110952380D02*
X134976190Y-110476190D01*
X134738095Y-110952380D02*
X134738095Y-109952380D01*
X135119047Y-109952380D01*
X135214285Y-110000000D01*
X135261904Y-110047619D01*
X135309523Y-110142857D01*
X135309523Y-110285714D01*
X135261904Y-110380952D01*
X135214285Y-110428571D01*
X135119047Y-110476190D01*
X134738095Y-110476190D01*
X135690476Y-110666666D02*
X136166666Y-110666666D01*
X135595238Y-110952380D02*
X135928571Y-109952380D01*
X136261904Y-110952380D01*
X136928571Y-110428571D02*
X136595238Y-110428571D01*
X136595238Y-110952380D02*
X136595238Y-109952380D01*
X137071428Y-109952380D01*
X137642857Y-109952380D02*
X137833333Y-109952380D01*
X137928571Y-110000000D01*
X138023809Y-110095238D01*
X138071428Y-110285714D01*
X138071428Y-110619047D01*
X138023809Y-110809523D01*
X137928571Y-110904761D01*
X137833333Y-110952380D01*
X137642857Y-110952380D01*
X137547619Y-110904761D01*
X137452380Y-110809523D01*
X137404761Y-110619047D01*
X137404761Y-110285714D01*
X137452380Y-110095238D01*
X137547619Y-110000000D01*
X137642857Y-109952380D01*
X139261904Y-110571428D02*
X140023809Y-110571428D01*
X139642857Y-110952380D02*
X139642857Y-110190476D01*
X143071428Y-94761904D02*
X143071428Y-94000000D01*
X143452380Y-94380952D02*
X142690476Y-94380952D01*
X142547619Y-93571428D02*
X142500000Y-93523809D01*
X142452380Y-93428571D01*
X142452380Y-93190476D01*
X142500000Y-93095238D01*
X142547619Y-93047619D01*
X142642857Y-93000000D01*
X142738095Y-93000000D01*
X142880952Y-93047619D01*
X143452380Y-93619047D01*
X143452380Y-93000000D01*
X142785714Y-92142857D02*
X143452380Y-92142857D01*
X142404761Y-92380952D02*
X143119047Y-92619047D01*
X143119047Y-92000000D01*
X142452380Y-91761904D02*
X143452380Y-91428571D01*
X142452380Y-91095238D01*
X142500000Y-88761904D02*
X142452380Y-88857142D01*
X142452380Y-89000000D01*
X142500000Y-89142857D01*
X142595238Y-89238095D01*
X142690476Y-89285714D01*
X142880952Y-89333333D01*
X143023809Y-89333333D01*
X143214285Y-89285714D01*
X143309523Y-89238095D01*
X143404761Y-89142857D01*
X143452380Y-89000000D01*
X143452380Y-88904761D01*
X143404761Y-88761904D01*
X143357142Y-88714285D01*
X143023809Y-88714285D01*
X143023809Y-88904761D01*
X143452380Y-88285714D02*
X142452380Y-88285714D01*
X143452380Y-87714285D01*
X142452380Y-87714285D01*
X143452380Y-87238095D02*
X142452380Y-87238095D01*
X142452380Y-87000000D01*
X142500000Y-86857142D01*
X142595238Y-86761904D01*
X142690476Y-86714285D01*
X142880952Y-86666666D01*
X143023809Y-86666666D01*
X143214285Y-86714285D01*
X143309523Y-86761904D01*
X143404761Y-86857142D01*
X143452380Y-87000000D01*
X143452380Y-87238095D01*
X120238095Y-110000000D02*
X120142857Y-109952380D01*
X120000000Y-109952380D01*
X119857142Y-110000000D01*
X119761904Y-110095238D01*
X119714285Y-110190476D01*
X119666666Y-110380952D01*
X119666666Y-110523809D01*
X119714285Y-110714285D01*
X119761904Y-110809523D01*
X119857142Y-110904761D01*
X120000000Y-110952380D01*
X120095238Y-110952380D01*
X120238095Y-110904761D01*
X120285714Y-110857142D01*
X120285714Y-110523809D01*
X120095238Y-110523809D01*
X120714285Y-110952380D02*
X120714285Y-109952380D01*
X121285714Y-110952380D01*
X121285714Y-109952380D01*
X121761904Y-110952380D02*
X121761904Y-109952380D01*
X122000000Y-109952380D01*
X122142857Y-110000000D01*
X122238095Y-110095238D01*
X122285714Y-110190476D01*
X122333333Y-110380952D01*
X122333333Y-110523809D01*
X122285714Y-110714285D01*
X122238095Y-110809523D01*
X122142857Y-110904761D01*
X122000000Y-110952380D01*
X121761904Y-110952380D01*
X107238095Y-110000000D02*
X107142857Y-109952380D01*
X107000000Y-109952380D01*
X106857142Y-110000000D01*
X106761904Y-110095238D01*
X106714285Y-110190476D01*
X106666666Y-110380952D01*
X106666666Y-110523809D01*
X106714285Y-110714285D01*
X106761904Y-110809523D01*
X106857142Y-110904761D01*
X107000000Y-110952380D01*
X107095238Y-110952380D01*
X107238095Y-110904761D01*
X107285714Y-110857142D01*
X107285714Y-110523809D01*
X107095238Y-110523809D01*
X107714285Y-110952380D02*
X107714285Y-109952380D01*
X108285714Y-110952380D01*
X108285714Y-109952380D01*
X108761904Y-110952380D02*
X108761904Y-109952380D01*
X109000000Y-109952380D01*
X109142857Y-110000000D01*
X109238095Y-110095238D01*
X109285714Y-110190476D01*
X109333333Y-110380952D01*
X109333333Y-110523809D01*
X109285714Y-110714285D01*
X109238095Y-110809523D01*
X109142857Y-110904761D01*
X109000000Y-110952380D01*
X108761904Y-110952380D01*
X101595238Y-110952380D02*
X101595238Y-109952380D01*
X101976190Y-109952380D01*
X102071428Y-110000000D01*
X102119047Y-110047619D01*
X102166666Y-110142857D01*
X102166666Y-110285714D01*
X102119047Y-110380952D01*
X102071428Y-110428571D01*
X101976190Y-110476190D01*
X101595238Y-110476190D01*
X102500000Y-109952380D02*
X102738095Y-110952380D01*
X102928571Y-110238095D01*
X103119047Y-110952380D01*
X103357142Y-109952380D01*
X103738095Y-110952380D02*
X103738095Y-109952380D01*
X104071428Y-110666666D01*
X104404761Y-109952380D01*
X104404761Y-110952380D01*
D11*
X113020000Y-97170000D02*
X113020000Y-96690000D01*
X102880000Y-97170000D02*
X113020000Y-97170000D01*
X102880000Y-96690000D02*
X102880000Y-97170000D01*
X113020000Y-93330000D02*
X113020000Y-93810000D01*
X102880000Y-93330000D02*
X113020000Y-93330000D01*
X102880000Y-93810000D02*
X102880000Y-93330000D01*
X113020000Y-92090000D02*
X113020000Y-91610000D01*
X102880000Y-92090000D02*
X113020000Y-92090000D01*
X102880000Y-91610000D02*
X102880000Y-92090000D01*
X113020000Y-88250000D02*
X113020000Y-88730000D01*
X102880000Y-88250000D02*
X113020000Y-88250000D01*
X102880000Y-88730000D02*
X102880000Y-88250000D01*
X100030000Y-109040000D02*
X100530000Y-109040000D01*
X100030000Y-108300000D02*
X100030000Y-109040000D01*
X106723000Y-105163000D02*
X106676000Y-105209000D01*
X109020000Y-102865000D02*
X108985000Y-102901000D01*
X106916000Y-105379000D02*
X106881000Y-105414000D01*
X109225000Y-103071000D02*
X109178000Y-103117000D01*
X110550000Y-98879000D02*
X110550000Y-108800000D01*
X100270000Y-98879000D02*
X100270000Y-108800000D01*
X100270000Y-108800000D02*
X110550000Y-108800000D01*
X100270000Y-98879000D02*
X110550000Y-98879000D01*
X100270000Y-101839000D02*
X110550000Y-101839000D01*
X100270000Y-106740000D02*
X110550000Y-106740000D01*
X100270000Y-108240000D02*
X110550000Y-108240000D01*
X109630000Y-104140000D02*
G75*
G03X109630000Y-104140000I-1680000J0D01*
G01*
X102898805Y-105820253D02*
G75*
G02X102186000Y-105675000I-28805J1680253D01*
G01*
X101334574Y-104823042D02*
G75*
G02X101335000Y-103456000I1535426J683042D01*
G01*
X102186958Y-102604574D02*
G75*
G02X103554000Y-102605000I683042J-1535426D01*
G01*
X104405426Y-103456958D02*
G75*
G02X104405000Y-104824000I-1535426J-683042D01*
G01*
X103553318Y-105674756D02*
G75*
G02X102870000Y-105820000I-683318J1534756D01*
G01*
X123190000Y-91620000D02*
X123190000Y-92080000D01*
X125910000Y-88900000D02*
G75*
G03X125910000Y-88900000I-2720000J0D01*
G01*
X125365000Y-77559000D02*
X125365000Y-82830000D01*
X121756000Y-77559000D02*
X121756000Y-82830000D01*
X131630000Y-77559000D02*
X131630000Y-82830000D01*
X115490000Y-77559000D02*
X115490000Y-82830000D01*
X115490000Y-82830000D02*
X131630000Y-82830000D01*
X115490000Y-77559000D02*
X131630000Y-77559000D01*
X141490000Y-95550000D02*
X141490000Y-95050000D01*
X140750000Y-95550000D02*
X141490000Y-95550000D01*
X136882000Y-88888000D02*
X137278000Y-89283000D01*
X134236000Y-86242000D02*
X134616000Y-86622000D01*
X137164000Y-88637000D02*
X137544000Y-89017000D01*
X134502000Y-85976000D02*
X134898000Y-86371000D01*
X137171000Y-94258000D02*
X137278000Y-94364000D01*
X134236000Y-91322000D02*
X134343000Y-91429000D01*
X137437000Y-93992000D02*
X137544000Y-94098000D01*
X134502000Y-91056000D02*
X134609000Y-91163000D01*
X129930000Y-85030000D02*
X141250000Y-85030000D01*
X129930000Y-95310000D02*
X141250000Y-95310000D01*
X141250000Y-95310000D02*
X141250000Y-85030000D01*
X129930000Y-95310000D02*
X129930000Y-85030000D01*
X131990000Y-95310000D02*
X131990000Y-85030000D01*
X138190000Y-95310000D02*
X138190000Y-85030000D01*
X140690000Y-95310000D02*
X140690000Y-85030000D01*
X138070000Y-87630000D02*
G75*
G03X138070000Y-87630000I-2180000J0D01*
G01*
X138070000Y-92710000D02*
G75*
G03X138070000Y-92710000I-2180000J0D01*
G01*
X130510000Y-109740000D02*
X131010000Y-109740000D01*
X130510000Y-109000000D02*
X130510000Y-109740000D01*
X137172000Y-105132000D02*
X136777000Y-105528000D01*
X139818000Y-102486000D02*
X139438000Y-102866000D01*
X137423000Y-105414000D02*
X137043000Y-105794000D01*
X140084000Y-102752000D02*
X139689000Y-103148000D01*
X131802000Y-105421000D02*
X131696000Y-105528000D01*
X134738000Y-102486000D02*
X134631000Y-102593000D01*
X132068000Y-105687000D02*
X131962000Y-105794000D01*
X135004000Y-102752000D02*
X134897000Y-102859000D01*
X141030000Y-98180000D02*
X141030000Y-109500000D01*
X130750000Y-98180000D02*
X130750000Y-109500000D01*
X130750000Y-109500000D02*
X141030000Y-109500000D01*
X130750000Y-98180000D02*
X141030000Y-98180000D01*
X130750000Y-100240000D02*
X141030000Y-100240000D01*
X130750000Y-106440000D02*
X141030000Y-106440000D01*
X130750000Y-108940000D02*
X141030000Y-108940000D01*
X140610000Y-104140000D02*
G75*
G03X140610000Y-104140000I-2180000J0D01*
G01*
X135530000Y-104140000D02*
G75*
G03X135530000Y-104140000I-2180000J0D01*
G01*
X100290000Y-76740000D02*
X110530000Y-76740000D01*
X100290000Y-81381000D02*
X110530000Y-81381000D01*
X100290000Y-76740000D02*
X100290000Y-81381000D01*
X110530000Y-76740000D02*
X110530000Y-81381000D01*
X100290000Y-78250000D02*
X110530000Y-78250000D01*
X103560000Y-76740000D02*
X103560000Y-78250000D01*
X107261000Y-76740000D02*
X107261000Y-78250000D01*
X113020000Y-86530000D02*
X113020000Y-87010000D01*
X113020000Y-87010000D02*
X102880000Y-87010000D01*
X102880000Y-87010000D02*
X102880000Y-86530000D01*
X113020000Y-83650000D02*
X113020000Y-83170000D01*
X113020000Y-83170000D02*
X102880000Y-83170000D01*
X102880000Y-83170000D02*
X102880000Y-83650000D01*
X116253318Y-105674756D02*
G75*
G02X115570000Y-105820000I-683318J1534756D01*
G01*
X117105426Y-103456958D02*
G75*
G02X117105000Y-104824000I-1535426J-683042D01*
G01*
X114886958Y-102604574D02*
G75*
G02X116254000Y-102605000I683042J-1535426D01*
G01*
X114034574Y-104823042D02*
G75*
G02X114035000Y-103456000I1535426J683042D01*
G01*
X115598805Y-105820253D02*
G75*
G02X114886000Y-105675000I-28805J1680253D01*
G01*
X122330000Y-104140000D02*
G75*
G03X122330000Y-104140000I-1680000J0D01*
G01*
X127410000Y-104140000D02*
G75*
G03X127410000Y-104140000I-1680000J0D01*
G01*
X112970000Y-108240000D02*
X128330000Y-108240000D01*
X112970000Y-106740000D02*
X128330000Y-106740000D01*
X112970000Y-101839000D02*
X128330000Y-101839000D01*
X112970000Y-98879000D02*
X128330000Y-98879000D01*
X112970000Y-108800000D02*
X128330000Y-108800000D01*
X112970000Y-98879000D02*
X112970000Y-108800000D01*
X128330000Y-98879000D02*
X128330000Y-108800000D01*
X121925000Y-103071000D02*
X121878000Y-103117000D01*
X119616000Y-105379000D02*
X119581000Y-105414000D01*
X121720000Y-102865000D02*
X121685000Y-102901000D01*
X119423000Y-105163000D02*
X119376000Y-105209000D01*
X127005000Y-103071000D02*
X126958000Y-103117000D01*
X124696000Y-105379000D02*
X124661000Y-105414000D01*
X126800000Y-102865000D02*
X126765000Y-102901000D01*
X124503000Y-105163000D02*
X124456000Y-105209000D01*
X112730000Y-108300000D02*
X112730000Y-109040000D01*
X112730000Y-109040000D02*
X113230000Y-109040000D01*
D10*
X107783333Y-95702380D02*
X107450000Y-95226190D01*
X107211904Y-95702380D02*
X107211904Y-94702380D01*
X107592857Y-94702380D01*
X107688095Y-94750000D01*
X107735714Y-94797619D01*
X107783333Y-94892857D01*
X107783333Y-95035714D01*
X107735714Y-95130952D01*
X107688095Y-95178571D01*
X107592857Y-95226190D01*
X107211904Y-95226190D01*
X108116666Y-94702380D02*
X108735714Y-94702380D01*
X108402380Y-95083333D01*
X108545238Y-95083333D01*
X108640476Y-95130952D01*
X108688095Y-95178571D01*
X108735714Y-95273809D01*
X108735714Y-95511904D01*
X108688095Y-95607142D01*
X108640476Y-95654761D01*
X108545238Y-95702380D01*
X108259523Y-95702380D01*
X108164285Y-95654761D01*
X108116666Y-95607142D01*
X107783333Y-90622380D02*
X107450000Y-90146190D01*
X107211904Y-90622380D02*
X107211904Y-89622380D01*
X107592857Y-89622380D01*
X107688095Y-89670000D01*
X107735714Y-89717619D01*
X107783333Y-89812857D01*
X107783333Y-89955714D01*
X107735714Y-90050952D01*
X107688095Y-90098571D01*
X107592857Y-90146190D01*
X107211904Y-90146190D01*
X108735714Y-90622380D02*
X108164285Y-90622380D01*
X108450000Y-90622380D02*
X108450000Y-89622380D01*
X108354761Y-89765238D01*
X108259523Y-89860476D01*
X108164285Y-89908095D01*
X105076666Y-99782380D02*
X105076666Y-100496666D01*
X105029047Y-100639523D01*
X104933809Y-100734761D01*
X104790952Y-100782380D01*
X104695714Y-100782380D01*
X105457619Y-99782380D02*
X106076666Y-99782380D01*
X105743333Y-100163333D01*
X105886190Y-100163333D01*
X105981428Y-100210952D01*
X106029047Y-100258571D01*
X106076666Y-100353809D01*
X106076666Y-100591904D01*
X106029047Y-100687142D01*
X105981428Y-100734761D01*
X105886190Y-100782380D01*
X105600476Y-100782380D01*
X105505238Y-100734761D01*
X105457619Y-100687142D01*
X127362380Y-92178095D02*
X126362380Y-92178095D01*
X126362380Y-91940000D01*
X126410000Y-91797142D01*
X126505238Y-91701904D01*
X126600476Y-91654285D01*
X126790952Y-91606666D01*
X126933809Y-91606666D01*
X127124285Y-91654285D01*
X127219523Y-91701904D01*
X127314761Y-91797142D01*
X127362380Y-91940000D01*
X127362380Y-92178095D01*
X127362380Y-90654285D02*
X127362380Y-91225714D01*
X127362380Y-90940000D02*
X126362380Y-90940000D01*
X126505238Y-91035238D01*
X126600476Y-91130476D01*
X126648095Y-91225714D01*
X120756666Y-94218095D02*
X120756666Y-93741904D01*
X121042380Y-94313333D02*
X120042380Y-93980000D01*
X121042380Y-93646666D01*
X123464761Y-77107619D02*
X123369523Y-77060000D01*
X123274285Y-76964761D01*
X123131428Y-76821904D01*
X123036190Y-76774285D01*
X122940952Y-76774285D01*
X122988571Y-77012380D02*
X122893333Y-76964761D01*
X122798095Y-76869523D01*
X122750476Y-76679047D01*
X122750476Y-76345714D01*
X122798095Y-76155238D01*
X122893333Y-76060000D01*
X122988571Y-76012380D01*
X123179047Y-76012380D01*
X123274285Y-76060000D01*
X123369523Y-76155238D01*
X123417142Y-76345714D01*
X123417142Y-76679047D01*
X123369523Y-76869523D01*
X123274285Y-76964761D01*
X123179047Y-77012380D01*
X122988571Y-77012380D01*
X123798095Y-76107619D02*
X123845714Y-76060000D01*
X123940952Y-76012380D01*
X124179047Y-76012380D01*
X124274285Y-76060000D01*
X124321904Y-76107619D01*
X124369523Y-76202857D01*
X124369523Y-76298095D01*
X124321904Y-76440952D01*
X123750476Y-77012380D01*
X124369523Y-77012380D01*
X139152380Y-90503333D02*
X139866666Y-90503333D01*
X140009523Y-90550952D01*
X140104761Y-90646190D01*
X140152380Y-90789047D01*
X140152380Y-90884285D01*
X140152380Y-89503333D02*
X140152380Y-90074761D01*
X140152380Y-89789047D02*
X139152380Y-89789047D01*
X139295238Y-89884285D01*
X139390476Y-89979523D01*
X139438095Y-90074761D01*
X135556666Y-107402380D02*
X135556666Y-108116666D01*
X135509047Y-108259523D01*
X135413809Y-108354761D01*
X135270952Y-108402380D01*
X135175714Y-108402380D01*
X136461428Y-107735714D02*
X136461428Y-108402380D01*
X136223333Y-107354761D02*
X135985238Y-108069047D01*
X136604285Y-108069047D01*
X105314761Y-76287619D02*
X105219523Y-76240000D01*
X105124285Y-76144761D01*
X104981428Y-76001904D01*
X104886190Y-75954285D01*
X104790952Y-75954285D01*
X104838571Y-76192380D02*
X104743333Y-76144761D01*
X104648095Y-76049523D01*
X104600476Y-75859047D01*
X104600476Y-75525714D01*
X104648095Y-75335238D01*
X104743333Y-75240000D01*
X104838571Y-75192380D01*
X105029047Y-75192380D01*
X105124285Y-75240000D01*
X105219523Y-75335238D01*
X105267142Y-75525714D01*
X105267142Y-75859047D01*
X105219523Y-76049523D01*
X105124285Y-76144761D01*
X105029047Y-76192380D01*
X104838571Y-76192380D01*
X106219523Y-76192380D02*
X105648095Y-76192380D01*
X105933809Y-76192380D02*
X105933809Y-75192380D01*
X105838571Y-75335238D01*
X105743333Y-75430476D01*
X105648095Y-75478095D01*
X107783333Y-85542380D02*
X107450000Y-85066190D01*
X107211904Y-85542380D02*
X107211904Y-84542380D01*
X107592857Y-84542380D01*
X107688095Y-84590000D01*
X107735714Y-84637619D01*
X107783333Y-84732857D01*
X107783333Y-84875714D01*
X107735714Y-84970952D01*
X107688095Y-85018571D01*
X107592857Y-85066190D01*
X107211904Y-85066190D01*
X108164285Y-84637619D02*
X108211904Y-84590000D01*
X108307142Y-84542380D01*
X108545238Y-84542380D01*
X108640476Y-84590000D01*
X108688095Y-84637619D01*
X108735714Y-84732857D01*
X108735714Y-84828095D01*
X108688095Y-84970952D01*
X108116666Y-85542380D01*
X108735714Y-85542380D01*
X120316666Y-99782380D02*
X120316666Y-100496666D01*
X120269047Y-100639523D01*
X120173809Y-100734761D01*
X120030952Y-100782380D01*
X119935714Y-100782380D01*
X120745238Y-99877619D02*
X120792857Y-99830000D01*
X120888095Y-99782380D01*
X121126190Y-99782380D01*
X121221428Y-99830000D01*
X121269047Y-99877619D01*
X121316666Y-99972857D01*
X121316666Y-100068095D01*
X121269047Y-100210952D01*
X120697619Y-100782380D01*
X121316666Y-100782380D01*
M02*
