G04 #@! TF.GenerationSoftware,KiCad,Pcbnew,(5.1.2)-1*
G04 #@! TF.CreationDate,2020-10-26T09:15:15+01:00*
G04 #@! TF.ProjectId,Flyback driver Cool-Tip v1.0.0,466c7962-6163-46b2-9064-726976657220,rev?*
G04 #@! TF.SameCoordinates,Original*
G04 #@! TF.FileFunction,Soldermask,Top*
G04 #@! TF.FilePolarity,Negative*
%FSLAX46Y46*%
G04 Gerber Fmt 4.6, Leading zero omitted, Abs format (unit mm)*
G04 Created by KiCad (PCBNEW (5.1.2)-1) date 2020-10-26 09:15:15*
%MOMM*%
%LPD*%
G04 APERTURE LIST*
%ADD10C,0.100000*%
G04 APERTURE END LIST*
D10*
G36*
X126124072Y-102840918D02*
G01*
X126369939Y-102942759D01*
X126591212Y-103090610D01*
X126779390Y-103278788D01*
X126927241Y-103500061D01*
X127029082Y-103745928D01*
X127081000Y-104006938D01*
X127081000Y-104273062D01*
X127029082Y-104534072D01*
X126927241Y-104779939D01*
X126779390Y-105001212D01*
X126591212Y-105189390D01*
X126369939Y-105337241D01*
X126369938Y-105337242D01*
X126369937Y-105337242D01*
X126124072Y-105439082D01*
X125863063Y-105491000D01*
X125596937Y-105491000D01*
X125335928Y-105439082D01*
X125090063Y-105337242D01*
X125090062Y-105337242D01*
X125090061Y-105337241D01*
X124868788Y-105189390D01*
X124680610Y-105001212D01*
X124532759Y-104779939D01*
X124430918Y-104534072D01*
X124379000Y-104273062D01*
X124379000Y-104006938D01*
X124430918Y-103745928D01*
X124532759Y-103500061D01*
X124680610Y-103278788D01*
X124868788Y-103090610D01*
X125090061Y-102942759D01*
X125335928Y-102840918D01*
X125596937Y-102789000D01*
X125863063Y-102789000D01*
X126124072Y-102840918D01*
X126124072Y-102840918D01*
G37*
G36*
X121044072Y-102840918D02*
G01*
X121289939Y-102942759D01*
X121511212Y-103090610D01*
X121699390Y-103278788D01*
X121847241Y-103500061D01*
X121949082Y-103745928D01*
X122001000Y-104006938D01*
X122001000Y-104273062D01*
X121949082Y-104534072D01*
X121847241Y-104779939D01*
X121699390Y-105001212D01*
X121511212Y-105189390D01*
X121289939Y-105337241D01*
X121289938Y-105337242D01*
X121289937Y-105337242D01*
X121044072Y-105439082D01*
X120783063Y-105491000D01*
X120516937Y-105491000D01*
X120255928Y-105439082D01*
X120010063Y-105337242D01*
X120010062Y-105337242D01*
X120010061Y-105337241D01*
X119788788Y-105189390D01*
X119600610Y-105001212D01*
X119452759Y-104779939D01*
X119350918Y-104534072D01*
X119299000Y-104273062D01*
X119299000Y-104006938D01*
X119350918Y-103745928D01*
X119452759Y-103500061D01*
X119600610Y-103278788D01*
X119788788Y-103090610D01*
X120010061Y-102942759D01*
X120255928Y-102840918D01*
X120516937Y-102789000D01*
X120783063Y-102789000D01*
X121044072Y-102840918D01*
X121044072Y-102840918D01*
G37*
G36*
X116921000Y-105491000D02*
G01*
X114219000Y-105491000D01*
X114219000Y-102789000D01*
X116921000Y-102789000D01*
X116921000Y-105491000D01*
X116921000Y-105491000D01*
G37*
G36*
X138824072Y-102840918D02*
G01*
X139069939Y-102942759D01*
X139291212Y-103090610D01*
X139479390Y-103278788D01*
X139627241Y-103500061D01*
X139729082Y-103745928D01*
X139781000Y-104006938D01*
X139781000Y-104273062D01*
X139729082Y-104534072D01*
X139627241Y-104779939D01*
X139479390Y-105001212D01*
X139291212Y-105189390D01*
X139069939Y-105337241D01*
X139069938Y-105337242D01*
X139069937Y-105337242D01*
X138824072Y-105439082D01*
X138563063Y-105491000D01*
X138296937Y-105491000D01*
X138035928Y-105439082D01*
X137790063Y-105337242D01*
X137790062Y-105337242D01*
X137790061Y-105337241D01*
X137568788Y-105189390D01*
X137380610Y-105001212D01*
X137232759Y-104779939D01*
X137130918Y-104534072D01*
X137079000Y-104273062D01*
X137079000Y-104006938D01*
X137130918Y-103745928D01*
X137232759Y-103500061D01*
X137380610Y-103278788D01*
X137568788Y-103090610D01*
X137790061Y-102942759D01*
X138035928Y-102840918D01*
X138296937Y-102789000D01*
X138563063Y-102789000D01*
X138824072Y-102840918D01*
X138824072Y-102840918D01*
G37*
G36*
X104221000Y-105491000D02*
G01*
X101519000Y-105491000D01*
X101519000Y-102789000D01*
X104221000Y-102789000D01*
X104221000Y-105491000D01*
X104221000Y-105491000D01*
G37*
G36*
X108344072Y-102840918D02*
G01*
X108589939Y-102942759D01*
X108811212Y-103090610D01*
X108999390Y-103278788D01*
X109147241Y-103500061D01*
X109249082Y-103745928D01*
X109301000Y-104006938D01*
X109301000Y-104273062D01*
X109249082Y-104534072D01*
X109147241Y-104779939D01*
X108999390Y-105001212D01*
X108811212Y-105189390D01*
X108589939Y-105337241D01*
X108589938Y-105337242D01*
X108589937Y-105337242D01*
X108344072Y-105439082D01*
X108083063Y-105491000D01*
X107816937Y-105491000D01*
X107555928Y-105439082D01*
X107310063Y-105337242D01*
X107310062Y-105337242D01*
X107310061Y-105337241D01*
X107088788Y-105189390D01*
X106900610Y-105001212D01*
X106752759Y-104779939D01*
X106650918Y-104534072D01*
X106599000Y-104273062D01*
X106599000Y-104006938D01*
X106650918Y-103745928D01*
X106752759Y-103500061D01*
X106900610Y-103278788D01*
X107088788Y-103090610D01*
X107310061Y-102942759D01*
X107555928Y-102840918D01*
X107816937Y-102789000D01*
X108083063Y-102789000D01*
X108344072Y-102840918D01*
X108344072Y-102840918D01*
G37*
G36*
X134701000Y-105491000D02*
G01*
X131999000Y-105491000D01*
X131999000Y-102789000D01*
X134701000Y-102789000D01*
X134701000Y-105491000D01*
X134701000Y-105491000D01*
G37*
G36*
X114545239Y-94017101D02*
G01*
X114781053Y-94088634D01*
X114998381Y-94204799D01*
X115188871Y-94361129D01*
X115345201Y-94551619D01*
X115461366Y-94768947D01*
X115532899Y-95004761D01*
X115557053Y-95250000D01*
X115532899Y-95495239D01*
X115461366Y-95731053D01*
X115345201Y-95948381D01*
X115188871Y-96138871D01*
X114998381Y-96295201D01*
X114781053Y-96411366D01*
X114545239Y-96482899D01*
X114361457Y-96501000D01*
X114238543Y-96501000D01*
X114054761Y-96482899D01*
X113818947Y-96411366D01*
X113601619Y-96295201D01*
X113411129Y-96138871D01*
X113254799Y-95948381D01*
X113138634Y-95731053D01*
X113067101Y-95495239D01*
X113042947Y-95250000D01*
X113067101Y-95004761D01*
X113138634Y-94768947D01*
X113254799Y-94551619D01*
X113411129Y-94361129D01*
X113601619Y-94204799D01*
X113818947Y-94088634D01*
X114054761Y-94017101D01*
X114238543Y-93999000D01*
X114361457Y-93999000D01*
X114545239Y-94017101D01*
X114545239Y-94017101D01*
G37*
G36*
X101964903Y-94047075D02*
G01*
X102065236Y-94088634D01*
X102192571Y-94141378D01*
X102397466Y-94278285D01*
X102571715Y-94452534D01*
X102708622Y-94657429D01*
X102802925Y-94885097D01*
X102851000Y-95126787D01*
X102851000Y-95373213D01*
X102802925Y-95614903D01*
X102708622Y-95842571D01*
X102571715Y-96047466D01*
X102397466Y-96221715D01*
X102192571Y-96358622D01*
X102192570Y-96358623D01*
X102192569Y-96358623D01*
X101964903Y-96452925D01*
X101723214Y-96501000D01*
X101476786Y-96501000D01*
X101235097Y-96452925D01*
X101007431Y-96358623D01*
X101007430Y-96358623D01*
X101007429Y-96358622D01*
X100802534Y-96221715D01*
X100628285Y-96047466D01*
X100491378Y-95842571D01*
X100397075Y-95614903D01*
X100349000Y-95373213D01*
X100349000Y-95126787D01*
X100397075Y-94885097D01*
X100491378Y-94657429D01*
X100628285Y-94452534D01*
X100802534Y-94278285D01*
X101007429Y-94141378D01*
X101134765Y-94088634D01*
X101235097Y-94047075D01*
X101476786Y-93999000D01*
X101723214Y-93999000D01*
X101964903Y-94047075D01*
X101964903Y-94047075D01*
G37*
G36*
X123513651Y-92352888D02*
G01*
X123824870Y-92447296D01*
X124111680Y-92600599D01*
X124111683Y-92600601D01*
X124111684Y-92600602D01*
X124363082Y-92806918D01*
X124569398Y-93058316D01*
X124569401Y-93058320D01*
X124722704Y-93345130D01*
X124817112Y-93656349D01*
X124848988Y-93980000D01*
X124817112Y-94303651D01*
X124722704Y-94614870D01*
X124569401Y-94901680D01*
X124569399Y-94901683D01*
X124569398Y-94901684D01*
X124363082Y-95153082D01*
X124111684Y-95359398D01*
X124111680Y-95359401D01*
X123824870Y-95512704D01*
X123513651Y-95607112D01*
X123271107Y-95631000D01*
X123108893Y-95631000D01*
X122866349Y-95607112D01*
X122555130Y-95512704D01*
X122268320Y-95359401D01*
X122268316Y-95359398D01*
X122016918Y-95153082D01*
X121810602Y-94901684D01*
X121810601Y-94901683D01*
X121810599Y-94901680D01*
X121657296Y-94614870D01*
X121562888Y-94303651D01*
X121531012Y-93980000D01*
X121562888Y-93656349D01*
X121657296Y-93345130D01*
X121810599Y-93058320D01*
X121810602Y-93058316D01*
X122016918Y-92806918D01*
X122268316Y-92600602D01*
X122268317Y-92600601D01*
X122268320Y-92600599D01*
X122555130Y-92447296D01*
X122866349Y-92352888D01*
X123108893Y-92329000D01*
X123271107Y-92329000D01*
X123513651Y-92352888D01*
X123513651Y-92352888D01*
G37*
G36*
X137241000Y-94061000D02*
G01*
X134539000Y-94061000D01*
X134539000Y-91359000D01*
X137241000Y-91359000D01*
X137241000Y-94061000D01*
X137241000Y-94061000D01*
G37*
G36*
X101964903Y-88967075D02*
G01*
X102065236Y-89008634D01*
X102192571Y-89061378D01*
X102397466Y-89198285D01*
X102571715Y-89372534D01*
X102708622Y-89577429D01*
X102802925Y-89805097D01*
X102851000Y-90046787D01*
X102851000Y-90293213D01*
X102802925Y-90534903D01*
X102708622Y-90762571D01*
X102571715Y-90967466D01*
X102397466Y-91141715D01*
X102192571Y-91278622D01*
X102192570Y-91278623D01*
X102192569Y-91278623D01*
X101964903Y-91372925D01*
X101723214Y-91421000D01*
X101476786Y-91421000D01*
X101235097Y-91372925D01*
X101007431Y-91278623D01*
X101007430Y-91278623D01*
X101007429Y-91278622D01*
X100802534Y-91141715D01*
X100628285Y-90967466D01*
X100491378Y-90762571D01*
X100397075Y-90534903D01*
X100349000Y-90293213D01*
X100349000Y-90046787D01*
X100397075Y-89805097D01*
X100491378Y-89577429D01*
X100628285Y-89372534D01*
X100802534Y-89198285D01*
X101007429Y-89061378D01*
X101134765Y-89008634D01*
X101235097Y-88967075D01*
X101476786Y-88919000D01*
X101723214Y-88919000D01*
X101964903Y-88967075D01*
X101964903Y-88967075D01*
G37*
G36*
X114545239Y-88937101D02*
G01*
X114781053Y-89008634D01*
X114998381Y-89124799D01*
X115188871Y-89281129D01*
X115345201Y-89471619D01*
X115461366Y-89688947D01*
X115532899Y-89924761D01*
X115557053Y-90170000D01*
X115532899Y-90415239D01*
X115461366Y-90651053D01*
X115345201Y-90868381D01*
X115188871Y-91058871D01*
X114998381Y-91215201D01*
X114781053Y-91331366D01*
X114545239Y-91402899D01*
X114361457Y-91421000D01*
X114238543Y-91421000D01*
X114054761Y-91402899D01*
X113818947Y-91331366D01*
X113601619Y-91215201D01*
X113411129Y-91058871D01*
X113254799Y-90868381D01*
X113138634Y-90651053D01*
X113067101Y-90415239D01*
X113042947Y-90170000D01*
X113067101Y-89924761D01*
X113138634Y-89688947D01*
X113254799Y-89471619D01*
X113411129Y-89281129D01*
X113601619Y-89124799D01*
X113818947Y-89008634D01*
X114054761Y-88937101D01*
X114238543Y-88919000D01*
X114361457Y-88919000D01*
X114545239Y-88937101D01*
X114545239Y-88937101D01*
G37*
G36*
X124841000Y-90551000D02*
G01*
X121539000Y-90551000D01*
X121539000Y-87249000D01*
X124841000Y-87249000D01*
X124841000Y-90551000D01*
X124841000Y-90551000D01*
G37*
G36*
X136243758Y-86322899D02*
G01*
X136284072Y-86330918D01*
X136529939Y-86432759D01*
X136751212Y-86580610D01*
X136939390Y-86768788D01*
X137087241Y-86990061D01*
X137189082Y-87235928D01*
X137241000Y-87496938D01*
X137241000Y-87763062D01*
X137189082Y-88024072D01*
X137087241Y-88269939D01*
X136939390Y-88491212D01*
X136751212Y-88679390D01*
X136529939Y-88827241D01*
X136529938Y-88827242D01*
X136529937Y-88827242D01*
X136284072Y-88929082D01*
X136023063Y-88981000D01*
X135756937Y-88981000D01*
X135495928Y-88929082D01*
X135250063Y-88827242D01*
X135250062Y-88827242D01*
X135250061Y-88827241D01*
X135028788Y-88679390D01*
X134840610Y-88491212D01*
X134692759Y-88269939D01*
X134590918Y-88024072D01*
X134539000Y-87763062D01*
X134539000Y-87496938D01*
X134590918Y-87235928D01*
X134692759Y-86990061D01*
X134840610Y-86768788D01*
X135028788Y-86580610D01*
X135250061Y-86432759D01*
X135495928Y-86330918D01*
X135536242Y-86322899D01*
X135756937Y-86279000D01*
X136023063Y-86279000D01*
X136243758Y-86322899D01*
X136243758Y-86322899D01*
G37*
G36*
X101845239Y-83857101D02*
G01*
X102081053Y-83928634D01*
X102298381Y-84044799D01*
X102488871Y-84201129D01*
X102645201Y-84391619D01*
X102761366Y-84608947D01*
X102832899Y-84844761D01*
X102857053Y-85090000D01*
X102832899Y-85335239D01*
X102761366Y-85571053D01*
X102645201Y-85788381D01*
X102488871Y-85978871D01*
X102298381Y-86135201D01*
X102081053Y-86251366D01*
X101845239Y-86322899D01*
X101661457Y-86341000D01*
X101538543Y-86341000D01*
X101354761Y-86322899D01*
X101118947Y-86251366D01*
X100901619Y-86135201D01*
X100711129Y-85978871D01*
X100554799Y-85788381D01*
X100438634Y-85571053D01*
X100367101Y-85335239D01*
X100342947Y-85090000D01*
X100367101Y-84844761D01*
X100438634Y-84608947D01*
X100554799Y-84391619D01*
X100711129Y-84201129D01*
X100901619Y-84044799D01*
X101118947Y-83928634D01*
X101354761Y-83857101D01*
X101538543Y-83839000D01*
X101661457Y-83839000D01*
X101845239Y-83857101D01*
X101845239Y-83857101D01*
G37*
G36*
X114664903Y-83887075D02*
G01*
X114765236Y-83928634D01*
X114892571Y-83981378D01*
X115097466Y-84118285D01*
X115271715Y-84292534D01*
X115408622Y-84497429D01*
X115502925Y-84725097D01*
X115551000Y-84966787D01*
X115551000Y-85213213D01*
X115502925Y-85454903D01*
X115408622Y-85682571D01*
X115271715Y-85887466D01*
X115097466Y-86061715D01*
X114892571Y-86198622D01*
X114892570Y-86198623D01*
X114892569Y-86198623D01*
X114664903Y-86292925D01*
X114423214Y-86341000D01*
X114176786Y-86341000D01*
X113935097Y-86292925D01*
X113707431Y-86198623D01*
X113707430Y-86198623D01*
X113707429Y-86198622D01*
X113502534Y-86061715D01*
X113328285Y-85887466D01*
X113191378Y-85682571D01*
X113097075Y-85454903D01*
X113049000Y-85213213D01*
X113049000Y-84966787D01*
X113097075Y-84725097D01*
X113191378Y-84497429D01*
X113328285Y-84292534D01*
X113502534Y-84118285D01*
X113707429Y-83981378D01*
X113834765Y-83928634D01*
X113935097Y-83887075D01*
X114176786Y-83839000D01*
X114423214Y-83839000D01*
X114664903Y-83887075D01*
X114664903Y-83887075D01*
G37*
G36*
X123815039Y-77727825D02*
G01*
X124060279Y-77802218D01*
X124286293Y-77923025D01*
X124484396Y-78085604D01*
X124646975Y-78283706D01*
X124767782Y-78509720D01*
X124842175Y-78754960D01*
X124861000Y-78946095D01*
X124861000Y-81073905D01*
X124842175Y-81265040D01*
X124767782Y-81510280D01*
X124646975Y-81736294D01*
X124604624Y-81787899D01*
X124484397Y-81934397D01*
X124337899Y-82054624D01*
X124286294Y-82096975D01*
X124060280Y-82217782D01*
X123815040Y-82292175D01*
X123560000Y-82317294D01*
X123304961Y-82292175D01*
X123059721Y-82217782D01*
X122833707Y-82096975D01*
X122782102Y-82054624D01*
X122635604Y-81934397D01*
X122515377Y-81787899D01*
X122473026Y-81736294D01*
X122352219Y-81510280D01*
X122277826Y-81265040D01*
X122259001Y-81073905D01*
X122259000Y-78946096D01*
X122277825Y-78754961D01*
X122352218Y-78509721D01*
X122473025Y-78283707D01*
X122635604Y-78085604D01*
X122833706Y-77923025D01*
X122833705Y-77923025D01*
X122833707Y-77923024D01*
X123059718Y-77802219D01*
X123059720Y-77802218D01*
X123304960Y-77727825D01*
X123560000Y-77702706D01*
X123815039Y-77727825D01*
X123815039Y-77727825D01*
G37*
G36*
X129265039Y-77727825D02*
G01*
X129510279Y-77802218D01*
X129736293Y-77923025D01*
X129934396Y-78085604D01*
X130096975Y-78283706D01*
X130217782Y-78509720D01*
X130292175Y-78754960D01*
X130311000Y-78946095D01*
X130311000Y-81073905D01*
X130292175Y-81265040D01*
X130217782Y-81510280D01*
X130096975Y-81736294D01*
X130054624Y-81787899D01*
X129934397Y-81934397D01*
X129787899Y-82054624D01*
X129736294Y-82096975D01*
X129510280Y-82217782D01*
X129265040Y-82292175D01*
X129010000Y-82317294D01*
X128754961Y-82292175D01*
X128509721Y-82217782D01*
X128283707Y-82096975D01*
X128232102Y-82054624D01*
X128085604Y-81934397D01*
X127965377Y-81787899D01*
X127923026Y-81736294D01*
X127802219Y-81510280D01*
X127727826Y-81265040D01*
X127709001Y-81073905D01*
X127709000Y-78946096D01*
X127727825Y-78754961D01*
X127802218Y-78509721D01*
X127923025Y-78283707D01*
X128085604Y-78085604D01*
X128283706Y-77923025D01*
X128283705Y-77923025D01*
X128283707Y-77923024D01*
X128509718Y-77802219D01*
X128509720Y-77802218D01*
X128754960Y-77727825D01*
X129010000Y-77702706D01*
X129265039Y-77727825D01*
X129265039Y-77727825D01*
G37*
G36*
X119411000Y-82311000D02*
G01*
X116809000Y-82311000D01*
X116809000Y-77709000D01*
X119411000Y-77709000D01*
X119411000Y-82311000D01*
X119411000Y-82311000D01*
G37*
G36*
X105606719Y-78973520D02*
G01*
X105795880Y-79030901D01*
X105795883Y-79030902D01*
X105888333Y-79080318D01*
X105970212Y-79124083D01*
X106123015Y-79249485D01*
X106248417Y-79402288D01*
X106341599Y-79576619D01*
X106398980Y-79765780D01*
X106413500Y-79913206D01*
X106413500Y-80106793D01*
X106398980Y-80254219D01*
X106341599Y-80443380D01*
X106341598Y-80443383D01*
X106292182Y-80535833D01*
X106248417Y-80617712D01*
X106123015Y-80770515D01*
X105970212Y-80895917D01*
X105795881Y-80989099D01*
X105606720Y-81046480D01*
X105410000Y-81065855D01*
X105213281Y-81046480D01*
X105024120Y-80989099D01*
X104849788Y-80895917D01*
X104696985Y-80770515D01*
X104571583Y-80617712D01*
X104478401Y-80443381D01*
X104421020Y-80254220D01*
X104406500Y-80106794D01*
X104406500Y-79913207D01*
X104421020Y-79765781D01*
X104478401Y-79576620D01*
X104478402Y-79576617D01*
X104527818Y-79484167D01*
X104571583Y-79402288D01*
X104696985Y-79249485D01*
X104849788Y-79124083D01*
X105024119Y-79030901D01*
X105213280Y-78973520D01*
X105410000Y-78954145D01*
X105606719Y-78973520D01*
X105606719Y-78973520D01*
G37*
G36*
X108146719Y-78973520D02*
G01*
X108335880Y-79030901D01*
X108335883Y-79030902D01*
X108428333Y-79080318D01*
X108510212Y-79124083D01*
X108663015Y-79249485D01*
X108788417Y-79402288D01*
X108881599Y-79576619D01*
X108938980Y-79765780D01*
X108953500Y-79913206D01*
X108953500Y-80106793D01*
X108938980Y-80254219D01*
X108881599Y-80443380D01*
X108881598Y-80443383D01*
X108832182Y-80535833D01*
X108788417Y-80617712D01*
X108663015Y-80770515D01*
X108510212Y-80895917D01*
X108335881Y-80989099D01*
X108146720Y-81046480D01*
X107950000Y-81065855D01*
X107753281Y-81046480D01*
X107564120Y-80989099D01*
X107389788Y-80895917D01*
X107236985Y-80770515D01*
X107111583Y-80617712D01*
X107018401Y-80443381D01*
X106961020Y-80254220D01*
X106946500Y-80106794D01*
X106946500Y-79913207D01*
X106961020Y-79765781D01*
X107018401Y-79576620D01*
X107018402Y-79576617D01*
X107067818Y-79484167D01*
X107111583Y-79402288D01*
X107236985Y-79249485D01*
X107389788Y-79124083D01*
X107564119Y-79030901D01*
X107753280Y-78973520D01*
X107950000Y-78954145D01*
X108146719Y-78973520D01*
X108146719Y-78973520D01*
G37*
G36*
X103873500Y-81061000D02*
G01*
X101866500Y-81061000D01*
X101866500Y-78959000D01*
X103873500Y-78959000D01*
X103873500Y-81061000D01*
X103873500Y-81061000D01*
G37*
M02*
