M48
; DRILL file {KiCad (5.1.2)-1} date 26.10.2020 09:15:12
; FORMAT={-:-/ absolute / metric / decimal}
; #@! TF.CreationDate,2020-10-26T09:15:12+01:00
; #@! TF.GenerationSoftware,Kicad,Pcbnew,(5.1.2)-1
; #@! TF.FileFunction,Plated,1,2,PTH
FMAT,2
METRIC
T1C1.100
T2C1.200
T3C1.300
T4C1.500
T5C1.600
%
G90
G05
T1
X102.87Y-80.01
X105.41Y-80.01
X107.95Y-80.01
T2
X101.6Y-85.09
X101.6Y-95.25
X101.6Y-90.17
X114.3Y-90.17
X114.3Y-85.09
X114.3Y-95.25
T3
X102.87Y-104.14
X107.95Y-104.14
X135.89Y-87.63
X135.89Y-92.71
X133.35Y-104.14
X138.43Y-104.14
X115.57Y-104.14
X120.65Y-104.14
X125.73Y-104.14
T4
X118.11Y-80.01
X123.56Y-80.01
X129.01Y-80.01
T5
X123.19Y-88.9
X123.19Y-93.98
T0
M30
