G04 #@! TF.GenerationSoftware,KiCad,Pcbnew,(5.1.2)-1*
G04 #@! TF.CreationDate,2019-06-06T17:06:26+02:00*
G04 #@! TF.ProjectId,SBD electrode by JLCPCB,53424420-656c-4656-9374-726f64652062,1.0.1*
G04 #@! TF.SameCoordinates,Original*
G04 #@! TF.FileFunction,Copper,L2,Bot*
G04 #@! TF.FilePolarity,Positive*
%FSLAX46Y46*%
G04 Gerber Fmt 4.6, Leading zero omitted, Abs format (unit mm)*
G04 Created by KiCad (PCBNEW (5.1.2)-1) date 2019-06-06 17:06:26*
%MOMM*%
%LPD*%
G04 APERTURE LIST*
%ADD10C,10.160000*%
%ADD11C,5.000000*%
%ADD12C,5.000000*%
G04 APERTURE END LIST*
D10*
X325800000Y-140240000D03*
X40800000Y-140240000D03*
D11*
X310800000Y-20240000D03*
X55800000Y-20240000D03*
X310800000Y-100240000D03*
X310800000Y-180240000D03*
X310800000Y-260240000D03*
X55800000Y-260240000D03*
X55800000Y-180240000D03*
X55800000Y-100240000D03*
D12*
X75800000Y-167240000D02*
X285800000Y-167240000D01*
X75800000Y-157240000D02*
X285800000Y-157240000D01*
X75800000Y-128240000D02*
X285800000Y-128240000D01*
X75800000Y-118240000D02*
X285800000Y-118240000D01*
X75800000Y-89240000D02*
X285800000Y-89240000D01*
X75800000Y-79240000D02*
X285800000Y-79240000D01*
X75800000Y-186240000D02*
X285800000Y-186240000D01*
X75800000Y-206240000D02*
X285800000Y-206240000D01*
X75800000Y-196240000D02*
X285800000Y-196240000D01*
X75800000Y-147240000D02*
X285800000Y-147240000D01*
X75800000Y-108240000D02*
X285800000Y-108240000D01*
X75800000Y-69240000D02*
X285800000Y-69240000D01*
X75800000Y-235240000D02*
X285800000Y-235240000D01*
X75800000Y-225240000D02*
X285800000Y-225240000D01*
X75800000Y-245240000D02*
X285800000Y-245240000D01*
X75800000Y-50240000D02*
X285800000Y-50240000D01*
X75800000Y-30240000D02*
X285800000Y-30240000D01*
X75660000Y-140240000D02*
X75800000Y-140100000D01*
X40800000Y-140240000D02*
X75800000Y-140240000D01*
X75800000Y-30240000D02*
X75800000Y-140100000D01*
X75800000Y-140100000D02*
X75800000Y-250240000D01*
X75800000Y-40240000D02*
X285800000Y-40240000D01*
M02*
