G04 #@! TF.GenerationSoftware,KiCad,Pcbnew,(5.1.2)-1*
G04 #@! TF.CreationDate,2019-06-06T17:06:26+02:00*
G04 #@! TF.ProjectId,SBD electrode by JLCPCB,53424420-656c-4656-9374-726f64652062,1.0.1*
G04 #@! TF.SameCoordinates,Original*
G04 #@! TF.FileFunction,Soldermask,Top*
G04 #@! TF.FilePolarity,Negative*
%FSLAX46Y46*%
G04 Gerber Fmt 4.6, Leading zero omitted, Abs format (unit mm)*
G04 Created by KiCad (PCBNEW (5.1.2)-1) date 2019-06-06 17:06:26*
%MOMM*%
%LPD*%
G04 APERTURE LIST*
%ADD10C,0.100000*%
G04 APERTURE END LIST*
D10*
G36*
X326801009Y-135207591D02*
G01*
X327296658Y-135306181D01*
X328230440Y-135692967D01*
X329070822Y-136254492D01*
X329785508Y-136969178D01*
X330347033Y-137809560D01*
X330733819Y-138743342D01*
X330931000Y-139734641D01*
X330931000Y-140745359D01*
X330733819Y-141736658D01*
X330347033Y-142670440D01*
X329785508Y-143510822D01*
X329070822Y-144225508D01*
X328230440Y-144787033D01*
X327296658Y-145173819D01*
X326801008Y-145272410D01*
X326305361Y-145371000D01*
X325294639Y-145371000D01*
X324798992Y-145272410D01*
X324303342Y-145173819D01*
X323369560Y-144787033D01*
X322529178Y-144225508D01*
X321814492Y-143510822D01*
X321252967Y-142670440D01*
X320866181Y-141736658D01*
X320669000Y-140745359D01*
X320669000Y-139734641D01*
X320866181Y-138743342D01*
X321252967Y-137809560D01*
X321814492Y-136969178D01*
X322529178Y-136254492D01*
X323369560Y-135692967D01*
X324303342Y-135306181D01*
X324798991Y-135207591D01*
X325294639Y-135109000D01*
X326305361Y-135109000D01*
X326801009Y-135207591D01*
X326801009Y-135207591D01*
G37*
G36*
X41801009Y-135207591D02*
G01*
X42296658Y-135306181D01*
X43230440Y-135692967D01*
X44070822Y-136254492D01*
X44785508Y-136969178D01*
X45347033Y-137809560D01*
X45733819Y-138743342D01*
X45931000Y-139734641D01*
X45931000Y-140745359D01*
X45733819Y-141736658D01*
X45347033Y-142670440D01*
X44785508Y-143510822D01*
X44070822Y-144225508D01*
X43230440Y-144787033D01*
X42296658Y-145173819D01*
X41801008Y-145272410D01*
X41305361Y-145371000D01*
X40294639Y-145371000D01*
X39798992Y-145272410D01*
X39303342Y-145173819D01*
X38369560Y-144787033D01*
X37529178Y-144225508D01*
X36814492Y-143510822D01*
X36252967Y-142670440D01*
X35866181Y-141736658D01*
X35669000Y-140745359D01*
X35669000Y-139734641D01*
X35866181Y-138743342D01*
X36252967Y-137809560D01*
X36814492Y-136969178D01*
X37529178Y-136254492D01*
X38369560Y-135692967D01*
X39303342Y-135306181D01*
X39798991Y-135207591D01*
X40294639Y-135109000D01*
X41305361Y-135109000D01*
X41801009Y-135207591D01*
X41801009Y-135207591D01*
G37*
M02*
