%FSLAX45Y45*%
G04 Gerber Fmt 4.5, Leading zero omitted, Abs format (unit mm)*
G04 Created by KiCad (PCBNEW (5.1.2)-1) date 2019-05-07 06:54:43*
%MOMM*%
%LPD*%
G04 APERTURE LIST*
%ADD10C,0.050000*%
%ADD11C,0.200000*%
%ADD12C,0.300000*%
G04 APERTURE END LIST*
D10*
X5207000Y-4064000D02*
X4953000Y-4064000D01*
X4953000Y-13081000D02*
X5207000Y-13081000D01*
X4953000Y-4064000D02*
X4953000Y-13081000D01*
X20193000Y-4064000D02*
X20193000Y-13081000D01*
X20193000Y-4064000D02*
X5207000Y-4064000D01*
X5207000Y-13081000D02*
X20193000Y-13081000D01*
D11*
D12*
X5236928Y-13549214D02*
X5236928Y-13249214D01*
X5308357Y-13249214D01*
X5351214Y-13263500D01*
X5379786Y-13292071D01*
X5394071Y-13320643D01*
X5408357Y-13377786D01*
X5408357Y-13420643D01*
X5394071Y-13477786D01*
X5379786Y-13506357D01*
X5351214Y-13534929D01*
X5308357Y-13549214D01*
X5236928Y-13549214D01*
X5536928Y-13549214D02*
X5536928Y-13349214D01*
X5536928Y-13406357D02*
X5551214Y-13377786D01*
X5565500Y-13363500D01*
X5594071Y-13349214D01*
X5622643Y-13349214D01*
X5722643Y-13549214D02*
X5722643Y-13349214D01*
X5722643Y-13249214D02*
X5708357Y-13263500D01*
X5722643Y-13277786D01*
X5736928Y-13263500D01*
X5722643Y-13249214D01*
X5722643Y-13277786D01*
X5908357Y-13549214D02*
X5879786Y-13534929D01*
X5865500Y-13506357D01*
X5865500Y-13249214D01*
X6065500Y-13549214D02*
X6036928Y-13534929D01*
X6022643Y-13506357D01*
X6022643Y-13249214D01*
X6408357Y-13549214D02*
X6408357Y-13249214D01*
X6508357Y-13463500D01*
X6608357Y-13249214D01*
X6608357Y-13549214D01*
X6879786Y-13549214D02*
X6879786Y-13392071D01*
X6865500Y-13363500D01*
X6836928Y-13349214D01*
X6779786Y-13349214D01*
X6751214Y-13363500D01*
X6879786Y-13534929D02*
X6851214Y-13549214D01*
X6779786Y-13549214D01*
X6751214Y-13534929D01*
X6736928Y-13506357D01*
X6736928Y-13477786D01*
X6751214Y-13449214D01*
X6779786Y-13434929D01*
X6851214Y-13434929D01*
X6879786Y-13420643D01*
X7022643Y-13349214D02*
X7022643Y-13649214D01*
X7022643Y-13363500D02*
X7051214Y-13349214D01*
X7108357Y-13349214D01*
X7136928Y-13363500D01*
X7151214Y-13377786D01*
X7165500Y-13406357D01*
X7165500Y-13492071D01*
X7151214Y-13520643D01*
X7136928Y-13534929D01*
X7108357Y-13549214D01*
X7051214Y-13549214D01*
X7022643Y-13534929D01*
X7294071Y-13520643D02*
X7308357Y-13534929D01*
X7294071Y-13549214D01*
X7279786Y-13534929D01*
X7294071Y-13520643D01*
X7294071Y-13549214D01*
X7294071Y-13363500D02*
X7308357Y-13377786D01*
X7294071Y-13392071D01*
X7279786Y-13377786D01*
X7294071Y-13363500D01*
X7294071Y-13392071D01*
M02*
