G04 #@! TF.GenerationSoftware,KiCad,Pcbnew,(5.1.2)-1*
G04 #@! TF.CreationDate,2019-05-07T06:50:58+02:00*
G04 #@! TF.ProjectId,SBD electrode by JLCPCB,53424420-656c-4656-9374-726f64652062,rev?*
G04 #@! TF.SameCoordinates,Original*
G04 #@! TF.FileFunction,Legend,Top*
G04 #@! TF.FilePolarity,Positive*
%FSLAX46Y46*%
G04 Gerber Fmt 4.6, Leading zero omitted, Abs format (unit mm)*
G04 Created by KiCad (PCBNEW (5.1.2)-1) date 2019-05-07 06:50:58*
%MOMM*%
%LPD*%
G04 APERTURE LIST*
%ADD10C,0.150000*%
%ADD11C,0.120000*%
G04 APERTURE END LIST*
D10*
X99142857Y-111481904D02*
X99142857Y-106481904D01*
X101047619Y-106481904D01*
X101523809Y-106720000D01*
X101761904Y-106958095D01*
X102000000Y-107434285D01*
X102000000Y-108148571D01*
X101761904Y-108624761D01*
X101523809Y-108862857D01*
X101047619Y-109100952D01*
X99142857Y-109100952D01*
X104857142Y-111481904D02*
X104380952Y-111243809D01*
X104142857Y-110767619D01*
X104142857Y-106481904D01*
X108904761Y-111481904D02*
X108904761Y-108862857D01*
X108666666Y-108386666D01*
X108190476Y-108148571D01*
X107238095Y-108148571D01*
X106761904Y-108386666D01*
X108904761Y-111243809D02*
X108428571Y-111481904D01*
X107238095Y-111481904D01*
X106761904Y-111243809D01*
X106523809Y-110767619D01*
X106523809Y-110291428D01*
X106761904Y-109815238D01*
X107238095Y-109577142D01*
X108428571Y-109577142D01*
X108904761Y-109339047D01*
X111047619Y-111243809D02*
X111523809Y-111481904D01*
X112476190Y-111481904D01*
X112952380Y-111243809D01*
X113190476Y-110767619D01*
X113190476Y-110529523D01*
X112952380Y-110053333D01*
X112476190Y-109815238D01*
X111761904Y-109815238D01*
X111285714Y-109577142D01*
X111047619Y-109100952D01*
X111047619Y-108862857D01*
X111285714Y-108386666D01*
X111761904Y-108148571D01*
X112476190Y-108148571D01*
X112952380Y-108386666D01*
X115333333Y-111481904D02*
X115333333Y-108148571D01*
X115333333Y-108624761D02*
X115571428Y-108386666D01*
X116047619Y-108148571D01*
X116761904Y-108148571D01*
X117238095Y-108386666D01*
X117476190Y-108862857D01*
X117476190Y-111481904D01*
X117476190Y-108862857D02*
X117714285Y-108386666D01*
X118190476Y-108148571D01*
X118904761Y-108148571D01*
X119380952Y-108386666D01*
X119619047Y-108862857D01*
X119619047Y-111481904D01*
X124142857Y-111481904D02*
X124142857Y-108862857D01*
X123904761Y-108386666D01*
X123428571Y-108148571D01*
X122476190Y-108148571D01*
X122000000Y-108386666D01*
X124142857Y-111243809D02*
X123666666Y-111481904D01*
X122476190Y-111481904D01*
X122000000Y-111243809D01*
X121761904Y-110767619D01*
X121761904Y-110291428D01*
X122000000Y-109815238D01*
X122476190Y-109577142D01*
X123666666Y-109577142D01*
X124142857Y-109339047D01*
X126285714Y-111243809D02*
X127000000Y-111481904D01*
X128190476Y-111481904D01*
X128666666Y-111243809D01*
X128904761Y-111005714D01*
X129142857Y-110529523D01*
X129142857Y-110053333D01*
X128904761Y-109577142D01*
X128666666Y-109339047D01*
X128190476Y-109100952D01*
X127238095Y-108862857D01*
X126761904Y-108624761D01*
X126523809Y-108386666D01*
X126285714Y-107910476D01*
X126285714Y-107434285D01*
X126523809Y-106958095D01*
X126761904Y-106720000D01*
X127238095Y-106481904D01*
X128428571Y-106481904D01*
X129142857Y-106720000D01*
X132000000Y-111481904D02*
X131523809Y-111243809D01*
X131285714Y-111005714D01*
X131047619Y-110529523D01*
X131047619Y-109100952D01*
X131285714Y-108624761D01*
X131523809Y-108386666D01*
X132000000Y-108148571D01*
X132714285Y-108148571D01*
X133190476Y-108386666D01*
X133428571Y-108624761D01*
X133666666Y-109100952D01*
X133666666Y-110529523D01*
X133428571Y-111005714D01*
X133190476Y-111243809D01*
X132714285Y-111481904D01*
X132000000Y-111481904D01*
X136523809Y-111481904D02*
X136047619Y-111243809D01*
X135809523Y-110767619D01*
X135809523Y-106481904D01*
X140571428Y-108148571D02*
X140571428Y-111481904D01*
X138428571Y-108148571D02*
X138428571Y-110767619D01*
X138666666Y-111243809D01*
X139142857Y-111481904D01*
X139857142Y-111481904D01*
X140333333Y-111243809D01*
X140571428Y-111005714D01*
X142238095Y-108148571D02*
X144142857Y-108148571D01*
X142952380Y-106481904D02*
X142952380Y-110767619D01*
X143190476Y-111243809D01*
X143666666Y-111481904D01*
X144142857Y-111481904D01*
X145809523Y-111481904D02*
X145809523Y-108148571D01*
X145809523Y-106481904D02*
X145571428Y-106720000D01*
X145809523Y-106958095D01*
X146047619Y-106720000D01*
X145809523Y-106481904D01*
X145809523Y-106958095D01*
X148904761Y-111481904D02*
X148428571Y-111243809D01*
X148190476Y-111005714D01*
X147952380Y-110529523D01*
X147952380Y-109100952D01*
X148190476Y-108624761D01*
X148428571Y-108386666D01*
X148904761Y-108148571D01*
X149619047Y-108148571D01*
X150095238Y-108386666D01*
X150333333Y-108624761D01*
X150571428Y-109100952D01*
X150571428Y-110529523D01*
X150333333Y-111005714D01*
X150095238Y-111243809D01*
X149619047Y-111481904D01*
X148904761Y-111481904D01*
X152714285Y-108148571D02*
X152714285Y-111481904D01*
X152714285Y-108624761D02*
X152952380Y-108386666D01*
X153428571Y-108148571D01*
X154142857Y-108148571D01*
X154619047Y-108386666D01*
X154857142Y-108862857D01*
X154857142Y-111481904D01*
X87317619Y-116404761D02*
X88460476Y-116404761D01*
X87889047Y-118404761D02*
X87889047Y-116404761D01*
X89127142Y-118404761D02*
X89127142Y-116404761D01*
X89984285Y-118404761D02*
X89984285Y-117357142D01*
X89889047Y-117166666D01*
X89698571Y-117071428D01*
X89412857Y-117071428D01*
X89222380Y-117166666D01*
X89127142Y-117261904D01*
X90936666Y-118404761D02*
X90936666Y-117071428D01*
X90936666Y-116404761D02*
X90841428Y-116500000D01*
X90936666Y-116595238D01*
X91031904Y-116500000D01*
X90936666Y-116404761D01*
X90936666Y-116595238D01*
X91793809Y-118309523D02*
X91984285Y-118404761D01*
X92365238Y-118404761D01*
X92555714Y-118309523D01*
X92650952Y-118119047D01*
X92650952Y-118023809D01*
X92555714Y-117833333D01*
X92365238Y-117738095D01*
X92079523Y-117738095D01*
X91889047Y-117642857D01*
X91793809Y-117452380D01*
X91793809Y-117357142D01*
X91889047Y-117166666D01*
X92079523Y-117071428D01*
X92365238Y-117071428D01*
X92555714Y-117166666D01*
X95793809Y-118309523D02*
X95603333Y-118404761D01*
X95222380Y-118404761D01*
X95031904Y-118309523D01*
X94936666Y-118119047D01*
X94936666Y-117357142D01*
X95031904Y-117166666D01*
X95222380Y-117071428D01*
X95603333Y-117071428D01*
X95793809Y-117166666D01*
X95889047Y-117357142D01*
X95889047Y-117547619D01*
X94936666Y-117738095D01*
X97603333Y-117071428D02*
X97603333Y-119071428D01*
X97603333Y-118309523D02*
X97412857Y-118404761D01*
X97031904Y-118404761D01*
X96841428Y-118309523D01*
X96746190Y-118214285D01*
X96650952Y-118023809D01*
X96650952Y-117452380D01*
X96746190Y-117261904D01*
X96841428Y-117166666D01*
X97031904Y-117071428D01*
X97412857Y-117071428D01*
X97603333Y-117166666D01*
X99412857Y-117071428D02*
X99412857Y-118404761D01*
X98555714Y-117071428D02*
X98555714Y-118119047D01*
X98650952Y-118309523D01*
X98841428Y-118404761D01*
X99127142Y-118404761D01*
X99317619Y-118309523D01*
X99412857Y-118214285D01*
X100365238Y-118404761D02*
X100365238Y-117071428D01*
X100365238Y-116404761D02*
X100270000Y-116500000D01*
X100365238Y-116595238D01*
X100460476Y-116500000D01*
X100365238Y-116404761D01*
X100365238Y-116595238D01*
X101317619Y-117071428D02*
X101317619Y-119071428D01*
X101317619Y-117166666D02*
X101508095Y-117071428D01*
X101889047Y-117071428D01*
X102079523Y-117166666D01*
X102174761Y-117261904D01*
X102270000Y-117452380D01*
X102270000Y-118023809D01*
X102174761Y-118214285D01*
X102079523Y-118309523D01*
X101889047Y-118404761D01*
X101508095Y-118404761D01*
X101317619Y-118309523D01*
X103127142Y-118404761D02*
X103127142Y-117071428D01*
X103127142Y-117261904D02*
X103222380Y-117166666D01*
X103412857Y-117071428D01*
X103698571Y-117071428D01*
X103889047Y-117166666D01*
X103984285Y-117357142D01*
X103984285Y-118404761D01*
X103984285Y-117357142D02*
X104079523Y-117166666D01*
X104270000Y-117071428D01*
X104555714Y-117071428D01*
X104746190Y-117166666D01*
X104841428Y-117357142D01*
X104841428Y-118404761D01*
X106555714Y-118309523D02*
X106365238Y-118404761D01*
X105984285Y-118404761D01*
X105793809Y-118309523D01*
X105698571Y-118119047D01*
X105698571Y-117357142D01*
X105793809Y-117166666D01*
X105984285Y-117071428D01*
X106365238Y-117071428D01*
X106555714Y-117166666D01*
X106650952Y-117357142D01*
X106650952Y-117547619D01*
X105698571Y-117738095D01*
X107508095Y-117071428D02*
X107508095Y-118404761D01*
X107508095Y-117261904D02*
X107603333Y-117166666D01*
X107793809Y-117071428D01*
X108079523Y-117071428D01*
X108270000Y-117166666D01*
X108365238Y-117357142D01*
X108365238Y-118404761D01*
X109031904Y-117071428D02*
X109793809Y-117071428D01*
X109317619Y-116404761D02*
X109317619Y-118119047D01*
X109412857Y-118309523D01*
X109603333Y-118404761D01*
X109793809Y-118404761D01*
X111984285Y-118404761D02*
X111984285Y-117071428D01*
X111984285Y-116404761D02*
X111889047Y-116500000D01*
X111984285Y-116595238D01*
X112079523Y-116500000D01*
X111984285Y-116404761D01*
X111984285Y-116595238D01*
X112841428Y-118309523D02*
X113031904Y-118404761D01*
X113412857Y-118404761D01*
X113603333Y-118309523D01*
X113698571Y-118119047D01*
X113698571Y-118023809D01*
X113603333Y-117833333D01*
X113412857Y-117738095D01*
X113127142Y-117738095D01*
X112936666Y-117642857D01*
X112841428Y-117452380D01*
X112841428Y-117357142D01*
X112936666Y-117166666D01*
X113127142Y-117071428D01*
X113412857Y-117071428D01*
X113603333Y-117166666D01*
X116079523Y-117071428D02*
X116079523Y-119071428D01*
X116079523Y-117166666D02*
X116269999Y-117071428D01*
X116650952Y-117071428D01*
X116841428Y-117166666D01*
X116936666Y-117261904D01*
X117031904Y-117452380D01*
X117031904Y-118023809D01*
X116936666Y-118214285D01*
X116841428Y-118309523D01*
X116650952Y-118404761D01*
X116269999Y-118404761D01*
X116079523Y-118309523D01*
X118746190Y-118404761D02*
X118746190Y-117357142D01*
X118650952Y-117166666D01*
X118460476Y-117071428D01*
X118079523Y-117071428D01*
X117889047Y-117166666D01*
X118746190Y-118309523D02*
X118555714Y-118404761D01*
X118079523Y-118404761D01*
X117889047Y-118309523D01*
X117793809Y-118119047D01*
X117793809Y-117928571D01*
X117889047Y-117738095D01*
X118079523Y-117642857D01*
X118555714Y-117642857D01*
X118746190Y-117547619D01*
X119698571Y-118404761D02*
X119698571Y-117071428D01*
X119698571Y-117452380D02*
X119793809Y-117261904D01*
X119889047Y-117166666D01*
X120079523Y-117071428D01*
X120269999Y-117071428D01*
X120650952Y-117071428D02*
X121412857Y-117071428D01*
X120936666Y-116404761D02*
X120936666Y-118119047D01*
X121031904Y-118309523D01*
X121222380Y-118404761D01*
X121412857Y-118404761D01*
X123889047Y-118404761D02*
X123698571Y-118309523D01*
X123603333Y-118214285D01*
X123508095Y-118023809D01*
X123508095Y-117452380D01*
X123603333Y-117261904D01*
X123698571Y-117166666D01*
X123889047Y-117071428D01*
X124174761Y-117071428D01*
X124365238Y-117166666D01*
X124460476Y-117261904D01*
X124555714Y-117452380D01*
X124555714Y-118023809D01*
X124460476Y-118214285D01*
X124365238Y-118309523D01*
X124174761Y-118404761D01*
X123889047Y-118404761D01*
X125127142Y-117071428D02*
X125889047Y-117071428D01*
X125412857Y-118404761D02*
X125412857Y-116690476D01*
X125508095Y-116500000D01*
X125698571Y-116404761D01*
X125889047Y-116404761D01*
X128936666Y-118404761D02*
X128936666Y-117357142D01*
X128841428Y-117166666D01*
X128650952Y-117071428D01*
X128269999Y-117071428D01*
X128079523Y-117166666D01*
X128936666Y-118309523D02*
X128746190Y-118404761D01*
X128269999Y-118404761D01*
X128079523Y-118309523D01*
X127984285Y-118119047D01*
X127984285Y-117928571D01*
X128079523Y-117738095D01*
X128269999Y-117642857D01*
X128746190Y-117642857D01*
X128936666Y-117547619D01*
X131412857Y-117071428D02*
X131412857Y-119071428D01*
X131412857Y-117166666D02*
X131603333Y-117071428D01*
X131984285Y-117071428D01*
X132174761Y-117166666D01*
X132269999Y-117261904D01*
X132365238Y-117452380D01*
X132365238Y-118023809D01*
X132269999Y-118214285D01*
X132174761Y-118309523D01*
X131984285Y-118404761D01*
X131603333Y-118404761D01*
X131412857Y-118309523D01*
X133222380Y-118404761D02*
X133222380Y-117071428D01*
X133222380Y-117452380D02*
X133317619Y-117261904D01*
X133412857Y-117166666D01*
X133603333Y-117071428D01*
X133793809Y-117071428D01*
X134746190Y-118404761D02*
X134555714Y-118309523D01*
X134460476Y-118214285D01*
X134365238Y-118023809D01*
X134365238Y-117452380D01*
X134460476Y-117261904D01*
X134555714Y-117166666D01*
X134746190Y-117071428D01*
X135031904Y-117071428D01*
X135222380Y-117166666D01*
X135317619Y-117261904D01*
X135412857Y-117452380D01*
X135412857Y-118023809D01*
X135317619Y-118214285D01*
X135222380Y-118309523D01*
X135031904Y-118404761D01*
X134746190Y-118404761D01*
X136269999Y-117071428D02*
X136269999Y-118785714D01*
X136174761Y-118976190D01*
X135984285Y-119071428D01*
X135889047Y-119071428D01*
X136269999Y-116404761D02*
X136174761Y-116500000D01*
X136269999Y-116595238D01*
X136365238Y-116500000D01*
X136269999Y-116404761D01*
X136269999Y-116595238D01*
X137984285Y-118309523D02*
X137793809Y-118404761D01*
X137412857Y-118404761D01*
X137222380Y-118309523D01*
X137127142Y-118119047D01*
X137127142Y-117357142D01*
X137222380Y-117166666D01*
X137412857Y-117071428D01*
X137793809Y-117071428D01*
X137984285Y-117166666D01*
X138079523Y-117357142D01*
X138079523Y-117547619D01*
X137127142Y-117738095D01*
X139793809Y-118309523D02*
X139603333Y-118404761D01*
X139222380Y-118404761D01*
X139031904Y-118309523D01*
X138936666Y-118214285D01*
X138841428Y-118023809D01*
X138841428Y-117452380D01*
X138936666Y-117261904D01*
X139031904Y-117166666D01*
X139222380Y-117071428D01*
X139603333Y-117071428D01*
X139793809Y-117166666D01*
X140365238Y-117071428D02*
X141127142Y-117071428D01*
X140650952Y-116404761D02*
X140650952Y-118119047D01*
X140746190Y-118309523D01*
X140936666Y-118404761D01*
X141127142Y-118404761D01*
X143031904Y-117071428D02*
X143793809Y-117071428D01*
X143317619Y-116404761D02*
X143317619Y-118119047D01*
X143412857Y-118309523D01*
X143603333Y-118404761D01*
X143793809Y-118404761D01*
X144460476Y-118404761D02*
X144460476Y-116404761D01*
X145317619Y-118404761D02*
X145317619Y-117357142D01*
X145222380Y-117166666D01*
X145031904Y-117071428D01*
X144746190Y-117071428D01*
X144555714Y-117166666D01*
X144460476Y-117261904D01*
X147127142Y-118404761D02*
X147127142Y-117357142D01*
X147031904Y-117166666D01*
X146841428Y-117071428D01*
X146460476Y-117071428D01*
X146269999Y-117166666D01*
X147127142Y-118309523D02*
X146936666Y-118404761D01*
X146460476Y-118404761D01*
X146269999Y-118309523D01*
X146174761Y-118119047D01*
X146174761Y-117928571D01*
X146269999Y-117738095D01*
X146460476Y-117642857D01*
X146936666Y-117642857D01*
X147127142Y-117547619D01*
X147793809Y-117071428D02*
X148555714Y-117071428D01*
X148079523Y-116404761D02*
X148079523Y-118119047D01*
X148174761Y-118309523D01*
X148365238Y-118404761D01*
X148555714Y-118404761D01*
X150746190Y-118404761D02*
X150746190Y-116404761D01*
X151603333Y-118404761D02*
X151603333Y-117357142D01*
X151508095Y-117166666D01*
X151317619Y-117071428D01*
X151031904Y-117071428D01*
X150841428Y-117166666D01*
X150746190Y-117261904D01*
X153412857Y-118404761D02*
X153412857Y-117357142D01*
X153317619Y-117166666D01*
X153127142Y-117071428D01*
X152746190Y-117071428D01*
X152555714Y-117166666D01*
X153412857Y-118309523D02*
X153222380Y-118404761D01*
X152746190Y-118404761D01*
X152555714Y-118309523D01*
X152460476Y-118119047D01*
X152460476Y-117928571D01*
X152555714Y-117738095D01*
X152746190Y-117642857D01*
X153222380Y-117642857D01*
X153412857Y-117547619D01*
X154269999Y-118309523D02*
X154460476Y-118404761D01*
X154841428Y-118404761D01*
X155031904Y-118309523D01*
X155127142Y-118119047D01*
X155127142Y-118023809D01*
X155031904Y-117833333D01*
X154841428Y-117738095D01*
X154555714Y-117738095D01*
X154365238Y-117642857D01*
X154269999Y-117452380D01*
X154269999Y-117357142D01*
X154365238Y-117166666D01*
X154555714Y-117071428D01*
X154841428Y-117071428D01*
X155031904Y-117166666D01*
X157508095Y-118404761D02*
X157508095Y-117071428D01*
X157508095Y-117452380D02*
X157603333Y-117261904D01*
X157698571Y-117166666D01*
X157889047Y-117071428D01*
X158079523Y-117071428D01*
X159508095Y-118309523D02*
X159317619Y-118404761D01*
X158936666Y-118404761D01*
X158746190Y-118309523D01*
X158650952Y-118119047D01*
X158650952Y-117357142D01*
X158746190Y-117166666D01*
X158936666Y-117071428D01*
X159317619Y-117071428D01*
X159508095Y-117166666D01*
X159603333Y-117357142D01*
X159603333Y-117547619D01*
X158650952Y-117738095D01*
X161317619Y-118309523D02*
X161127142Y-118404761D01*
X160746190Y-118404761D01*
X160555714Y-118309523D01*
X160460476Y-118214285D01*
X160365238Y-118023809D01*
X160365238Y-117452380D01*
X160460476Y-117261904D01*
X160555714Y-117166666D01*
X160746190Y-117071428D01*
X161127142Y-117071428D01*
X161317619Y-117166666D01*
X162936666Y-118309523D02*
X162746190Y-118404761D01*
X162365238Y-118404761D01*
X162174761Y-118309523D01*
X162079523Y-118119047D01*
X162079523Y-117357142D01*
X162174761Y-117166666D01*
X162365238Y-117071428D01*
X162746190Y-117071428D01*
X162936666Y-117166666D01*
X163031904Y-117357142D01*
X163031904Y-117547619D01*
X162079523Y-117738095D01*
X163889047Y-118404761D02*
X163889047Y-117071428D01*
X163889047Y-116404761D02*
X163793809Y-116500000D01*
X163889047Y-116595238D01*
X163984285Y-116500000D01*
X163889047Y-116404761D01*
X163889047Y-116595238D01*
X164650952Y-117071428D02*
X165127142Y-118404761D01*
X165603333Y-117071428D01*
X167127142Y-118309523D02*
X166936666Y-118404761D01*
X166555714Y-118404761D01*
X166365238Y-118309523D01*
X166269999Y-118119047D01*
X166269999Y-117357142D01*
X166365238Y-117166666D01*
X166555714Y-117071428D01*
X166936666Y-117071428D01*
X167127142Y-117166666D01*
X167222380Y-117357142D01*
X167222380Y-117547619D01*
X166269999Y-117738095D01*
X168936666Y-118404761D02*
X168936666Y-116404761D01*
X168936666Y-118309523D02*
X168746190Y-118404761D01*
X168365238Y-118404761D01*
X168174761Y-118309523D01*
X168079523Y-118214285D01*
X167984285Y-118023809D01*
X167984285Y-117452380D01*
X168079523Y-117261904D01*
X168174761Y-117166666D01*
X168365238Y-117071428D01*
X168746190Y-117071428D01*
X168936666Y-117166666D01*
X90650952Y-120221428D02*
X91412857Y-120221428D01*
X90936666Y-121554761D02*
X90936666Y-119840476D01*
X91031904Y-119650000D01*
X91222380Y-119554761D01*
X91412857Y-119554761D01*
X92936666Y-120221428D02*
X92936666Y-121554761D01*
X92079523Y-120221428D02*
X92079523Y-121269047D01*
X92174761Y-121459523D01*
X92365238Y-121554761D01*
X92650952Y-121554761D01*
X92841428Y-121459523D01*
X92936666Y-121364285D01*
X93889047Y-120221428D02*
X93889047Y-121554761D01*
X93889047Y-120411904D02*
X93984285Y-120316666D01*
X94174761Y-120221428D01*
X94460476Y-120221428D01*
X94650952Y-120316666D01*
X94746190Y-120507142D01*
X94746190Y-121554761D01*
X96555714Y-121554761D02*
X96555714Y-119554761D01*
X96555714Y-121459523D02*
X96365238Y-121554761D01*
X95984285Y-121554761D01*
X95793809Y-121459523D01*
X95698571Y-121364285D01*
X95603333Y-121173809D01*
X95603333Y-120602380D01*
X95698571Y-120411904D01*
X95793809Y-120316666D01*
X95984285Y-120221428D01*
X96365238Y-120221428D01*
X96555714Y-120316666D01*
X97508095Y-121554761D02*
X97508095Y-120221428D01*
X97508095Y-119554761D02*
X97412857Y-119650000D01*
X97508095Y-119745238D01*
X97603333Y-119650000D01*
X97508095Y-119554761D01*
X97508095Y-119745238D01*
X98460476Y-120221428D02*
X98460476Y-121554761D01*
X98460476Y-120411904D02*
X98555714Y-120316666D01*
X98746190Y-120221428D01*
X99031904Y-120221428D01*
X99222380Y-120316666D01*
X99317619Y-120507142D01*
X99317619Y-121554761D01*
X101127142Y-120221428D02*
X101127142Y-121840476D01*
X101031904Y-122030952D01*
X100936666Y-122126190D01*
X100746190Y-122221428D01*
X100460476Y-122221428D01*
X100270000Y-122126190D01*
X101127142Y-121459523D02*
X100936666Y-121554761D01*
X100555714Y-121554761D01*
X100365238Y-121459523D01*
X100270000Y-121364285D01*
X100174761Y-121173809D01*
X100174761Y-120602380D01*
X100270000Y-120411904D01*
X100365238Y-120316666D01*
X100555714Y-120221428D01*
X100936666Y-120221428D01*
X101127142Y-120316666D01*
X103317619Y-120221428D02*
X104079523Y-120221428D01*
X103603333Y-121554761D02*
X103603333Y-119840476D01*
X103698571Y-119650000D01*
X103889047Y-119554761D01*
X104079523Y-119554761D01*
X104746190Y-121554761D02*
X104746190Y-120221428D01*
X104746190Y-120602380D02*
X104841428Y-120411904D01*
X104936666Y-120316666D01*
X105127142Y-120221428D01*
X105317619Y-120221428D01*
X106270000Y-121554761D02*
X106079523Y-121459523D01*
X105984285Y-121364285D01*
X105889047Y-121173809D01*
X105889047Y-120602380D01*
X105984285Y-120411904D01*
X106079523Y-120316666D01*
X106270000Y-120221428D01*
X106555714Y-120221428D01*
X106746190Y-120316666D01*
X106841428Y-120411904D01*
X106936666Y-120602380D01*
X106936666Y-121173809D01*
X106841428Y-121364285D01*
X106746190Y-121459523D01*
X106555714Y-121554761D01*
X106270000Y-121554761D01*
X107793809Y-121554761D02*
X107793809Y-120221428D01*
X107793809Y-120411904D02*
X107889047Y-120316666D01*
X108079523Y-120221428D01*
X108365238Y-120221428D01*
X108555714Y-120316666D01*
X108650952Y-120507142D01*
X108650952Y-121554761D01*
X108650952Y-120507142D02*
X108746190Y-120316666D01*
X108936666Y-120221428D01*
X109222380Y-120221428D01*
X109412857Y-120316666D01*
X109508095Y-120507142D01*
X109508095Y-121554761D01*
X111698571Y-120221428D02*
X112460476Y-120221428D01*
X111984285Y-119554761D02*
X111984285Y-121269047D01*
X112079523Y-121459523D01*
X112270000Y-121554761D01*
X112460476Y-121554761D01*
X113127142Y-121554761D02*
X113127142Y-119554761D01*
X113984285Y-121554761D02*
X113984285Y-120507142D01*
X113889047Y-120316666D01*
X113698571Y-120221428D01*
X113412857Y-120221428D01*
X113222380Y-120316666D01*
X113127142Y-120411904D01*
X115698571Y-121459523D02*
X115508095Y-121554761D01*
X115127142Y-121554761D01*
X114936666Y-121459523D01*
X114841428Y-121269047D01*
X114841428Y-120507142D01*
X114936666Y-120316666D01*
X115127142Y-120221428D01*
X115508095Y-120221428D01*
X115698571Y-120316666D01*
X115793809Y-120507142D01*
X115793809Y-120697619D01*
X114841428Y-120888095D01*
X118174761Y-120507142D02*
X118841428Y-120507142D01*
X119127142Y-121554761D02*
X118174761Y-121554761D01*
X118174761Y-119554761D01*
X119127142Y-119554761D01*
X120841428Y-120221428D02*
X120841428Y-121554761D01*
X119984285Y-120221428D02*
X119984285Y-121269047D01*
X120079523Y-121459523D01*
X120270000Y-121554761D01*
X120555714Y-121554761D01*
X120746190Y-121459523D01*
X120841428Y-121364285D01*
X121793809Y-121554761D02*
X121793809Y-120221428D01*
X121793809Y-120602380D02*
X121889047Y-120411904D01*
X121984285Y-120316666D01*
X122174761Y-120221428D01*
X122365238Y-120221428D01*
X123317619Y-121554761D02*
X123127142Y-121459523D01*
X123031904Y-121364285D01*
X122936666Y-121173809D01*
X122936666Y-120602380D01*
X123031904Y-120411904D01*
X123127142Y-120316666D01*
X123317619Y-120221428D01*
X123603333Y-120221428D01*
X123793809Y-120316666D01*
X123889047Y-120411904D01*
X123984285Y-120602380D01*
X123984285Y-121173809D01*
X123889047Y-121364285D01*
X123793809Y-121459523D01*
X123603333Y-121554761D01*
X123317619Y-121554761D01*
X124841428Y-120221428D02*
X124841428Y-122221428D01*
X124841428Y-120316666D02*
X125031904Y-120221428D01*
X125412857Y-120221428D01*
X125603333Y-120316666D01*
X125698571Y-120411904D01*
X125793809Y-120602380D01*
X125793809Y-121173809D01*
X125698571Y-121364285D01*
X125603333Y-121459523D01*
X125412857Y-121554761D01*
X125031904Y-121554761D01*
X124841428Y-121459523D01*
X127412857Y-121459523D02*
X127222380Y-121554761D01*
X126841428Y-121554761D01*
X126650952Y-121459523D01*
X126555714Y-121269047D01*
X126555714Y-120507142D01*
X126650952Y-120316666D01*
X126841428Y-120221428D01*
X127222380Y-120221428D01*
X127412857Y-120316666D01*
X127508095Y-120507142D01*
X127508095Y-120697619D01*
X126555714Y-120888095D01*
X129222380Y-121554761D02*
X129222380Y-120507142D01*
X129127142Y-120316666D01*
X128936666Y-120221428D01*
X128555714Y-120221428D01*
X128365238Y-120316666D01*
X129222380Y-121459523D02*
X129031904Y-121554761D01*
X128555714Y-121554761D01*
X128365238Y-121459523D01*
X128270000Y-121269047D01*
X128270000Y-121078571D01*
X128365238Y-120888095D01*
X128555714Y-120792857D01*
X129031904Y-120792857D01*
X129222380Y-120697619D01*
X130174761Y-120221428D02*
X130174761Y-121554761D01*
X130174761Y-120411904D02*
X130270000Y-120316666D01*
X130460476Y-120221428D01*
X130746190Y-120221428D01*
X130936666Y-120316666D01*
X131031904Y-120507142D01*
X131031904Y-121554761D01*
X133508095Y-119554761D02*
X133508095Y-121173809D01*
X133603333Y-121364285D01*
X133698571Y-121459523D01*
X133889047Y-121554761D01*
X134270000Y-121554761D01*
X134460476Y-121459523D01*
X134555714Y-121364285D01*
X134650952Y-121173809D01*
X134650952Y-119554761D01*
X135603333Y-120221428D02*
X135603333Y-121554761D01*
X135603333Y-120411904D02*
X135698571Y-120316666D01*
X135889047Y-120221428D01*
X136174761Y-120221428D01*
X136365238Y-120316666D01*
X136460476Y-120507142D01*
X136460476Y-121554761D01*
X137412857Y-121554761D02*
X137412857Y-120221428D01*
X137412857Y-119554761D02*
X137317619Y-119650000D01*
X137412857Y-119745238D01*
X137508095Y-119650000D01*
X137412857Y-119554761D01*
X137412857Y-119745238D01*
X138650952Y-121554761D02*
X138460476Y-121459523D01*
X138365238Y-121364285D01*
X138270000Y-121173809D01*
X138270000Y-120602380D01*
X138365238Y-120411904D01*
X138460476Y-120316666D01*
X138650952Y-120221428D01*
X138936666Y-120221428D01*
X139127142Y-120316666D01*
X139222380Y-120411904D01*
X139317619Y-120602380D01*
X139317619Y-121173809D01*
X139222380Y-121364285D01*
X139127142Y-121459523D01*
X138936666Y-121554761D01*
X138650952Y-121554761D01*
X140174761Y-120221428D02*
X140174761Y-121554761D01*
X140174761Y-120411904D02*
X140270000Y-120316666D01*
X140460476Y-120221428D01*
X140746190Y-120221428D01*
X140936666Y-120316666D01*
X141031904Y-120507142D01*
X141031904Y-121554761D01*
X142079523Y-119554761D02*
X141889047Y-119935714D01*
X142841428Y-121459523D02*
X143031904Y-121554761D01*
X143412857Y-121554761D01*
X143603333Y-121459523D01*
X143698571Y-121269047D01*
X143698571Y-121173809D01*
X143603333Y-120983333D01*
X143412857Y-120888095D01*
X143127142Y-120888095D01*
X142936666Y-120792857D01*
X142841428Y-120602380D01*
X142841428Y-120507142D01*
X142936666Y-120316666D01*
X143127142Y-120221428D01*
X143412857Y-120221428D01*
X143603333Y-120316666D01*
X146079523Y-121554761D02*
X146079523Y-119554761D01*
X146079523Y-120507142D02*
X147222380Y-120507142D01*
X147222380Y-121554761D02*
X147222380Y-119554761D01*
X148460476Y-121554761D02*
X148270000Y-121459523D01*
X148174761Y-121364285D01*
X148079523Y-121173809D01*
X148079523Y-120602380D01*
X148174761Y-120411904D01*
X148270000Y-120316666D01*
X148460476Y-120221428D01*
X148746190Y-120221428D01*
X148936666Y-120316666D01*
X149031904Y-120411904D01*
X149127142Y-120602380D01*
X149127142Y-121173809D01*
X149031904Y-121364285D01*
X148936666Y-121459523D01*
X148746190Y-121554761D01*
X148460476Y-121554761D01*
X149984285Y-121554761D02*
X149984285Y-120221428D01*
X149984285Y-120602380D02*
X150079523Y-120411904D01*
X150174761Y-120316666D01*
X150365238Y-120221428D01*
X150555714Y-120221428D01*
X151222380Y-121554761D02*
X151222380Y-120221428D01*
X151222380Y-119554761D02*
X151127142Y-119650000D01*
X151222380Y-119745238D01*
X151317619Y-119650000D01*
X151222380Y-119554761D01*
X151222380Y-119745238D01*
X151984285Y-120221428D02*
X153031904Y-120221428D01*
X151984285Y-121554761D01*
X153031904Y-121554761D01*
X154079523Y-121554761D02*
X153889047Y-121459523D01*
X153793809Y-121364285D01*
X153698571Y-121173809D01*
X153698571Y-120602380D01*
X153793809Y-120411904D01*
X153889047Y-120316666D01*
X154079523Y-120221428D01*
X154365238Y-120221428D01*
X154555714Y-120316666D01*
X154650952Y-120411904D01*
X154746190Y-120602380D01*
X154746190Y-121173809D01*
X154650952Y-121364285D01*
X154555714Y-121459523D01*
X154365238Y-121554761D01*
X154079523Y-121554761D01*
X155603333Y-120221428D02*
X155603333Y-121554761D01*
X155603333Y-120411904D02*
X155698571Y-120316666D01*
X155889047Y-120221428D01*
X156174761Y-120221428D01*
X156365238Y-120316666D01*
X156460476Y-120507142D01*
X156460476Y-121554761D01*
X158841428Y-119745238D02*
X158936666Y-119650000D01*
X159127142Y-119554761D01*
X159603333Y-119554761D01*
X159793809Y-119650000D01*
X159889047Y-119745238D01*
X159984285Y-119935714D01*
X159984285Y-120126190D01*
X159889047Y-120411904D01*
X158746190Y-121554761D01*
X159984285Y-121554761D01*
X161222380Y-119554761D02*
X161412857Y-119554761D01*
X161603333Y-119650000D01*
X161698571Y-119745238D01*
X161793809Y-119935714D01*
X161889047Y-120316666D01*
X161889047Y-120792857D01*
X161793809Y-121173809D01*
X161698571Y-121364285D01*
X161603333Y-121459523D01*
X161412857Y-121554761D01*
X161222380Y-121554761D01*
X161031904Y-121459523D01*
X160936666Y-121364285D01*
X160841428Y-121173809D01*
X160746190Y-120792857D01*
X160746190Y-120316666D01*
X160841428Y-119935714D01*
X160936666Y-119745238D01*
X161031904Y-119650000D01*
X161222380Y-119554761D01*
X162650952Y-119745238D02*
X162746190Y-119650000D01*
X162936666Y-119554761D01*
X163412857Y-119554761D01*
X163603333Y-119650000D01*
X163698571Y-119745238D01*
X163793809Y-119935714D01*
X163793809Y-120126190D01*
X163698571Y-120411904D01*
X162555714Y-121554761D01*
X163793809Y-121554761D01*
X165031904Y-119554761D02*
X165222380Y-119554761D01*
X165412857Y-119650000D01*
X165508095Y-119745238D01*
X165603333Y-119935714D01*
X165698571Y-120316666D01*
X165698571Y-120792857D01*
X165603333Y-121173809D01*
X165508095Y-121364285D01*
X165412857Y-121459523D01*
X165222380Y-121554761D01*
X165031904Y-121554761D01*
X164841428Y-121459523D01*
X164746190Y-121364285D01*
X164650952Y-121173809D01*
X164555714Y-120792857D01*
X164555714Y-120316666D01*
X164650952Y-119935714D01*
X164746190Y-119745238D01*
X164841428Y-119650000D01*
X165031904Y-119554761D01*
X74365238Y-124704761D02*
X74365238Y-123371428D01*
X74365238Y-123752380D02*
X74460476Y-123561904D01*
X74555714Y-123466666D01*
X74746190Y-123371428D01*
X74936666Y-123371428D01*
X76365238Y-124609523D02*
X76174761Y-124704761D01*
X75793809Y-124704761D01*
X75603333Y-124609523D01*
X75508095Y-124419047D01*
X75508095Y-123657142D01*
X75603333Y-123466666D01*
X75793809Y-123371428D01*
X76174761Y-123371428D01*
X76365238Y-123466666D01*
X76460476Y-123657142D01*
X76460476Y-123847619D01*
X75508095Y-124038095D01*
X77222380Y-124609523D02*
X77412857Y-124704761D01*
X77793809Y-124704761D01*
X77984285Y-124609523D01*
X78079523Y-124419047D01*
X78079523Y-124323809D01*
X77984285Y-124133333D01*
X77793809Y-124038095D01*
X77508095Y-124038095D01*
X77317619Y-123942857D01*
X77222380Y-123752380D01*
X77222380Y-123657142D01*
X77317619Y-123466666D01*
X77508095Y-123371428D01*
X77793809Y-123371428D01*
X77984285Y-123466666D01*
X79698571Y-124609523D02*
X79508095Y-124704761D01*
X79127142Y-124704761D01*
X78936666Y-124609523D01*
X78841428Y-124419047D01*
X78841428Y-123657142D01*
X78936666Y-123466666D01*
X79127142Y-123371428D01*
X79508095Y-123371428D01*
X79698571Y-123466666D01*
X79793809Y-123657142D01*
X79793809Y-123847619D01*
X78841428Y-124038095D01*
X81508095Y-124704761D02*
X81508095Y-123657142D01*
X81412857Y-123466666D01*
X81222380Y-123371428D01*
X80841428Y-123371428D01*
X80650952Y-123466666D01*
X81508095Y-124609523D02*
X81317619Y-124704761D01*
X80841428Y-124704761D01*
X80650952Y-124609523D01*
X80555714Y-124419047D01*
X80555714Y-124228571D01*
X80650952Y-124038095D01*
X80841428Y-123942857D01*
X81317619Y-123942857D01*
X81508095Y-123847619D01*
X82460476Y-124704761D02*
X82460476Y-123371428D01*
X82460476Y-123752380D02*
X82555714Y-123561904D01*
X82650952Y-123466666D01*
X82841428Y-123371428D01*
X83031904Y-123371428D01*
X84555714Y-124609523D02*
X84365238Y-124704761D01*
X83984285Y-124704761D01*
X83793809Y-124609523D01*
X83698571Y-124514285D01*
X83603333Y-124323809D01*
X83603333Y-123752380D01*
X83698571Y-123561904D01*
X83793809Y-123466666D01*
X83984285Y-123371428D01*
X84365238Y-123371428D01*
X84555714Y-123466666D01*
X85412857Y-124704761D02*
X85412857Y-122704761D01*
X86270000Y-124704761D02*
X86270000Y-123657142D01*
X86174761Y-123466666D01*
X85984285Y-123371428D01*
X85698571Y-123371428D01*
X85508095Y-123466666D01*
X85412857Y-123561904D01*
X89603333Y-124704761D02*
X89603333Y-123657142D01*
X89508095Y-123466666D01*
X89317619Y-123371428D01*
X88936666Y-123371428D01*
X88746190Y-123466666D01*
X89603333Y-124609523D02*
X89412857Y-124704761D01*
X88936666Y-124704761D01*
X88746190Y-124609523D01*
X88650952Y-124419047D01*
X88650952Y-124228571D01*
X88746190Y-124038095D01*
X88936666Y-123942857D01*
X89412857Y-123942857D01*
X89603333Y-123847619D01*
X90555714Y-123371428D02*
X90555714Y-124704761D01*
X90555714Y-123561904D02*
X90650952Y-123466666D01*
X90841428Y-123371428D01*
X91127142Y-123371428D01*
X91317619Y-123466666D01*
X91412857Y-123657142D01*
X91412857Y-124704761D01*
X93222380Y-124704761D02*
X93222380Y-122704761D01*
X93222380Y-124609523D02*
X93031904Y-124704761D01*
X92650952Y-124704761D01*
X92460476Y-124609523D01*
X92365238Y-124514285D01*
X92270000Y-124323809D01*
X92270000Y-123752380D01*
X92365238Y-123561904D01*
X92460476Y-123466666D01*
X92650952Y-123371428D01*
X93031904Y-123371428D01*
X93222380Y-123466666D01*
X95698571Y-124704761D02*
X95698571Y-123371428D01*
X95698571Y-122704761D02*
X95603333Y-122800000D01*
X95698571Y-122895238D01*
X95793809Y-122800000D01*
X95698571Y-122704761D01*
X95698571Y-122895238D01*
X96650952Y-123371428D02*
X96650952Y-124704761D01*
X96650952Y-123561904D02*
X96746190Y-123466666D01*
X96936666Y-123371428D01*
X97222380Y-123371428D01*
X97412857Y-123466666D01*
X97508095Y-123657142D01*
X97508095Y-124704761D01*
X98460476Y-123371428D02*
X98460476Y-124704761D01*
X98460476Y-123561904D02*
X98555714Y-123466666D01*
X98746190Y-123371428D01*
X99031904Y-123371428D01*
X99222380Y-123466666D01*
X99317619Y-123657142D01*
X99317619Y-124704761D01*
X100555714Y-124704761D02*
X100365238Y-124609523D01*
X100270000Y-124514285D01*
X100174761Y-124323809D01*
X100174761Y-123752380D01*
X100270000Y-123561904D01*
X100365238Y-123466666D01*
X100555714Y-123371428D01*
X100841428Y-123371428D01*
X101031904Y-123466666D01*
X101127142Y-123561904D01*
X101222380Y-123752380D01*
X101222380Y-124323809D01*
X101127142Y-124514285D01*
X101031904Y-124609523D01*
X100841428Y-124704761D01*
X100555714Y-124704761D01*
X101889047Y-123371428D02*
X102365238Y-124704761D01*
X102841428Y-123371428D01*
X104460476Y-124704761D02*
X104460476Y-123657142D01*
X104365238Y-123466666D01*
X104174761Y-123371428D01*
X103793809Y-123371428D01*
X103603333Y-123466666D01*
X104460476Y-124609523D02*
X104270000Y-124704761D01*
X103793809Y-124704761D01*
X103603333Y-124609523D01*
X103508095Y-124419047D01*
X103508095Y-124228571D01*
X103603333Y-124038095D01*
X103793809Y-123942857D01*
X104270000Y-123942857D01*
X104460476Y-123847619D01*
X105127142Y-123371428D02*
X105889047Y-123371428D01*
X105412857Y-122704761D02*
X105412857Y-124419047D01*
X105508095Y-124609523D01*
X105698571Y-124704761D01*
X105889047Y-124704761D01*
X106555714Y-124704761D02*
X106555714Y-123371428D01*
X106555714Y-122704761D02*
X106460476Y-122800000D01*
X106555714Y-122895238D01*
X106650952Y-122800000D01*
X106555714Y-122704761D01*
X106555714Y-122895238D01*
X107793809Y-124704761D02*
X107603333Y-124609523D01*
X107508095Y-124514285D01*
X107412857Y-124323809D01*
X107412857Y-123752380D01*
X107508095Y-123561904D01*
X107603333Y-123466666D01*
X107793809Y-123371428D01*
X108079523Y-123371428D01*
X108270000Y-123466666D01*
X108365238Y-123561904D01*
X108460476Y-123752380D01*
X108460476Y-124323809D01*
X108365238Y-124514285D01*
X108270000Y-124609523D01*
X108079523Y-124704761D01*
X107793809Y-124704761D01*
X109317619Y-123371428D02*
X109317619Y-124704761D01*
X109317619Y-123561904D02*
X109412857Y-123466666D01*
X109603333Y-123371428D01*
X109889047Y-123371428D01*
X110079523Y-123466666D01*
X110174761Y-123657142D01*
X110174761Y-124704761D01*
X112650952Y-123371428D02*
X112650952Y-125371428D01*
X112650952Y-123466666D02*
X112841428Y-123371428D01*
X113222380Y-123371428D01*
X113412857Y-123466666D01*
X113508095Y-123561904D01*
X113603333Y-123752380D01*
X113603333Y-124323809D01*
X113508095Y-124514285D01*
X113412857Y-124609523D01*
X113222380Y-124704761D01*
X112841428Y-124704761D01*
X112650952Y-124609523D01*
X114460476Y-124704761D02*
X114460476Y-123371428D01*
X114460476Y-123752380D02*
X114555714Y-123561904D01*
X114650952Y-123466666D01*
X114841428Y-123371428D01*
X115031904Y-123371428D01*
X115984285Y-124704761D02*
X115793809Y-124609523D01*
X115698571Y-124514285D01*
X115603333Y-124323809D01*
X115603333Y-123752380D01*
X115698571Y-123561904D01*
X115793809Y-123466666D01*
X115984285Y-123371428D01*
X116270000Y-123371428D01*
X116460476Y-123466666D01*
X116555714Y-123561904D01*
X116650952Y-123752380D01*
X116650952Y-124323809D01*
X116555714Y-124514285D01*
X116460476Y-124609523D01*
X116270000Y-124704761D01*
X115984285Y-124704761D01*
X118365238Y-123371428D02*
X118365238Y-124990476D01*
X118270000Y-125180952D01*
X118174761Y-125276190D01*
X117984285Y-125371428D01*
X117698571Y-125371428D01*
X117508095Y-125276190D01*
X118365238Y-124609523D02*
X118174761Y-124704761D01*
X117793809Y-124704761D01*
X117603333Y-124609523D01*
X117508095Y-124514285D01*
X117412857Y-124323809D01*
X117412857Y-123752380D01*
X117508095Y-123561904D01*
X117603333Y-123466666D01*
X117793809Y-123371428D01*
X118174761Y-123371428D01*
X118365238Y-123466666D01*
X119317619Y-124704761D02*
X119317619Y-123371428D01*
X119317619Y-123752380D02*
X119412857Y-123561904D01*
X119508095Y-123466666D01*
X119698571Y-123371428D01*
X119889047Y-123371428D01*
X121412857Y-124704761D02*
X121412857Y-123657142D01*
X121317619Y-123466666D01*
X121127142Y-123371428D01*
X120746190Y-123371428D01*
X120555714Y-123466666D01*
X121412857Y-124609523D02*
X121222380Y-124704761D01*
X120746190Y-124704761D01*
X120555714Y-124609523D01*
X120460476Y-124419047D01*
X120460476Y-124228571D01*
X120555714Y-124038095D01*
X120746190Y-123942857D01*
X121222380Y-123942857D01*
X121412857Y-123847619D01*
X122365238Y-124704761D02*
X122365238Y-123371428D01*
X122365238Y-123561904D02*
X122460476Y-123466666D01*
X122650952Y-123371428D01*
X122936666Y-123371428D01*
X123127142Y-123466666D01*
X123222380Y-123657142D01*
X123222380Y-124704761D01*
X123222380Y-123657142D02*
X123317619Y-123466666D01*
X123508095Y-123371428D01*
X123793809Y-123371428D01*
X123984285Y-123466666D01*
X124079523Y-123657142D01*
X124079523Y-124704761D01*
X125031904Y-124704761D02*
X125031904Y-123371428D01*
X125031904Y-123561904D02*
X125127142Y-123466666D01*
X125317619Y-123371428D01*
X125603333Y-123371428D01*
X125793809Y-123466666D01*
X125889047Y-123657142D01*
X125889047Y-124704761D01*
X125889047Y-123657142D02*
X125984285Y-123466666D01*
X126174761Y-123371428D01*
X126460476Y-123371428D01*
X126650952Y-123466666D01*
X126746190Y-123657142D01*
X126746190Y-124704761D01*
X128460476Y-124609523D02*
X128270000Y-124704761D01*
X127889047Y-124704761D01*
X127698571Y-124609523D01*
X127603333Y-124419047D01*
X127603333Y-123657142D01*
X127698571Y-123466666D01*
X127889047Y-123371428D01*
X128270000Y-123371428D01*
X128460476Y-123466666D01*
X128555714Y-123657142D01*
X128555714Y-123847619D01*
X127603333Y-124038095D01*
X131793809Y-123371428D02*
X131793809Y-124704761D01*
X130936666Y-123371428D02*
X130936666Y-124419047D01*
X131031904Y-124609523D01*
X131222380Y-124704761D01*
X131508095Y-124704761D01*
X131698571Y-124609523D01*
X131793809Y-124514285D01*
X132746190Y-123371428D02*
X132746190Y-124704761D01*
X132746190Y-123561904D02*
X132841428Y-123466666D01*
X133031904Y-123371428D01*
X133317619Y-123371428D01*
X133508095Y-123466666D01*
X133603333Y-123657142D01*
X133603333Y-124704761D01*
X135412857Y-124704761D02*
X135412857Y-122704761D01*
X135412857Y-124609523D02*
X135222380Y-124704761D01*
X134841428Y-124704761D01*
X134650952Y-124609523D01*
X134555714Y-124514285D01*
X134460476Y-124323809D01*
X134460476Y-123752380D01*
X134555714Y-123561904D01*
X134650952Y-123466666D01*
X134841428Y-123371428D01*
X135222380Y-123371428D01*
X135412857Y-123466666D01*
X137127142Y-124609523D02*
X136936666Y-124704761D01*
X136555714Y-124704761D01*
X136365238Y-124609523D01*
X136270000Y-124419047D01*
X136270000Y-123657142D01*
X136365238Y-123466666D01*
X136555714Y-123371428D01*
X136936666Y-123371428D01*
X137127142Y-123466666D01*
X137222380Y-123657142D01*
X137222380Y-123847619D01*
X136270000Y-124038095D01*
X138079523Y-124704761D02*
X138079523Y-123371428D01*
X138079523Y-123752380D02*
X138174761Y-123561904D01*
X138270000Y-123466666D01*
X138460476Y-123371428D01*
X138650952Y-123371428D01*
X141698571Y-123371428D02*
X141698571Y-124990476D01*
X141603333Y-125180952D01*
X141508095Y-125276190D01*
X141317619Y-125371428D01*
X141031904Y-125371428D01*
X140841428Y-125276190D01*
X141698571Y-124609523D02*
X141508095Y-124704761D01*
X141127142Y-124704761D01*
X140936666Y-124609523D01*
X140841428Y-124514285D01*
X140746190Y-124323809D01*
X140746190Y-123752380D01*
X140841428Y-123561904D01*
X140936666Y-123466666D01*
X141127142Y-123371428D01*
X141508095Y-123371428D01*
X141698571Y-123466666D01*
X142650952Y-124704761D02*
X142650952Y-123371428D01*
X142650952Y-123752380D02*
X142746190Y-123561904D01*
X142841428Y-123466666D01*
X143031904Y-123371428D01*
X143222380Y-123371428D01*
X144746190Y-124704761D02*
X144746190Y-123657142D01*
X144650952Y-123466666D01*
X144460476Y-123371428D01*
X144079523Y-123371428D01*
X143889047Y-123466666D01*
X144746190Y-124609523D02*
X144555714Y-124704761D01*
X144079523Y-124704761D01*
X143889047Y-124609523D01*
X143793809Y-124419047D01*
X143793809Y-124228571D01*
X143889047Y-124038095D01*
X144079523Y-123942857D01*
X144555714Y-123942857D01*
X144746190Y-123847619D01*
X145698571Y-123371428D02*
X145698571Y-124704761D01*
X145698571Y-123561904D02*
X145793809Y-123466666D01*
X145984285Y-123371428D01*
X146270000Y-123371428D01*
X146460476Y-123466666D01*
X146555714Y-123657142D01*
X146555714Y-124704761D01*
X147222380Y-123371428D02*
X147984285Y-123371428D01*
X147508095Y-122704761D02*
X147508095Y-124419047D01*
X147603333Y-124609523D01*
X147793809Y-124704761D01*
X147984285Y-124704761D01*
X151031904Y-124704761D02*
X151031904Y-123657142D01*
X150936666Y-123466666D01*
X150746190Y-123371428D01*
X150365238Y-123371428D01*
X150174761Y-123466666D01*
X151031904Y-124609523D02*
X150841428Y-124704761D01*
X150365238Y-124704761D01*
X150174761Y-124609523D01*
X150079523Y-124419047D01*
X150079523Y-124228571D01*
X150174761Y-124038095D01*
X150365238Y-123942857D01*
X150841428Y-123942857D01*
X151031904Y-123847619D01*
X152841428Y-123371428D02*
X152841428Y-124990476D01*
X152746190Y-125180952D01*
X152650952Y-125276190D01*
X152460476Y-125371428D01*
X152174761Y-125371428D01*
X151984285Y-125276190D01*
X152841428Y-124609523D02*
X152650952Y-124704761D01*
X152270000Y-124704761D01*
X152079523Y-124609523D01*
X151984285Y-124514285D01*
X151889047Y-124323809D01*
X151889047Y-123752380D01*
X151984285Y-123561904D01*
X152079523Y-123466666D01*
X152270000Y-123371428D01*
X152650952Y-123371428D01*
X152841428Y-123466666D01*
X153793809Y-124704761D02*
X153793809Y-123371428D01*
X153793809Y-123752380D02*
X153889047Y-123561904D01*
X153984285Y-123466666D01*
X154174761Y-123371428D01*
X154365238Y-123371428D01*
X155793809Y-124609523D02*
X155603333Y-124704761D01*
X155222380Y-124704761D01*
X155031904Y-124609523D01*
X154936666Y-124419047D01*
X154936666Y-123657142D01*
X155031904Y-123466666D01*
X155222380Y-123371428D01*
X155603333Y-123371428D01*
X155793809Y-123466666D01*
X155889047Y-123657142D01*
X155889047Y-123847619D01*
X154936666Y-124038095D01*
X157508095Y-124609523D02*
X157317619Y-124704761D01*
X156936666Y-124704761D01*
X156746190Y-124609523D01*
X156650952Y-124419047D01*
X156650952Y-123657142D01*
X156746190Y-123466666D01*
X156936666Y-123371428D01*
X157317619Y-123371428D01*
X157508095Y-123466666D01*
X157603333Y-123657142D01*
X157603333Y-123847619D01*
X156650952Y-124038095D01*
X158460476Y-124704761D02*
X158460476Y-123371428D01*
X158460476Y-123561904D02*
X158555714Y-123466666D01*
X158746190Y-123371428D01*
X159031904Y-123371428D01*
X159222380Y-123466666D01*
X159317619Y-123657142D01*
X159317619Y-124704761D01*
X159317619Y-123657142D02*
X159412857Y-123466666D01*
X159603333Y-123371428D01*
X159889047Y-123371428D01*
X160079523Y-123466666D01*
X160174761Y-123657142D01*
X160174761Y-124704761D01*
X161889047Y-124609523D02*
X161698571Y-124704761D01*
X161317619Y-124704761D01*
X161127142Y-124609523D01*
X161031904Y-124419047D01*
X161031904Y-123657142D01*
X161127142Y-123466666D01*
X161317619Y-123371428D01*
X161698571Y-123371428D01*
X161889047Y-123466666D01*
X161984285Y-123657142D01*
X161984285Y-123847619D01*
X161031904Y-124038095D01*
X162841428Y-123371428D02*
X162841428Y-124704761D01*
X162841428Y-123561904D02*
X162936666Y-123466666D01*
X163127142Y-123371428D01*
X163412857Y-123371428D01*
X163603333Y-123466666D01*
X163698571Y-123657142D01*
X163698571Y-124704761D01*
X164365238Y-123371428D02*
X165127142Y-123371428D01*
X164650952Y-122704761D02*
X164650952Y-124419047D01*
X164746190Y-124609523D01*
X164936666Y-124704761D01*
X165127142Y-124704761D01*
X167317619Y-124704761D02*
X167317619Y-122704761D01*
X168460476Y-124704761D01*
X168460476Y-122704761D01*
X169508095Y-123466666D02*
X169317619Y-123371428D01*
X169222380Y-123180952D01*
X169222380Y-122800000D01*
X169317619Y-122609523D01*
X169508095Y-122514285D01*
X169698571Y-122514285D01*
X169889047Y-122609523D01*
X169984285Y-122800000D01*
X169984285Y-123180952D01*
X169889047Y-123371428D01*
X169698571Y-123466666D01*
X169508095Y-123466666D01*
X170555714Y-122704761D02*
X171889047Y-122704761D01*
X171031904Y-124704761D01*
X173508095Y-123371428D02*
X173508095Y-124704761D01*
X173031904Y-122609523D02*
X172555714Y-124038095D01*
X173793809Y-124038095D01*
X175508095Y-122704761D02*
X174555714Y-122704761D01*
X174460476Y-123657142D01*
X174555714Y-123561904D01*
X174746190Y-123466666D01*
X175222380Y-123466666D01*
X175412857Y-123561904D01*
X175508095Y-123657142D01*
X175603333Y-123847619D01*
X175603333Y-124323809D01*
X175508095Y-124514285D01*
X175412857Y-124609523D01*
X175222380Y-124704761D01*
X174746190Y-124704761D01*
X174555714Y-124609523D01*
X174460476Y-124514285D01*
X176555714Y-124704761D02*
X176936666Y-124704761D01*
X177127142Y-124609523D01*
X177222380Y-124514285D01*
X177412857Y-124228571D01*
X177508095Y-123847619D01*
X177508095Y-123085714D01*
X177412857Y-122895238D01*
X177317619Y-122800000D01*
X177127142Y-122704761D01*
X176746190Y-122704761D01*
X176555714Y-122800000D01*
X176460476Y-122895238D01*
X176365238Y-123085714D01*
X176365238Y-123561904D01*
X176460476Y-123752380D01*
X176555714Y-123847619D01*
X176746190Y-123942857D01*
X177127142Y-123942857D01*
X177317619Y-123847619D01*
X177412857Y-123752380D01*
X177508095Y-123561904D01*
X178174761Y-122704761D02*
X179412857Y-122704761D01*
X178746190Y-123466666D01*
X179031904Y-123466666D01*
X179222380Y-123561904D01*
X179317619Y-123657142D01*
X179412857Y-123847619D01*
X179412857Y-124323809D01*
X179317619Y-124514285D01*
X179222380Y-124609523D01*
X179031904Y-124704761D01*
X178460476Y-124704761D01*
X178270000Y-124609523D01*
X178174761Y-124514285D01*
X181127142Y-122704761D02*
X180746190Y-122704761D01*
X180555714Y-122800000D01*
X180460476Y-122895238D01*
X180270000Y-123180952D01*
X180174761Y-123561904D01*
X180174761Y-124323809D01*
X180270000Y-124514285D01*
X180365238Y-124609523D01*
X180555714Y-124704761D01*
X180936666Y-124704761D01*
X181127142Y-124609523D01*
X181222380Y-124514285D01*
X181317619Y-124323809D01*
X181317619Y-123847619D01*
X181222380Y-123657142D01*
X181127142Y-123561904D01*
X180936666Y-123466666D01*
X180555714Y-123466666D01*
X180365238Y-123561904D01*
X180270000Y-123657142D01*
X180174761Y-123847619D01*
X182174761Y-124514285D02*
X182270000Y-124609523D01*
X182174761Y-124704761D01*
X182079523Y-124609523D01*
X182174761Y-124514285D01*
X182174761Y-124704761D01*
X84182380Y-50586904D02*
X84182380Y-54634523D01*
X84420476Y-55110714D01*
X84658571Y-55348809D01*
X85134761Y-55586904D01*
X86087142Y-55586904D01*
X86563333Y-55348809D01*
X86801428Y-55110714D01*
X87039523Y-54634523D01*
X87039523Y-50586904D01*
X89420476Y-52253571D02*
X89420476Y-55586904D01*
X89420476Y-52729761D02*
X89658571Y-52491666D01*
X90134761Y-52253571D01*
X90849047Y-52253571D01*
X91325238Y-52491666D01*
X91563333Y-52967857D01*
X91563333Y-55586904D01*
X93944285Y-55586904D02*
X93944285Y-52253571D01*
X93944285Y-50586904D02*
X93706190Y-50825000D01*
X93944285Y-51063095D01*
X94182380Y-50825000D01*
X93944285Y-50586904D01*
X93944285Y-51063095D01*
X95849047Y-52253571D02*
X97039523Y-55586904D01*
X98230000Y-52253571D01*
X102039523Y-55348809D02*
X101563333Y-55586904D01*
X100610952Y-55586904D01*
X100134761Y-55348809D01*
X99896666Y-54872619D01*
X99896666Y-52967857D01*
X100134761Y-52491666D01*
X100610952Y-52253571D01*
X101563333Y-52253571D01*
X102039523Y-52491666D01*
X102277619Y-52967857D01*
X102277619Y-53444047D01*
X99896666Y-53920238D01*
X104420476Y-55586904D02*
X104420476Y-52253571D01*
X104420476Y-53205952D02*
X104658571Y-52729761D01*
X104896666Y-52491666D01*
X105372857Y-52253571D01*
X105849047Y-52253571D01*
X107277619Y-55348809D02*
X107753809Y-55586904D01*
X108706190Y-55586904D01*
X109182380Y-55348809D01*
X109420476Y-54872619D01*
X109420476Y-54634523D01*
X109182380Y-54158333D01*
X108706190Y-53920238D01*
X107991904Y-53920238D01*
X107515714Y-53682142D01*
X107277619Y-53205952D01*
X107277619Y-52967857D01*
X107515714Y-52491666D01*
X107991904Y-52253571D01*
X108706190Y-52253571D01*
X109182380Y-52491666D01*
X111563333Y-55586904D02*
X111563333Y-52253571D01*
X111563333Y-50586904D02*
X111325238Y-50825000D01*
X111563333Y-51063095D01*
X111801428Y-50825000D01*
X111563333Y-50586904D01*
X111563333Y-51063095D01*
X113230000Y-52253571D02*
X115134761Y-52253571D01*
X113944285Y-50586904D02*
X113944285Y-54872619D01*
X114182380Y-55348809D01*
X114658571Y-55586904D01*
X115134761Y-55586904D01*
X116325238Y-52253571D02*
X117515714Y-55586904D01*
X118706190Y-52253571D02*
X117515714Y-55586904D01*
X117039523Y-56777380D01*
X116801428Y-57015476D01*
X116325238Y-57253571D01*
X125134761Y-55586904D02*
X124658571Y-55348809D01*
X124420476Y-55110714D01*
X124182380Y-54634523D01*
X124182380Y-53205952D01*
X124420476Y-52729761D01*
X124658571Y-52491666D01*
X125134761Y-52253571D01*
X125849047Y-52253571D01*
X126325238Y-52491666D01*
X126563333Y-52729761D01*
X126801428Y-53205952D01*
X126801428Y-54634523D01*
X126563333Y-55110714D01*
X126325238Y-55348809D01*
X125849047Y-55586904D01*
X125134761Y-55586904D01*
X128230000Y-52253571D02*
X130134761Y-52253571D01*
X128944285Y-55586904D02*
X128944285Y-51301190D01*
X129182380Y-50825000D01*
X129658571Y-50586904D01*
X130134761Y-50586904D01*
X137991904Y-55586904D02*
X135610952Y-55586904D01*
X135610952Y-50586904D01*
X139658571Y-52253571D02*
X139658571Y-56539285D01*
X139420476Y-57015476D01*
X138944285Y-57253571D01*
X138706190Y-57253571D01*
X139658571Y-50586904D02*
X139420476Y-50825000D01*
X139658571Y-51063095D01*
X139896666Y-50825000D01*
X139658571Y-50586904D01*
X139658571Y-51063095D01*
X144182380Y-52253571D02*
X144182380Y-55586904D01*
X142039523Y-52253571D02*
X142039523Y-54872619D01*
X142277619Y-55348809D01*
X142753809Y-55586904D01*
X143468095Y-55586904D01*
X143944285Y-55348809D01*
X144182380Y-55110714D01*
X146563333Y-55586904D02*
X146563333Y-50586904D01*
X146563333Y-52491666D02*
X147039523Y-52253571D01*
X147991904Y-52253571D01*
X148468095Y-52491666D01*
X148706190Y-52729761D01*
X148944285Y-53205952D01*
X148944285Y-54634523D01*
X148706190Y-55110714D01*
X148468095Y-55348809D01*
X147991904Y-55586904D01*
X147039523Y-55586904D01*
X146563333Y-55348809D01*
X151801428Y-55586904D02*
X151325238Y-55348809D01*
X151087142Y-54872619D01*
X151087142Y-50586904D01*
X153706190Y-52253571D02*
X153706190Y-56539285D01*
X153468095Y-57015476D01*
X152991904Y-57253571D01*
X152753809Y-57253571D01*
X153706190Y-50586904D02*
X153468095Y-50825000D01*
X153706190Y-51063095D01*
X153944285Y-50825000D01*
X153706190Y-50586904D01*
X153706190Y-51063095D01*
X158229999Y-55586904D02*
X158229999Y-52967857D01*
X157991904Y-52491666D01*
X157515714Y-52253571D01*
X156563333Y-52253571D01*
X156087142Y-52491666D01*
X158229999Y-55348809D02*
X157753809Y-55586904D01*
X156563333Y-55586904D01*
X156087142Y-55348809D01*
X155849047Y-54872619D01*
X155849047Y-54396428D01*
X156087142Y-53920238D01*
X156563333Y-53682142D01*
X157753809Y-53682142D01*
X158229999Y-53444047D01*
X160610952Y-52253571D02*
X160610952Y-55586904D01*
X160610952Y-52729761D02*
X160849047Y-52491666D01*
X161325238Y-52253571D01*
X162039523Y-52253571D01*
X162515714Y-52491666D01*
X162753809Y-52967857D01*
X162753809Y-55586904D01*
X167277619Y-55586904D02*
X167277619Y-52967857D01*
X167039523Y-52491666D01*
X166563333Y-52253571D01*
X165610952Y-52253571D01*
X165134761Y-52491666D01*
X167277619Y-55348809D02*
X166801428Y-55586904D01*
X165610952Y-55586904D01*
X165134761Y-55348809D01*
X164896666Y-54872619D01*
X164896666Y-54396428D01*
X165134761Y-53920238D01*
X165610952Y-53682142D01*
X166801428Y-53682142D01*
X167277619Y-53444047D01*
X90849047Y-60617857D02*
X91563333Y-60855952D01*
X91801428Y-61094047D01*
X92039523Y-61570238D01*
X92039523Y-62284523D01*
X91801428Y-62760714D01*
X91563333Y-62998809D01*
X91087142Y-63236904D01*
X89182380Y-63236904D01*
X89182380Y-58236904D01*
X90849047Y-58236904D01*
X91325238Y-58475000D01*
X91563333Y-58713095D01*
X91801428Y-59189285D01*
X91801428Y-59665476D01*
X91563333Y-60141666D01*
X91325238Y-60379761D01*
X90849047Y-60617857D01*
X89182380Y-60617857D01*
X94182380Y-63236904D02*
X94182380Y-59903571D01*
X94182380Y-58236904D02*
X93944285Y-58475000D01*
X94182380Y-58713095D01*
X94420476Y-58475000D01*
X94182380Y-58236904D01*
X94182380Y-58713095D01*
X97277619Y-63236904D02*
X96801428Y-62998809D01*
X96563333Y-62760714D01*
X96325238Y-62284523D01*
X96325238Y-60855952D01*
X96563333Y-60379761D01*
X96801428Y-60141666D01*
X97277619Y-59903571D01*
X97991904Y-59903571D01*
X98468095Y-60141666D01*
X98706190Y-60379761D01*
X98944285Y-60855952D01*
X98944285Y-62284523D01*
X98706190Y-62760714D01*
X98468095Y-62998809D01*
X97991904Y-63236904D01*
X97277619Y-63236904D01*
X100372857Y-59903571D02*
X102277619Y-59903571D01*
X101087142Y-58236904D02*
X101087142Y-62522619D01*
X101325238Y-62998809D01*
X101801428Y-63236904D01*
X102277619Y-63236904D01*
X105849047Y-62998809D02*
X105372857Y-63236904D01*
X104420476Y-63236904D01*
X103944285Y-62998809D01*
X103706190Y-62522619D01*
X103706190Y-60617857D01*
X103944285Y-60141666D01*
X104420476Y-59903571D01*
X105372857Y-59903571D01*
X105849047Y-60141666D01*
X106087142Y-60617857D01*
X106087142Y-61094047D01*
X103706190Y-61570238D01*
X110372857Y-62998809D02*
X109896666Y-63236904D01*
X108944285Y-63236904D01*
X108468095Y-62998809D01*
X108230000Y-62760714D01*
X107991904Y-62284523D01*
X107991904Y-60855952D01*
X108230000Y-60379761D01*
X108468095Y-60141666D01*
X108944285Y-59903571D01*
X109896666Y-59903571D01*
X110372857Y-60141666D01*
X112515714Y-63236904D02*
X112515714Y-58236904D01*
X114658571Y-63236904D02*
X114658571Y-60617857D01*
X114420476Y-60141666D01*
X113944285Y-59903571D01*
X113230000Y-59903571D01*
X112753809Y-60141666D01*
X112515714Y-60379761D01*
X117039523Y-59903571D02*
X117039523Y-63236904D01*
X117039523Y-60379761D02*
X117277619Y-60141666D01*
X117753809Y-59903571D01*
X118468095Y-59903571D01*
X118944285Y-60141666D01*
X119182380Y-60617857D01*
X119182380Y-63236904D01*
X121563333Y-63236904D02*
X121563333Y-59903571D01*
X121563333Y-58236904D02*
X121325238Y-58475000D01*
X121563333Y-58713095D01*
X121801428Y-58475000D01*
X121563333Y-58236904D01*
X121563333Y-58713095D01*
X126087142Y-62998809D02*
X125610952Y-63236904D01*
X124658571Y-63236904D01*
X124182380Y-62998809D01*
X123944285Y-62760714D01*
X123706190Y-62284523D01*
X123706190Y-60855952D01*
X123944285Y-60379761D01*
X124182380Y-60141666D01*
X124658571Y-59903571D01*
X125610952Y-59903571D01*
X126087142Y-60141666D01*
X130372857Y-63236904D02*
X130372857Y-60617857D01*
X130134761Y-60141666D01*
X129658571Y-59903571D01*
X128706190Y-59903571D01*
X128229999Y-60141666D01*
X130372857Y-62998809D02*
X129896666Y-63236904D01*
X128706190Y-63236904D01*
X128229999Y-62998809D01*
X127991904Y-62522619D01*
X127991904Y-62046428D01*
X128229999Y-61570238D01*
X128706190Y-61332142D01*
X129896666Y-61332142D01*
X130372857Y-61094047D01*
X133468095Y-63236904D02*
X132991904Y-62998809D01*
X132753809Y-62522619D01*
X132753809Y-58236904D01*
X138468095Y-59903571D02*
X140372857Y-59903571D01*
X139182380Y-63236904D02*
X139182380Y-58951190D01*
X139420476Y-58475000D01*
X139896666Y-58236904D01*
X140372857Y-58236904D01*
X144182380Y-63236904D02*
X144182380Y-60617857D01*
X143944285Y-60141666D01*
X143468095Y-59903571D01*
X142515714Y-59903571D01*
X142039523Y-60141666D01*
X144182380Y-62998809D02*
X143706190Y-63236904D01*
X142515714Y-63236904D01*
X142039523Y-62998809D01*
X141801428Y-62522619D01*
X141801428Y-62046428D01*
X142039523Y-61570238D01*
X142515714Y-61332142D01*
X143706190Y-61332142D01*
X144182380Y-61094047D01*
X148706190Y-62998809D02*
X148230000Y-63236904D01*
X147277619Y-63236904D01*
X146801428Y-62998809D01*
X146563333Y-62760714D01*
X146325238Y-62284523D01*
X146325238Y-60855952D01*
X146563333Y-60379761D01*
X146801428Y-60141666D01*
X147277619Y-59903571D01*
X148230000Y-59903571D01*
X148706190Y-60141666D01*
X152991904Y-59903571D02*
X152991904Y-63236904D01*
X150849047Y-59903571D02*
X150849047Y-62522619D01*
X151087142Y-62998809D01*
X151563333Y-63236904D01*
X152277619Y-63236904D01*
X152753809Y-62998809D01*
X152991904Y-62760714D01*
X156087142Y-63236904D02*
X155610952Y-62998809D01*
X155372857Y-62522619D01*
X155372857Y-58236904D01*
X157277619Y-59903571D02*
X159182380Y-59903571D01*
X157991904Y-58236904D02*
X157991904Y-62522619D01*
X158230000Y-62998809D01*
X158706190Y-63236904D01*
X159182380Y-63236904D01*
X160372857Y-59903571D02*
X161563333Y-63236904D01*
X162753809Y-59903571D02*
X161563333Y-63236904D01*
X161087142Y-64427380D01*
X160849047Y-64665476D01*
X160372857Y-64903571D01*
D11*
X199810000Y-123190000D02*
G75*
G03X199810000Y-123190000I-5500000J0D01*
G01*
X62650000Y-123190000D02*
G75*
G03X62650000Y-123190000I-5500000J0D01*
G01*
X199810000Y-48260000D02*
G75*
G03X199810000Y-48260000I-5500000J0D01*
G01*
X62650000Y-48260000D02*
G75*
G03X62650000Y-48260000I-5500000J0D01*
G01*
D10*
X193976666Y-116142380D02*
X193976666Y-116856666D01*
X193929047Y-116999523D01*
X193833809Y-117094761D01*
X193690952Y-117142380D01*
X193595714Y-117142380D01*
X194881428Y-116475714D02*
X194881428Y-117142380D01*
X194643333Y-116094761D02*
X194405238Y-116809047D01*
X195024285Y-116809047D01*
X56816666Y-116142380D02*
X56816666Y-116856666D01*
X56769047Y-116999523D01*
X56673809Y-117094761D01*
X56530952Y-117142380D01*
X56435714Y-117142380D01*
X57197619Y-116142380D02*
X57816666Y-116142380D01*
X57483333Y-116523333D01*
X57626190Y-116523333D01*
X57721428Y-116570952D01*
X57769047Y-116618571D01*
X57816666Y-116713809D01*
X57816666Y-116951904D01*
X57769047Y-117047142D01*
X57721428Y-117094761D01*
X57626190Y-117142380D01*
X57340476Y-117142380D01*
X57245238Y-117094761D01*
X57197619Y-117047142D01*
X193976666Y-54212380D02*
X193976666Y-54926666D01*
X193929047Y-55069523D01*
X193833809Y-55164761D01*
X193690952Y-55212380D01*
X193595714Y-55212380D01*
X194405238Y-54307619D02*
X194452857Y-54260000D01*
X194548095Y-54212380D01*
X194786190Y-54212380D01*
X194881428Y-54260000D01*
X194929047Y-54307619D01*
X194976666Y-54402857D01*
X194976666Y-54498095D01*
X194929047Y-54640952D01*
X194357619Y-55212380D01*
X194976666Y-55212380D01*
X56816666Y-54212380D02*
X56816666Y-54926666D01*
X56769047Y-55069523D01*
X56673809Y-55164761D01*
X56530952Y-55212380D01*
X56435714Y-55212380D01*
X57816666Y-55212380D02*
X57245238Y-55212380D01*
X57530952Y-55212380D02*
X57530952Y-54212380D01*
X57435714Y-54355238D01*
X57340476Y-54450476D01*
X57245238Y-54498095D01*
M02*
