%FSLAX45Y45*%
G04 Gerber Fmt 4.5, Leading zero omitted, Abs format (unit mm)*
G04 Created by KiCad (PCBNEW (5.1.2)-1) date 2020-03-03 11:04:51*
%MOMM*%
%LPD*%
G04 APERTURE LIST*
%ADD10C,0.050000*%
%ADD11C,0.200000*%
%ADD12C,0.300000*%
G04 APERTURE END LIST*
D10*
X14400000Y-11150000D02*
X14400000Y-7500000D01*
X9900000Y-11150000D02*
X14400000Y-11150000D01*
X14400000Y-7500000D02*
X9900000Y-7500000D01*
X9900000Y-7500000D02*
X9900000Y-11150000D01*
D11*
X10364000Y-9983000D02*
X10464000Y-10083000D01*
X10464000Y-9983000D02*
X10364000Y-10083000D01*
X10618000Y-9983000D02*
X10718000Y-10083000D01*
X10718000Y-9983000D02*
X10618000Y-10083000D01*
X11866000Y-8890000D02*
G75*
G03X11866000Y-8890000I-55000J0D01*
G01*
X11866000Y-9144000D02*
G75*
G03X11866000Y-9144000I-55000J0D01*
G01*
X11358000Y-7747000D02*
G75*
G03X11358000Y-7747000I-55000J0D01*
G01*
X11358000Y-8001000D02*
G75*
G03X11358000Y-8001000I-55000J0D01*
G01*
X11866000Y-9906000D02*
G75*
G03X11866000Y-9906000I-55000J0D01*
G01*
X12120000Y-9906000D02*
G75*
G03X12120000Y-9906000I-55000J0D01*
G01*
X12374000Y-9906000D02*
G75*
G03X12374000Y-9906000I-55000J0D01*
G01*
X10342000Y-8001000D02*
G75*
G03X10342000Y-8001000I-55000J0D01*
G01*
X10596000Y-8001000D02*
G75*
G03X10596000Y-8001000I-55000J0D01*
G01*
X10850000Y-8001000D02*
G75*
G03X10850000Y-8001000I-55000J0D01*
G01*
X10160000Y-9465000D02*
X10160000Y-9585000D01*
X10100000Y-9525000D02*
X10220000Y-9525000D01*
X11430000Y-9465000D02*
X11430000Y-9585000D01*
X11370000Y-9525000D02*
X11490000Y-9525000D01*
X10160000Y-8449000D02*
X10160000Y-8569000D01*
X10100000Y-8509000D02*
X10220000Y-8509000D01*
X11430000Y-8449000D02*
X11430000Y-8569000D01*
X11370000Y-8509000D02*
X11490000Y-8509000D01*
X10160000Y-8957000D02*
X10160000Y-9077000D01*
X10100000Y-9017000D02*
X10220000Y-9017000D01*
X11430000Y-8957000D02*
X11430000Y-9077000D01*
X11370000Y-9017000D02*
X11490000Y-9017000D01*
X13634962Y-8808962D02*
X13634962Y-8717038D01*
X13543038Y-8717038D01*
X13543038Y-8808962D01*
X13634962Y-8808962D01*
X13634962Y-9316962D02*
X13634962Y-9225038D01*
X13543038Y-9225038D01*
X13543038Y-9316962D01*
X13634962Y-9316962D01*
X13380962Y-10459962D02*
X13380962Y-10368038D01*
X13289038Y-10368038D01*
X13289038Y-10459962D01*
X13380962Y-10459962D01*
X13888962Y-10459962D02*
X13888962Y-10368038D01*
X13797038Y-10368038D01*
X13797038Y-10459962D01*
X13888962Y-10459962D01*
X10332962Y-10459962D02*
X10332962Y-10368038D01*
X10241038Y-10368038D01*
X10241038Y-10459962D01*
X10332962Y-10459962D01*
X10840962Y-10459962D02*
X10840962Y-10368038D01*
X10749038Y-10368038D01*
X10749038Y-10459962D01*
X10840962Y-10459962D01*
X11602962Y-10459962D02*
X11602962Y-10368038D01*
X11511038Y-10368038D01*
X11511038Y-10459962D01*
X11602962Y-10459962D01*
X12110962Y-10459962D02*
X12110962Y-10368038D01*
X12019038Y-10368038D01*
X12019038Y-10459962D01*
X12110962Y-10459962D01*
X12618962Y-10459962D02*
X12618962Y-10368038D01*
X12527038Y-10368038D01*
X12527038Y-10459962D01*
X12618962Y-10459962D01*
X11811000Y-8076000D02*
X11886000Y-8001000D01*
X11811000Y-7926000D01*
X11736000Y-8001000D01*
X11811000Y-8076000D01*
X12356000Y-8076000D02*
X12431000Y-8001000D01*
X12356000Y-7926000D01*
X12281000Y-8001000D01*
X12356000Y-8076000D01*
X12901000Y-8076000D02*
X12976000Y-8001000D01*
X12901000Y-7926000D01*
X12826000Y-8001000D01*
X12901000Y-8076000D01*
X12239000Y-8810000D02*
X12399000Y-8970000D01*
X12399000Y-8810000D02*
X12239000Y-8970000D01*
X12399000Y-8890000D02*
G75*
G03X12399000Y-8890000I-80000J0D01*
G01*
X12239000Y-9318000D02*
X12399000Y-9478000D01*
X12399000Y-9318000D02*
X12239000Y-9478000D01*
X12399000Y-9398000D02*
G75*
G03X12399000Y-9398000I-80000J0D01*
G01*
D12*
X10183928Y-11618214D02*
X10183928Y-11318214D01*
X10255357Y-11318214D01*
X10298214Y-11332500D01*
X10326786Y-11361071D01*
X10341071Y-11389643D01*
X10355357Y-11446786D01*
X10355357Y-11489643D01*
X10341071Y-11546786D01*
X10326786Y-11575357D01*
X10298214Y-11603929D01*
X10255357Y-11618214D01*
X10183928Y-11618214D01*
X10483928Y-11618214D02*
X10483928Y-11418214D01*
X10483928Y-11475357D02*
X10498214Y-11446786D01*
X10512500Y-11432500D01*
X10541071Y-11418214D01*
X10569643Y-11418214D01*
X10669643Y-11618214D02*
X10669643Y-11418214D01*
X10669643Y-11318214D02*
X10655357Y-11332500D01*
X10669643Y-11346786D01*
X10683928Y-11332500D01*
X10669643Y-11318214D01*
X10669643Y-11346786D01*
X10855357Y-11618214D02*
X10826786Y-11603929D01*
X10812500Y-11575357D01*
X10812500Y-11318214D01*
X11012500Y-11618214D02*
X10983928Y-11603929D01*
X10969643Y-11575357D01*
X10969643Y-11318214D01*
X11355357Y-11618214D02*
X11355357Y-11318214D01*
X11455357Y-11532500D01*
X11555357Y-11318214D01*
X11555357Y-11618214D01*
X11826786Y-11618214D02*
X11826786Y-11461071D01*
X11812500Y-11432500D01*
X11783928Y-11418214D01*
X11726786Y-11418214D01*
X11698214Y-11432500D01*
X11826786Y-11603929D02*
X11798214Y-11618214D01*
X11726786Y-11618214D01*
X11698214Y-11603929D01*
X11683928Y-11575357D01*
X11683928Y-11546786D01*
X11698214Y-11518214D01*
X11726786Y-11503929D01*
X11798214Y-11503929D01*
X11826786Y-11489643D01*
X11969643Y-11418214D02*
X11969643Y-11718214D01*
X11969643Y-11432500D02*
X11998214Y-11418214D01*
X12055357Y-11418214D01*
X12083928Y-11432500D01*
X12098214Y-11446786D01*
X12112500Y-11475357D01*
X12112500Y-11561071D01*
X12098214Y-11589643D01*
X12083928Y-11603929D01*
X12055357Y-11618214D01*
X11998214Y-11618214D01*
X11969643Y-11603929D01*
X12241071Y-11589643D02*
X12255357Y-11603929D01*
X12241071Y-11618214D01*
X12226786Y-11603929D01*
X12241071Y-11589643D01*
X12241071Y-11618214D01*
X12241071Y-11432500D02*
X12255357Y-11446786D01*
X12241071Y-11461071D01*
X12226786Y-11446786D01*
X12241071Y-11432500D01*
X12241071Y-11461071D01*
X9797500Y-12062500D02*
X9897500Y-12162500D01*
X9897500Y-12062500D02*
X9797500Y-12162500D01*
X10341071Y-12248214D02*
X10169643Y-12248214D01*
X10255357Y-12248214D02*
X10255357Y-11948214D01*
X10226786Y-11991071D01*
X10198214Y-12019643D01*
X10169643Y-12033929D01*
X10469643Y-12219643D02*
X10483928Y-12233929D01*
X10469643Y-12248214D01*
X10455357Y-12233929D01*
X10469643Y-12219643D01*
X10469643Y-12248214D01*
X10669643Y-11948214D02*
X10698214Y-11948214D01*
X10726786Y-11962500D01*
X10741071Y-11976786D01*
X10755357Y-12005357D01*
X10769643Y-12062500D01*
X10769643Y-12133929D01*
X10755357Y-12191071D01*
X10741071Y-12219643D01*
X10726786Y-12233929D01*
X10698214Y-12248214D01*
X10669643Y-12248214D01*
X10641071Y-12233929D01*
X10626786Y-12219643D01*
X10612500Y-12191071D01*
X10598214Y-12133929D01*
X10598214Y-12062500D01*
X10612500Y-12005357D01*
X10626786Y-11976786D01*
X10641071Y-11962500D01*
X10669643Y-11948214D01*
X10955357Y-11948214D02*
X10983928Y-11948214D01*
X11012500Y-11962500D01*
X11026786Y-11976786D01*
X11041071Y-12005357D01*
X11055357Y-12062500D01*
X11055357Y-12133929D01*
X11041071Y-12191071D01*
X11026786Y-12219643D01*
X11012500Y-12233929D01*
X10983928Y-12248214D01*
X10955357Y-12248214D01*
X10926786Y-12233929D01*
X10912500Y-12219643D01*
X10898214Y-12191071D01*
X10883928Y-12133929D01*
X10883928Y-12062500D01*
X10898214Y-12005357D01*
X10912500Y-11976786D01*
X10926786Y-11962500D01*
X10955357Y-11948214D01*
X11183928Y-12248214D02*
X11183928Y-12048214D01*
X11183928Y-12076786D02*
X11198214Y-12062500D01*
X11226786Y-12048214D01*
X11269643Y-12048214D01*
X11298214Y-12062500D01*
X11312500Y-12091071D01*
X11312500Y-12248214D01*
X11312500Y-12091071D02*
X11326786Y-12062500D01*
X11355357Y-12048214D01*
X11398214Y-12048214D01*
X11426786Y-12062500D01*
X11441071Y-12091071D01*
X11441071Y-12248214D01*
X11583928Y-12248214D02*
X11583928Y-12048214D01*
X11583928Y-12076786D02*
X11598214Y-12062500D01*
X11626786Y-12048214D01*
X11669643Y-12048214D01*
X11698214Y-12062500D01*
X11712500Y-12091071D01*
X11712500Y-12248214D01*
X11712500Y-12091071D02*
X11726786Y-12062500D01*
X11755357Y-12048214D01*
X11798214Y-12048214D01*
X11826786Y-12062500D01*
X11841071Y-12091071D01*
X11841071Y-12248214D01*
X12426786Y-11933929D02*
X12169643Y-12319643D01*
X12812500Y-11948214D02*
X12841071Y-11948214D01*
X12869643Y-11962500D01*
X12883928Y-11976786D01*
X12898214Y-12005357D01*
X12912500Y-12062500D01*
X12912500Y-12133929D01*
X12898214Y-12191071D01*
X12883928Y-12219643D01*
X12869643Y-12233929D01*
X12841071Y-12248214D01*
X12812500Y-12248214D01*
X12783928Y-12233929D01*
X12769643Y-12219643D01*
X12755357Y-12191071D01*
X12741071Y-12133929D01*
X12741071Y-12062500D01*
X12755357Y-12005357D01*
X12769643Y-11976786D01*
X12783928Y-11962500D01*
X12812500Y-11948214D01*
X13041071Y-12219643D02*
X13055357Y-12233929D01*
X13041071Y-12248214D01*
X13026786Y-12233929D01*
X13041071Y-12219643D01*
X13041071Y-12248214D01*
X13241071Y-11948214D02*
X13269643Y-11948214D01*
X13298214Y-11962500D01*
X13312500Y-11976786D01*
X13326786Y-12005357D01*
X13341071Y-12062500D01*
X13341071Y-12133929D01*
X13326786Y-12191071D01*
X13312500Y-12219643D01*
X13298214Y-12233929D01*
X13269643Y-12248214D01*
X13241071Y-12248214D01*
X13212500Y-12233929D01*
X13198214Y-12219643D01*
X13183928Y-12191071D01*
X13169643Y-12133929D01*
X13169643Y-12062500D01*
X13183928Y-12005357D01*
X13198214Y-11976786D01*
X13212500Y-11962500D01*
X13241071Y-11948214D01*
X13441071Y-11948214D02*
X13626786Y-11948214D01*
X13526786Y-12062500D01*
X13569643Y-12062500D01*
X13598214Y-12076786D01*
X13612500Y-12091071D01*
X13626786Y-12119643D01*
X13626786Y-12191071D01*
X13612500Y-12219643D01*
X13598214Y-12233929D01*
X13569643Y-12248214D01*
X13483928Y-12248214D01*
X13455357Y-12233929D01*
X13441071Y-12219643D01*
X13769643Y-12248214D02*
X13826786Y-12248214D01*
X13855357Y-12233929D01*
X13869643Y-12219643D01*
X13898214Y-12176786D01*
X13912500Y-12119643D01*
X13912500Y-12005357D01*
X13898214Y-11976786D01*
X13883928Y-11962500D01*
X13855357Y-11948214D01*
X13798214Y-11948214D01*
X13769643Y-11962500D01*
X13755357Y-11976786D01*
X13741071Y-12005357D01*
X13741071Y-12076786D01*
X13755357Y-12105357D01*
X13769643Y-12119643D01*
X13798214Y-12133929D01*
X13855357Y-12133929D01*
X13883928Y-12119643D01*
X13898214Y-12105357D01*
X13912500Y-12076786D01*
X14026786Y-11948214D02*
X14026786Y-12005357D01*
X14141071Y-11948214D02*
X14141071Y-12005357D01*
X14583928Y-12362500D02*
X14569643Y-12348214D01*
X14541071Y-12305357D01*
X14526786Y-12276786D01*
X14512500Y-12233929D01*
X14498214Y-12162500D01*
X14498214Y-12105357D01*
X14512500Y-12033929D01*
X14526786Y-11991071D01*
X14541071Y-11962500D01*
X14569643Y-11919643D01*
X14583928Y-11905357D01*
X14683928Y-11976786D02*
X14698214Y-11962500D01*
X14726786Y-11948214D01*
X14798214Y-11948214D01*
X14826786Y-11962500D01*
X14841071Y-11976786D01*
X14855357Y-12005357D01*
X14855357Y-12033929D01*
X14841071Y-12076786D01*
X14669643Y-12248214D01*
X14855357Y-12248214D01*
X15212500Y-12248214D02*
X15212500Y-11948214D01*
X15341071Y-12248214D02*
X15341071Y-12091071D01*
X15326786Y-12062500D01*
X15298214Y-12048214D01*
X15255357Y-12048214D01*
X15226786Y-12062500D01*
X15212500Y-12076786D01*
X15526786Y-12248214D02*
X15498214Y-12233929D01*
X15483928Y-12219643D01*
X15469643Y-12191071D01*
X15469643Y-12105357D01*
X15483928Y-12076786D01*
X15498214Y-12062500D01*
X15526786Y-12048214D01*
X15569643Y-12048214D01*
X15598214Y-12062500D01*
X15612500Y-12076786D01*
X15626786Y-12105357D01*
X15626786Y-12191071D01*
X15612500Y-12219643D01*
X15598214Y-12233929D01*
X15569643Y-12248214D01*
X15526786Y-12248214D01*
X15798214Y-12248214D02*
X15769643Y-12233929D01*
X15755357Y-12205357D01*
X15755357Y-11948214D01*
X16026786Y-12233929D02*
X15998214Y-12248214D01*
X15941071Y-12248214D01*
X15912500Y-12233929D01*
X15898214Y-12205357D01*
X15898214Y-12091071D01*
X15912500Y-12062500D01*
X15941071Y-12048214D01*
X15998214Y-12048214D01*
X16026786Y-12062500D01*
X16041071Y-12091071D01*
X16041071Y-12119643D01*
X15898214Y-12148214D01*
X16155357Y-12233929D02*
X16183928Y-12248214D01*
X16241071Y-12248214D01*
X16269643Y-12233929D01*
X16283928Y-12205357D01*
X16283928Y-12191071D01*
X16269643Y-12162500D01*
X16241071Y-12148214D01*
X16198214Y-12148214D01*
X16169643Y-12133929D01*
X16155357Y-12105357D01*
X16155357Y-12091071D01*
X16169643Y-12062500D01*
X16198214Y-12048214D01*
X16241071Y-12048214D01*
X16269643Y-12062500D01*
X16383928Y-12362500D02*
X16398214Y-12348214D01*
X16426786Y-12305357D01*
X16441071Y-12276786D01*
X16455357Y-12233929D01*
X16469643Y-12162500D01*
X16469643Y-12105357D01*
X16455357Y-12033929D01*
X16441071Y-11991071D01*
X16426786Y-11962500D01*
X16398214Y-11919643D01*
X16383928Y-11905357D01*
X9897500Y-12508500D02*
G75*
G03X9897500Y-12508500I-55000J0D01*
G01*
X10341071Y-12644214D02*
X10169643Y-12644214D01*
X10255357Y-12644214D02*
X10255357Y-12344214D01*
X10226786Y-12387071D01*
X10198214Y-12415643D01*
X10169643Y-12429929D01*
X10469643Y-12615643D02*
X10483928Y-12629929D01*
X10469643Y-12644214D01*
X10455357Y-12629929D01*
X10469643Y-12615643D01*
X10469643Y-12644214D01*
X10769643Y-12644214D02*
X10598214Y-12644214D01*
X10683928Y-12644214D02*
X10683928Y-12344214D01*
X10655357Y-12387071D01*
X10626786Y-12415643D01*
X10598214Y-12429929D01*
X10955357Y-12344214D02*
X10983928Y-12344214D01*
X11012500Y-12358500D01*
X11026786Y-12372786D01*
X11041071Y-12401357D01*
X11055357Y-12458500D01*
X11055357Y-12529929D01*
X11041071Y-12587071D01*
X11026786Y-12615643D01*
X11012500Y-12629929D01*
X10983928Y-12644214D01*
X10955357Y-12644214D01*
X10926786Y-12629929D01*
X10912500Y-12615643D01*
X10898214Y-12587071D01*
X10883928Y-12529929D01*
X10883928Y-12458500D01*
X10898214Y-12401357D01*
X10912500Y-12372786D01*
X10926786Y-12358500D01*
X10955357Y-12344214D01*
X11183928Y-12644214D02*
X11183928Y-12444214D01*
X11183928Y-12472786D02*
X11198214Y-12458500D01*
X11226786Y-12444214D01*
X11269643Y-12444214D01*
X11298214Y-12458500D01*
X11312500Y-12487071D01*
X11312500Y-12644214D01*
X11312500Y-12487071D02*
X11326786Y-12458500D01*
X11355357Y-12444214D01*
X11398214Y-12444214D01*
X11426786Y-12458500D01*
X11441071Y-12487071D01*
X11441071Y-12644214D01*
X11583928Y-12644214D02*
X11583928Y-12444214D01*
X11583928Y-12472786D02*
X11598214Y-12458500D01*
X11626786Y-12444214D01*
X11669643Y-12444214D01*
X11698214Y-12458500D01*
X11712500Y-12487071D01*
X11712500Y-12644214D01*
X11712500Y-12487071D02*
X11726786Y-12458500D01*
X11755357Y-12444214D01*
X11798214Y-12444214D01*
X11826786Y-12458500D01*
X11841071Y-12487071D01*
X11841071Y-12644214D01*
X12426786Y-12329929D02*
X12169643Y-12715643D01*
X12812500Y-12344214D02*
X12841071Y-12344214D01*
X12869643Y-12358500D01*
X12883928Y-12372786D01*
X12898214Y-12401357D01*
X12912500Y-12458500D01*
X12912500Y-12529929D01*
X12898214Y-12587071D01*
X12883928Y-12615643D01*
X12869643Y-12629929D01*
X12841071Y-12644214D01*
X12812500Y-12644214D01*
X12783928Y-12629929D01*
X12769643Y-12615643D01*
X12755357Y-12587071D01*
X12741071Y-12529929D01*
X12741071Y-12458500D01*
X12755357Y-12401357D01*
X12769643Y-12372786D01*
X12783928Y-12358500D01*
X12812500Y-12344214D01*
X13041071Y-12615643D02*
X13055357Y-12629929D01*
X13041071Y-12644214D01*
X13026786Y-12629929D01*
X13041071Y-12615643D01*
X13041071Y-12644214D01*
X13241071Y-12344214D02*
X13269643Y-12344214D01*
X13298214Y-12358500D01*
X13312500Y-12372786D01*
X13326786Y-12401357D01*
X13341071Y-12458500D01*
X13341071Y-12529929D01*
X13326786Y-12587071D01*
X13312500Y-12615643D01*
X13298214Y-12629929D01*
X13269643Y-12644214D01*
X13241071Y-12644214D01*
X13212500Y-12629929D01*
X13198214Y-12615643D01*
X13183928Y-12587071D01*
X13169643Y-12529929D01*
X13169643Y-12458500D01*
X13183928Y-12401357D01*
X13198214Y-12372786D01*
X13212500Y-12358500D01*
X13241071Y-12344214D01*
X13598214Y-12444214D02*
X13598214Y-12644214D01*
X13526786Y-12329929D02*
X13455357Y-12544214D01*
X13641071Y-12544214D01*
X13726786Y-12344214D02*
X13912500Y-12344214D01*
X13812500Y-12458500D01*
X13855357Y-12458500D01*
X13883928Y-12472786D01*
X13898214Y-12487071D01*
X13912500Y-12515643D01*
X13912500Y-12587071D01*
X13898214Y-12615643D01*
X13883928Y-12629929D01*
X13855357Y-12644214D01*
X13769643Y-12644214D01*
X13741071Y-12629929D01*
X13726786Y-12615643D01*
X14026786Y-12344214D02*
X14026786Y-12401357D01*
X14141071Y-12344214D02*
X14141071Y-12401357D01*
X14583928Y-12758500D02*
X14569643Y-12744214D01*
X14541071Y-12701357D01*
X14526786Y-12672786D01*
X14512500Y-12629929D01*
X14498214Y-12558500D01*
X14498214Y-12501357D01*
X14512500Y-12429929D01*
X14526786Y-12387071D01*
X14541071Y-12358500D01*
X14569643Y-12315643D01*
X14583928Y-12301357D01*
X14855357Y-12644214D02*
X14683928Y-12644214D01*
X14769643Y-12644214D02*
X14769643Y-12344214D01*
X14741071Y-12387071D01*
X14712500Y-12415643D01*
X14683928Y-12429929D01*
X15041071Y-12344214D02*
X15069643Y-12344214D01*
X15098214Y-12358500D01*
X15112500Y-12372786D01*
X15126786Y-12401357D01*
X15141071Y-12458500D01*
X15141071Y-12529929D01*
X15126786Y-12587071D01*
X15112500Y-12615643D01*
X15098214Y-12629929D01*
X15069643Y-12644214D01*
X15041071Y-12644214D01*
X15012500Y-12629929D01*
X14998214Y-12615643D01*
X14983928Y-12587071D01*
X14969643Y-12529929D01*
X14969643Y-12458500D01*
X14983928Y-12401357D01*
X14998214Y-12372786D01*
X15012500Y-12358500D01*
X15041071Y-12344214D01*
X15498214Y-12644214D02*
X15498214Y-12344214D01*
X15626786Y-12644214D02*
X15626786Y-12487071D01*
X15612500Y-12458500D01*
X15583928Y-12444214D01*
X15541071Y-12444214D01*
X15512500Y-12458500D01*
X15498214Y-12472786D01*
X15812500Y-12644214D02*
X15783928Y-12629929D01*
X15769643Y-12615643D01*
X15755357Y-12587071D01*
X15755357Y-12501357D01*
X15769643Y-12472786D01*
X15783928Y-12458500D01*
X15812500Y-12444214D01*
X15855357Y-12444214D01*
X15883928Y-12458500D01*
X15898214Y-12472786D01*
X15912500Y-12501357D01*
X15912500Y-12587071D01*
X15898214Y-12615643D01*
X15883928Y-12629929D01*
X15855357Y-12644214D01*
X15812500Y-12644214D01*
X16083928Y-12644214D02*
X16055357Y-12629929D01*
X16041071Y-12601357D01*
X16041071Y-12344214D01*
X16312500Y-12629929D02*
X16283928Y-12644214D01*
X16226786Y-12644214D01*
X16198214Y-12629929D01*
X16183928Y-12601357D01*
X16183928Y-12487071D01*
X16198214Y-12458500D01*
X16226786Y-12444214D01*
X16283928Y-12444214D01*
X16312500Y-12458500D01*
X16326786Y-12487071D01*
X16326786Y-12515643D01*
X16183928Y-12544214D01*
X16441071Y-12629929D02*
X16469643Y-12644214D01*
X16526786Y-12644214D01*
X16555357Y-12629929D01*
X16569643Y-12601357D01*
X16569643Y-12587071D01*
X16555357Y-12558500D01*
X16526786Y-12544214D01*
X16483928Y-12544214D01*
X16455357Y-12529929D01*
X16441071Y-12501357D01*
X16441071Y-12487071D01*
X16455357Y-12458500D01*
X16483928Y-12444214D01*
X16526786Y-12444214D01*
X16555357Y-12458500D01*
X16669643Y-12758500D02*
X16683928Y-12744214D01*
X16712500Y-12701357D01*
X16726786Y-12672786D01*
X16741071Y-12629929D01*
X16755357Y-12558500D01*
X16755357Y-12501357D01*
X16741071Y-12429929D01*
X16726786Y-12387071D01*
X16712500Y-12358500D01*
X16683928Y-12315643D01*
X16669643Y-12301357D01*
X9837500Y-12844500D02*
X9837500Y-12964500D01*
X9777500Y-12904500D02*
X9897500Y-12904500D01*
X10341071Y-13040214D02*
X10169643Y-13040214D01*
X10255357Y-13040214D02*
X10255357Y-12740214D01*
X10226786Y-12783071D01*
X10198214Y-12811643D01*
X10169643Y-12825929D01*
X10469643Y-13011643D02*
X10483928Y-13025929D01*
X10469643Y-13040214D01*
X10455357Y-13025929D01*
X10469643Y-13011643D01*
X10469643Y-13040214D01*
X10598214Y-12768786D02*
X10612500Y-12754500D01*
X10641071Y-12740214D01*
X10712500Y-12740214D01*
X10741071Y-12754500D01*
X10755357Y-12768786D01*
X10769643Y-12797357D01*
X10769643Y-12825929D01*
X10755357Y-12868786D01*
X10583928Y-13040214D01*
X10769643Y-13040214D01*
X10955357Y-12740214D02*
X10983928Y-12740214D01*
X11012500Y-12754500D01*
X11026786Y-12768786D01*
X11041071Y-12797357D01*
X11055357Y-12854500D01*
X11055357Y-12925929D01*
X11041071Y-12983071D01*
X11026786Y-13011643D01*
X11012500Y-13025929D01*
X10983928Y-13040214D01*
X10955357Y-13040214D01*
X10926786Y-13025929D01*
X10912500Y-13011643D01*
X10898214Y-12983071D01*
X10883928Y-12925929D01*
X10883928Y-12854500D01*
X10898214Y-12797357D01*
X10912500Y-12768786D01*
X10926786Y-12754500D01*
X10955357Y-12740214D01*
X11183928Y-13040214D02*
X11183928Y-12840214D01*
X11183928Y-12868786D02*
X11198214Y-12854500D01*
X11226786Y-12840214D01*
X11269643Y-12840214D01*
X11298214Y-12854500D01*
X11312500Y-12883071D01*
X11312500Y-13040214D01*
X11312500Y-12883071D02*
X11326786Y-12854500D01*
X11355357Y-12840214D01*
X11398214Y-12840214D01*
X11426786Y-12854500D01*
X11441071Y-12883071D01*
X11441071Y-13040214D01*
X11583928Y-13040214D02*
X11583928Y-12840214D01*
X11583928Y-12868786D02*
X11598214Y-12854500D01*
X11626786Y-12840214D01*
X11669643Y-12840214D01*
X11698214Y-12854500D01*
X11712500Y-12883071D01*
X11712500Y-13040214D01*
X11712500Y-12883071D02*
X11726786Y-12854500D01*
X11755357Y-12840214D01*
X11798214Y-12840214D01*
X11826786Y-12854500D01*
X11841071Y-12883071D01*
X11841071Y-13040214D01*
X12426786Y-12725929D02*
X12169643Y-13111643D01*
X12812500Y-12740214D02*
X12841071Y-12740214D01*
X12869643Y-12754500D01*
X12883928Y-12768786D01*
X12898214Y-12797357D01*
X12912500Y-12854500D01*
X12912500Y-12925929D01*
X12898214Y-12983071D01*
X12883928Y-13011643D01*
X12869643Y-13025929D01*
X12841071Y-13040214D01*
X12812500Y-13040214D01*
X12783928Y-13025929D01*
X12769643Y-13011643D01*
X12755357Y-12983071D01*
X12741071Y-12925929D01*
X12741071Y-12854500D01*
X12755357Y-12797357D01*
X12769643Y-12768786D01*
X12783928Y-12754500D01*
X12812500Y-12740214D01*
X13041071Y-13011643D02*
X13055357Y-13025929D01*
X13041071Y-13040214D01*
X13026786Y-13025929D01*
X13041071Y-13011643D01*
X13041071Y-13040214D01*
X13241071Y-12740214D02*
X13269643Y-12740214D01*
X13298214Y-12754500D01*
X13312500Y-12768786D01*
X13326786Y-12797357D01*
X13341071Y-12854500D01*
X13341071Y-12925929D01*
X13326786Y-12983071D01*
X13312500Y-13011643D01*
X13298214Y-13025929D01*
X13269643Y-13040214D01*
X13241071Y-13040214D01*
X13212500Y-13025929D01*
X13198214Y-13011643D01*
X13183928Y-12983071D01*
X13169643Y-12925929D01*
X13169643Y-12854500D01*
X13183928Y-12797357D01*
X13198214Y-12768786D01*
X13212500Y-12754500D01*
X13241071Y-12740214D01*
X13598214Y-12840214D02*
X13598214Y-13040214D01*
X13526786Y-12725929D02*
X13455357Y-12940214D01*
X13641071Y-12940214D01*
X13726786Y-12740214D02*
X13926786Y-12740214D01*
X13798214Y-13040214D01*
X14026786Y-12740214D02*
X14026786Y-12797357D01*
X14141071Y-12740214D02*
X14141071Y-12797357D01*
X14583928Y-13154500D02*
X14569643Y-13140214D01*
X14541071Y-13097357D01*
X14526786Y-13068786D01*
X14512500Y-13025929D01*
X14498214Y-12954500D01*
X14498214Y-12897357D01*
X14512500Y-12825929D01*
X14526786Y-12783071D01*
X14541071Y-12754500D01*
X14569643Y-12711643D01*
X14583928Y-12697357D01*
X14826786Y-12740214D02*
X14769643Y-12740214D01*
X14741071Y-12754500D01*
X14726786Y-12768786D01*
X14698214Y-12811643D01*
X14683928Y-12868786D01*
X14683928Y-12983071D01*
X14698214Y-13011643D01*
X14712500Y-13025929D01*
X14741071Y-13040214D01*
X14798214Y-13040214D01*
X14826786Y-13025929D01*
X14841071Y-13011643D01*
X14855357Y-12983071D01*
X14855357Y-12911643D01*
X14841071Y-12883071D01*
X14826786Y-12868786D01*
X14798214Y-12854500D01*
X14741071Y-12854500D01*
X14712500Y-12868786D01*
X14698214Y-12883071D01*
X14683928Y-12911643D01*
X15212500Y-13040214D02*
X15212500Y-12740214D01*
X15341071Y-13040214D02*
X15341071Y-12883071D01*
X15326786Y-12854500D01*
X15298214Y-12840214D01*
X15255357Y-12840214D01*
X15226786Y-12854500D01*
X15212500Y-12868786D01*
X15526786Y-13040214D02*
X15498214Y-13025929D01*
X15483928Y-13011643D01*
X15469643Y-12983071D01*
X15469643Y-12897357D01*
X15483928Y-12868786D01*
X15498214Y-12854500D01*
X15526786Y-12840214D01*
X15569643Y-12840214D01*
X15598214Y-12854500D01*
X15612500Y-12868786D01*
X15626786Y-12897357D01*
X15626786Y-12983071D01*
X15612500Y-13011643D01*
X15598214Y-13025929D01*
X15569643Y-13040214D01*
X15526786Y-13040214D01*
X15798214Y-13040214D02*
X15769643Y-13025929D01*
X15755357Y-12997357D01*
X15755357Y-12740214D01*
X16026786Y-13025929D02*
X15998214Y-13040214D01*
X15941071Y-13040214D01*
X15912500Y-13025929D01*
X15898214Y-12997357D01*
X15898214Y-12883071D01*
X15912500Y-12854500D01*
X15941071Y-12840214D01*
X15998214Y-12840214D01*
X16026786Y-12854500D01*
X16041071Y-12883071D01*
X16041071Y-12911643D01*
X15898214Y-12940214D01*
X16155357Y-13025929D02*
X16183928Y-13040214D01*
X16241071Y-13040214D01*
X16269643Y-13025929D01*
X16283928Y-12997357D01*
X16283928Y-12983071D01*
X16269643Y-12954500D01*
X16241071Y-12940214D01*
X16198214Y-12940214D01*
X16169643Y-12925929D01*
X16155357Y-12897357D01*
X16155357Y-12883071D01*
X16169643Y-12854500D01*
X16198214Y-12840214D01*
X16241071Y-12840214D01*
X16269643Y-12854500D01*
X16383928Y-13154500D02*
X16398214Y-13140214D01*
X16426786Y-13097357D01*
X16441071Y-13068786D01*
X16455357Y-13025929D01*
X16469643Y-12954500D01*
X16469643Y-12897357D01*
X16455357Y-12825929D01*
X16441071Y-12783071D01*
X16426786Y-12754500D01*
X16398214Y-12711643D01*
X16383928Y-12697357D01*
X9878462Y-13346462D02*
X9878462Y-13254538D01*
X9786538Y-13254538D01*
X9786538Y-13346462D01*
X9878462Y-13346462D01*
X10341071Y-13436214D02*
X10169643Y-13436214D01*
X10255357Y-13436214D02*
X10255357Y-13136214D01*
X10226786Y-13179071D01*
X10198214Y-13207643D01*
X10169643Y-13221929D01*
X10469643Y-13407643D02*
X10483928Y-13421929D01*
X10469643Y-13436214D01*
X10455357Y-13421929D01*
X10469643Y-13407643D01*
X10469643Y-13436214D01*
X10583928Y-13136214D02*
X10769643Y-13136214D01*
X10669643Y-13250500D01*
X10712500Y-13250500D01*
X10741071Y-13264786D01*
X10755357Y-13279071D01*
X10769643Y-13307643D01*
X10769643Y-13379071D01*
X10755357Y-13407643D01*
X10741071Y-13421929D01*
X10712500Y-13436214D01*
X10626786Y-13436214D01*
X10598214Y-13421929D01*
X10583928Y-13407643D01*
X10955357Y-13136214D02*
X10983928Y-13136214D01*
X11012500Y-13150500D01*
X11026786Y-13164786D01*
X11041071Y-13193357D01*
X11055357Y-13250500D01*
X11055357Y-13321929D01*
X11041071Y-13379071D01*
X11026786Y-13407643D01*
X11012500Y-13421929D01*
X10983928Y-13436214D01*
X10955357Y-13436214D01*
X10926786Y-13421929D01*
X10912500Y-13407643D01*
X10898214Y-13379071D01*
X10883928Y-13321929D01*
X10883928Y-13250500D01*
X10898214Y-13193357D01*
X10912500Y-13164786D01*
X10926786Y-13150500D01*
X10955357Y-13136214D01*
X11183928Y-13436214D02*
X11183928Y-13236214D01*
X11183928Y-13264786D02*
X11198214Y-13250500D01*
X11226786Y-13236214D01*
X11269643Y-13236214D01*
X11298214Y-13250500D01*
X11312500Y-13279071D01*
X11312500Y-13436214D01*
X11312500Y-13279071D02*
X11326786Y-13250500D01*
X11355357Y-13236214D01*
X11398214Y-13236214D01*
X11426786Y-13250500D01*
X11441071Y-13279071D01*
X11441071Y-13436214D01*
X11583928Y-13436214D02*
X11583928Y-13236214D01*
X11583928Y-13264786D02*
X11598214Y-13250500D01*
X11626786Y-13236214D01*
X11669643Y-13236214D01*
X11698214Y-13250500D01*
X11712500Y-13279071D01*
X11712500Y-13436214D01*
X11712500Y-13279071D02*
X11726786Y-13250500D01*
X11755357Y-13236214D01*
X11798214Y-13236214D01*
X11826786Y-13250500D01*
X11841071Y-13279071D01*
X11841071Y-13436214D01*
X12426786Y-13121929D02*
X12169643Y-13507643D01*
X12812500Y-13136214D02*
X12841071Y-13136214D01*
X12869643Y-13150500D01*
X12883928Y-13164786D01*
X12898214Y-13193357D01*
X12912500Y-13250500D01*
X12912500Y-13321929D01*
X12898214Y-13379071D01*
X12883928Y-13407643D01*
X12869643Y-13421929D01*
X12841071Y-13436214D01*
X12812500Y-13436214D01*
X12783928Y-13421929D01*
X12769643Y-13407643D01*
X12755357Y-13379071D01*
X12741071Y-13321929D01*
X12741071Y-13250500D01*
X12755357Y-13193357D01*
X12769643Y-13164786D01*
X12783928Y-13150500D01*
X12812500Y-13136214D01*
X13041071Y-13407643D02*
X13055357Y-13421929D01*
X13041071Y-13436214D01*
X13026786Y-13421929D01*
X13041071Y-13407643D01*
X13041071Y-13436214D01*
X13241071Y-13136214D02*
X13269643Y-13136214D01*
X13298214Y-13150500D01*
X13312500Y-13164786D01*
X13326786Y-13193357D01*
X13341071Y-13250500D01*
X13341071Y-13321929D01*
X13326786Y-13379071D01*
X13312500Y-13407643D01*
X13298214Y-13421929D01*
X13269643Y-13436214D01*
X13241071Y-13436214D01*
X13212500Y-13421929D01*
X13198214Y-13407643D01*
X13183928Y-13379071D01*
X13169643Y-13321929D01*
X13169643Y-13250500D01*
X13183928Y-13193357D01*
X13198214Y-13164786D01*
X13212500Y-13150500D01*
X13241071Y-13136214D01*
X13612500Y-13136214D02*
X13469643Y-13136214D01*
X13455357Y-13279071D01*
X13469643Y-13264786D01*
X13498214Y-13250500D01*
X13569643Y-13250500D01*
X13598214Y-13264786D01*
X13612500Y-13279071D01*
X13626786Y-13307643D01*
X13626786Y-13379071D01*
X13612500Y-13407643D01*
X13598214Y-13421929D01*
X13569643Y-13436214D01*
X13498214Y-13436214D01*
X13469643Y-13421929D01*
X13455357Y-13407643D01*
X13912500Y-13436214D02*
X13741071Y-13436214D01*
X13826786Y-13436214D02*
X13826786Y-13136214D01*
X13798214Y-13179071D01*
X13769643Y-13207643D01*
X13741071Y-13221929D01*
X14026786Y-13136214D02*
X14026786Y-13193357D01*
X14141071Y-13136214D02*
X14141071Y-13193357D01*
X14583928Y-13550500D02*
X14569643Y-13536214D01*
X14541071Y-13493357D01*
X14526786Y-13464786D01*
X14512500Y-13421929D01*
X14498214Y-13350500D01*
X14498214Y-13293357D01*
X14512500Y-13221929D01*
X14526786Y-13179071D01*
X14541071Y-13150500D01*
X14569643Y-13107643D01*
X14583928Y-13093357D01*
X14712500Y-13436214D02*
X14769643Y-13436214D01*
X14798214Y-13421929D01*
X14812500Y-13407643D01*
X14841071Y-13364786D01*
X14855357Y-13307643D01*
X14855357Y-13193357D01*
X14841071Y-13164786D01*
X14826786Y-13150500D01*
X14798214Y-13136214D01*
X14741071Y-13136214D01*
X14712500Y-13150500D01*
X14698214Y-13164786D01*
X14683928Y-13193357D01*
X14683928Y-13264786D01*
X14698214Y-13293357D01*
X14712500Y-13307643D01*
X14741071Y-13321929D01*
X14798214Y-13321929D01*
X14826786Y-13307643D01*
X14841071Y-13293357D01*
X14855357Y-13264786D01*
X15212500Y-13436214D02*
X15212500Y-13136214D01*
X15341071Y-13436214D02*
X15341071Y-13279071D01*
X15326786Y-13250500D01*
X15298214Y-13236214D01*
X15255357Y-13236214D01*
X15226786Y-13250500D01*
X15212500Y-13264786D01*
X15526786Y-13436214D02*
X15498214Y-13421929D01*
X15483928Y-13407643D01*
X15469643Y-13379071D01*
X15469643Y-13293357D01*
X15483928Y-13264786D01*
X15498214Y-13250500D01*
X15526786Y-13236214D01*
X15569643Y-13236214D01*
X15598214Y-13250500D01*
X15612500Y-13264786D01*
X15626786Y-13293357D01*
X15626786Y-13379071D01*
X15612500Y-13407643D01*
X15598214Y-13421929D01*
X15569643Y-13436214D01*
X15526786Y-13436214D01*
X15798214Y-13436214D02*
X15769643Y-13421929D01*
X15755357Y-13393357D01*
X15755357Y-13136214D01*
X16026786Y-13421929D02*
X15998214Y-13436214D01*
X15941071Y-13436214D01*
X15912500Y-13421929D01*
X15898214Y-13393357D01*
X15898214Y-13279071D01*
X15912500Y-13250500D01*
X15941071Y-13236214D01*
X15998214Y-13236214D01*
X16026786Y-13250500D01*
X16041071Y-13279071D01*
X16041071Y-13307643D01*
X15898214Y-13336214D01*
X16155357Y-13421929D02*
X16183928Y-13436214D01*
X16241071Y-13436214D01*
X16269643Y-13421929D01*
X16283928Y-13393357D01*
X16283928Y-13379071D01*
X16269643Y-13350500D01*
X16241071Y-13336214D01*
X16198214Y-13336214D01*
X16169643Y-13321929D01*
X16155357Y-13293357D01*
X16155357Y-13279071D01*
X16169643Y-13250500D01*
X16198214Y-13236214D01*
X16241071Y-13236214D01*
X16269643Y-13250500D01*
X16383928Y-13550500D02*
X16398214Y-13536214D01*
X16426786Y-13493357D01*
X16441071Y-13464786D01*
X16455357Y-13421929D01*
X16469643Y-13350500D01*
X16469643Y-13293357D01*
X16455357Y-13221929D01*
X16441071Y-13179071D01*
X16426786Y-13150500D01*
X16398214Y-13107643D01*
X16383928Y-13093357D01*
X9822500Y-13771500D02*
X9897500Y-13696500D01*
X9822500Y-13621500D01*
X9747500Y-13696500D01*
X9822500Y-13771500D01*
X10341071Y-13832214D02*
X10169643Y-13832214D01*
X10255357Y-13832214D02*
X10255357Y-13532214D01*
X10226786Y-13575071D01*
X10198214Y-13603643D01*
X10169643Y-13617929D01*
X10469643Y-13803643D02*
X10483928Y-13817929D01*
X10469643Y-13832214D01*
X10455357Y-13817929D01*
X10469643Y-13803643D01*
X10469643Y-13832214D01*
X10755357Y-13532214D02*
X10612500Y-13532214D01*
X10598214Y-13675071D01*
X10612500Y-13660786D01*
X10641071Y-13646500D01*
X10712500Y-13646500D01*
X10741071Y-13660786D01*
X10755357Y-13675071D01*
X10769643Y-13703643D01*
X10769643Y-13775071D01*
X10755357Y-13803643D01*
X10741071Y-13817929D01*
X10712500Y-13832214D01*
X10641071Y-13832214D01*
X10612500Y-13817929D01*
X10598214Y-13803643D01*
X10955357Y-13532214D02*
X10983928Y-13532214D01*
X11012500Y-13546500D01*
X11026786Y-13560786D01*
X11041071Y-13589357D01*
X11055357Y-13646500D01*
X11055357Y-13717929D01*
X11041071Y-13775071D01*
X11026786Y-13803643D01*
X11012500Y-13817929D01*
X10983928Y-13832214D01*
X10955357Y-13832214D01*
X10926786Y-13817929D01*
X10912500Y-13803643D01*
X10898214Y-13775071D01*
X10883928Y-13717929D01*
X10883928Y-13646500D01*
X10898214Y-13589357D01*
X10912500Y-13560786D01*
X10926786Y-13546500D01*
X10955357Y-13532214D01*
X11183928Y-13832214D02*
X11183928Y-13632214D01*
X11183928Y-13660786D02*
X11198214Y-13646500D01*
X11226786Y-13632214D01*
X11269643Y-13632214D01*
X11298214Y-13646500D01*
X11312500Y-13675071D01*
X11312500Y-13832214D01*
X11312500Y-13675071D02*
X11326786Y-13646500D01*
X11355357Y-13632214D01*
X11398214Y-13632214D01*
X11426786Y-13646500D01*
X11441071Y-13675071D01*
X11441071Y-13832214D01*
X11583928Y-13832214D02*
X11583928Y-13632214D01*
X11583928Y-13660786D02*
X11598214Y-13646500D01*
X11626786Y-13632214D01*
X11669643Y-13632214D01*
X11698214Y-13646500D01*
X11712500Y-13675071D01*
X11712500Y-13832214D01*
X11712500Y-13675071D02*
X11726786Y-13646500D01*
X11755357Y-13632214D01*
X11798214Y-13632214D01*
X11826786Y-13646500D01*
X11841071Y-13675071D01*
X11841071Y-13832214D01*
X12426786Y-13517929D02*
X12169643Y-13903643D01*
X12812500Y-13532214D02*
X12841071Y-13532214D01*
X12869643Y-13546500D01*
X12883928Y-13560786D01*
X12898214Y-13589357D01*
X12912500Y-13646500D01*
X12912500Y-13717929D01*
X12898214Y-13775071D01*
X12883928Y-13803643D01*
X12869643Y-13817929D01*
X12841071Y-13832214D01*
X12812500Y-13832214D01*
X12783928Y-13817929D01*
X12769643Y-13803643D01*
X12755357Y-13775071D01*
X12741071Y-13717929D01*
X12741071Y-13646500D01*
X12755357Y-13589357D01*
X12769643Y-13560786D01*
X12783928Y-13546500D01*
X12812500Y-13532214D01*
X13041071Y-13803643D02*
X13055357Y-13817929D01*
X13041071Y-13832214D01*
X13026786Y-13817929D01*
X13041071Y-13803643D01*
X13041071Y-13832214D01*
X13241071Y-13532214D02*
X13269643Y-13532214D01*
X13298214Y-13546500D01*
X13312500Y-13560786D01*
X13326786Y-13589357D01*
X13341071Y-13646500D01*
X13341071Y-13717929D01*
X13326786Y-13775071D01*
X13312500Y-13803643D01*
X13298214Y-13817929D01*
X13269643Y-13832214D01*
X13241071Y-13832214D01*
X13212500Y-13817929D01*
X13198214Y-13803643D01*
X13183928Y-13775071D01*
X13169643Y-13717929D01*
X13169643Y-13646500D01*
X13183928Y-13589357D01*
X13198214Y-13560786D01*
X13212500Y-13546500D01*
X13241071Y-13532214D01*
X13612500Y-13532214D02*
X13469643Y-13532214D01*
X13455357Y-13675071D01*
X13469643Y-13660786D01*
X13498214Y-13646500D01*
X13569643Y-13646500D01*
X13598214Y-13660786D01*
X13612500Y-13675071D01*
X13626786Y-13703643D01*
X13626786Y-13775071D01*
X13612500Y-13803643D01*
X13598214Y-13817929D01*
X13569643Y-13832214D01*
X13498214Y-13832214D01*
X13469643Y-13817929D01*
X13455357Y-13803643D01*
X13769643Y-13832214D02*
X13826786Y-13832214D01*
X13855357Y-13817929D01*
X13869643Y-13803643D01*
X13898214Y-13760786D01*
X13912500Y-13703643D01*
X13912500Y-13589357D01*
X13898214Y-13560786D01*
X13883928Y-13546500D01*
X13855357Y-13532214D01*
X13798214Y-13532214D01*
X13769643Y-13546500D01*
X13755357Y-13560786D01*
X13741071Y-13589357D01*
X13741071Y-13660786D01*
X13755357Y-13689357D01*
X13769643Y-13703643D01*
X13798214Y-13717929D01*
X13855357Y-13717929D01*
X13883928Y-13703643D01*
X13898214Y-13689357D01*
X13912500Y-13660786D01*
X14026786Y-13532214D02*
X14026786Y-13589357D01*
X14141071Y-13532214D02*
X14141071Y-13589357D01*
X14583928Y-13946500D02*
X14569643Y-13932214D01*
X14541071Y-13889357D01*
X14526786Y-13860786D01*
X14512500Y-13817929D01*
X14498214Y-13746500D01*
X14498214Y-13689357D01*
X14512500Y-13617929D01*
X14526786Y-13575071D01*
X14541071Y-13546500D01*
X14569643Y-13503643D01*
X14583928Y-13489357D01*
X14669643Y-13532214D02*
X14855357Y-13532214D01*
X14755357Y-13646500D01*
X14798214Y-13646500D01*
X14826786Y-13660786D01*
X14841071Y-13675071D01*
X14855357Y-13703643D01*
X14855357Y-13775071D01*
X14841071Y-13803643D01*
X14826786Y-13817929D01*
X14798214Y-13832214D01*
X14712500Y-13832214D01*
X14683928Y-13817929D01*
X14669643Y-13803643D01*
X15212500Y-13832214D02*
X15212500Y-13532214D01*
X15341071Y-13832214D02*
X15341071Y-13675071D01*
X15326786Y-13646500D01*
X15298214Y-13632214D01*
X15255357Y-13632214D01*
X15226786Y-13646500D01*
X15212500Y-13660786D01*
X15526786Y-13832214D02*
X15498214Y-13817929D01*
X15483928Y-13803643D01*
X15469643Y-13775071D01*
X15469643Y-13689357D01*
X15483928Y-13660786D01*
X15498214Y-13646500D01*
X15526786Y-13632214D01*
X15569643Y-13632214D01*
X15598214Y-13646500D01*
X15612500Y-13660786D01*
X15626786Y-13689357D01*
X15626786Y-13775071D01*
X15612500Y-13803643D01*
X15598214Y-13817929D01*
X15569643Y-13832214D01*
X15526786Y-13832214D01*
X15798214Y-13832214D02*
X15769643Y-13817929D01*
X15755357Y-13789357D01*
X15755357Y-13532214D01*
X16026786Y-13817929D02*
X15998214Y-13832214D01*
X15941071Y-13832214D01*
X15912500Y-13817929D01*
X15898214Y-13789357D01*
X15898214Y-13675071D01*
X15912500Y-13646500D01*
X15941071Y-13632214D01*
X15998214Y-13632214D01*
X16026786Y-13646500D01*
X16041071Y-13675071D01*
X16041071Y-13703643D01*
X15898214Y-13732214D01*
X16155357Y-13817929D02*
X16183928Y-13832214D01*
X16241071Y-13832214D01*
X16269643Y-13817929D01*
X16283928Y-13789357D01*
X16283928Y-13775071D01*
X16269643Y-13746500D01*
X16241071Y-13732214D01*
X16198214Y-13732214D01*
X16169643Y-13717929D01*
X16155357Y-13689357D01*
X16155357Y-13675071D01*
X16169643Y-13646500D01*
X16198214Y-13632214D01*
X16241071Y-13632214D01*
X16269643Y-13646500D01*
X16383928Y-13946500D02*
X16398214Y-13932214D01*
X16426786Y-13889357D01*
X16441071Y-13860786D01*
X16455357Y-13817929D01*
X16469643Y-13746500D01*
X16469643Y-13689357D01*
X16455357Y-13617929D01*
X16441071Y-13575071D01*
X16426786Y-13546500D01*
X16398214Y-13503643D01*
X16383928Y-13489357D01*
X9737500Y-14012500D02*
X9897500Y-14172500D01*
X9897500Y-14012500D02*
X9737500Y-14172500D01*
X9897500Y-14092500D02*
G75*
G03X9897500Y-14092500I-80000J0D01*
G01*
X10341071Y-14228214D02*
X10169643Y-14228214D01*
X10255357Y-14228214D02*
X10255357Y-13928214D01*
X10226786Y-13971071D01*
X10198214Y-13999643D01*
X10169643Y-14013929D01*
X10469643Y-14199643D02*
X10483928Y-14213929D01*
X10469643Y-14228214D01*
X10455357Y-14213929D01*
X10469643Y-14199643D01*
X10469643Y-14228214D01*
X10741071Y-13928214D02*
X10683928Y-13928214D01*
X10655357Y-13942500D01*
X10641071Y-13956786D01*
X10612500Y-13999643D01*
X10598214Y-14056786D01*
X10598214Y-14171071D01*
X10612500Y-14199643D01*
X10626786Y-14213929D01*
X10655357Y-14228214D01*
X10712500Y-14228214D01*
X10741071Y-14213929D01*
X10755357Y-14199643D01*
X10769643Y-14171071D01*
X10769643Y-14099643D01*
X10755357Y-14071071D01*
X10741071Y-14056786D01*
X10712500Y-14042500D01*
X10655357Y-14042500D01*
X10626786Y-14056786D01*
X10612500Y-14071071D01*
X10598214Y-14099643D01*
X10955357Y-13928214D02*
X10983928Y-13928214D01*
X11012500Y-13942500D01*
X11026786Y-13956786D01*
X11041071Y-13985357D01*
X11055357Y-14042500D01*
X11055357Y-14113929D01*
X11041071Y-14171071D01*
X11026786Y-14199643D01*
X11012500Y-14213929D01*
X10983928Y-14228214D01*
X10955357Y-14228214D01*
X10926786Y-14213929D01*
X10912500Y-14199643D01*
X10898214Y-14171071D01*
X10883928Y-14113929D01*
X10883928Y-14042500D01*
X10898214Y-13985357D01*
X10912500Y-13956786D01*
X10926786Y-13942500D01*
X10955357Y-13928214D01*
X11183928Y-14228214D02*
X11183928Y-14028214D01*
X11183928Y-14056786D02*
X11198214Y-14042500D01*
X11226786Y-14028214D01*
X11269643Y-14028214D01*
X11298214Y-14042500D01*
X11312500Y-14071071D01*
X11312500Y-14228214D01*
X11312500Y-14071071D02*
X11326786Y-14042500D01*
X11355357Y-14028214D01*
X11398214Y-14028214D01*
X11426786Y-14042500D01*
X11441071Y-14071071D01*
X11441071Y-14228214D01*
X11583928Y-14228214D02*
X11583928Y-14028214D01*
X11583928Y-14056786D02*
X11598214Y-14042500D01*
X11626786Y-14028214D01*
X11669643Y-14028214D01*
X11698214Y-14042500D01*
X11712500Y-14071071D01*
X11712500Y-14228214D01*
X11712500Y-14071071D02*
X11726786Y-14042500D01*
X11755357Y-14028214D01*
X11798214Y-14028214D01*
X11826786Y-14042500D01*
X11841071Y-14071071D01*
X11841071Y-14228214D01*
X12426786Y-13913929D02*
X12169643Y-14299643D01*
X12812500Y-13928214D02*
X12841071Y-13928214D01*
X12869643Y-13942500D01*
X12883928Y-13956786D01*
X12898214Y-13985357D01*
X12912500Y-14042500D01*
X12912500Y-14113929D01*
X12898214Y-14171071D01*
X12883928Y-14199643D01*
X12869643Y-14213929D01*
X12841071Y-14228214D01*
X12812500Y-14228214D01*
X12783928Y-14213929D01*
X12769643Y-14199643D01*
X12755357Y-14171071D01*
X12741071Y-14113929D01*
X12741071Y-14042500D01*
X12755357Y-13985357D01*
X12769643Y-13956786D01*
X12783928Y-13942500D01*
X12812500Y-13928214D01*
X13041071Y-14199643D02*
X13055357Y-14213929D01*
X13041071Y-14228214D01*
X13026786Y-14213929D01*
X13041071Y-14199643D01*
X13041071Y-14228214D01*
X13241071Y-13928214D02*
X13269643Y-13928214D01*
X13298214Y-13942500D01*
X13312500Y-13956786D01*
X13326786Y-13985357D01*
X13341071Y-14042500D01*
X13341071Y-14113929D01*
X13326786Y-14171071D01*
X13312500Y-14199643D01*
X13298214Y-14213929D01*
X13269643Y-14228214D01*
X13241071Y-14228214D01*
X13212500Y-14213929D01*
X13198214Y-14199643D01*
X13183928Y-14171071D01*
X13169643Y-14113929D01*
X13169643Y-14042500D01*
X13183928Y-13985357D01*
X13198214Y-13956786D01*
X13212500Y-13942500D01*
X13241071Y-13928214D01*
X13598214Y-13928214D02*
X13541071Y-13928214D01*
X13512500Y-13942500D01*
X13498214Y-13956786D01*
X13469643Y-13999643D01*
X13455357Y-14056786D01*
X13455357Y-14171071D01*
X13469643Y-14199643D01*
X13483928Y-14213929D01*
X13512500Y-14228214D01*
X13569643Y-14228214D01*
X13598214Y-14213929D01*
X13612500Y-14199643D01*
X13626786Y-14171071D01*
X13626786Y-14099643D01*
X13612500Y-14071071D01*
X13598214Y-14056786D01*
X13569643Y-14042500D01*
X13512500Y-14042500D01*
X13483928Y-14056786D01*
X13469643Y-14071071D01*
X13455357Y-14099643D01*
X13726786Y-13928214D02*
X13912500Y-13928214D01*
X13812500Y-14042500D01*
X13855357Y-14042500D01*
X13883928Y-14056786D01*
X13898214Y-14071071D01*
X13912500Y-14099643D01*
X13912500Y-14171071D01*
X13898214Y-14199643D01*
X13883928Y-14213929D01*
X13855357Y-14228214D01*
X13769643Y-14228214D01*
X13741071Y-14213929D01*
X13726786Y-14199643D01*
X14026786Y-13928214D02*
X14026786Y-13985357D01*
X14141071Y-13928214D02*
X14141071Y-13985357D01*
X14583928Y-14342500D02*
X14569643Y-14328214D01*
X14541071Y-14285357D01*
X14526786Y-14256786D01*
X14512500Y-14213929D01*
X14498214Y-14142500D01*
X14498214Y-14085357D01*
X14512500Y-14013929D01*
X14526786Y-13971071D01*
X14541071Y-13942500D01*
X14569643Y-13899643D01*
X14583928Y-13885357D01*
X14683928Y-13956786D02*
X14698214Y-13942500D01*
X14726786Y-13928214D01*
X14798214Y-13928214D01*
X14826786Y-13942500D01*
X14841071Y-13956786D01*
X14855357Y-13985357D01*
X14855357Y-14013929D01*
X14841071Y-14056786D01*
X14669643Y-14228214D01*
X14855357Y-14228214D01*
X15212500Y-14228214D02*
X15212500Y-13928214D01*
X15341071Y-14228214D02*
X15341071Y-14071071D01*
X15326786Y-14042500D01*
X15298214Y-14028214D01*
X15255357Y-14028214D01*
X15226786Y-14042500D01*
X15212500Y-14056786D01*
X15526786Y-14228214D02*
X15498214Y-14213929D01*
X15483928Y-14199643D01*
X15469643Y-14171071D01*
X15469643Y-14085357D01*
X15483928Y-14056786D01*
X15498214Y-14042500D01*
X15526786Y-14028214D01*
X15569643Y-14028214D01*
X15598214Y-14042500D01*
X15612500Y-14056786D01*
X15626786Y-14085357D01*
X15626786Y-14171071D01*
X15612500Y-14199643D01*
X15598214Y-14213929D01*
X15569643Y-14228214D01*
X15526786Y-14228214D01*
X15798214Y-14228214D02*
X15769643Y-14213929D01*
X15755357Y-14185357D01*
X15755357Y-13928214D01*
X16026786Y-14213929D02*
X15998214Y-14228214D01*
X15941071Y-14228214D01*
X15912500Y-14213929D01*
X15898214Y-14185357D01*
X15898214Y-14071071D01*
X15912500Y-14042500D01*
X15941071Y-14028214D01*
X15998214Y-14028214D01*
X16026786Y-14042500D01*
X16041071Y-14071071D01*
X16041071Y-14099643D01*
X15898214Y-14128214D01*
X16155357Y-14213929D02*
X16183928Y-14228214D01*
X16241071Y-14228214D01*
X16269643Y-14213929D01*
X16283928Y-14185357D01*
X16283928Y-14171071D01*
X16269643Y-14142500D01*
X16241071Y-14128214D01*
X16198214Y-14128214D01*
X16169643Y-14113929D01*
X16155357Y-14085357D01*
X16155357Y-14071071D01*
X16169643Y-14042500D01*
X16198214Y-14028214D01*
X16241071Y-14028214D01*
X16269643Y-14042500D01*
X16383928Y-14342500D02*
X16398214Y-14328214D01*
X16426786Y-14285357D01*
X16441071Y-14256786D01*
X16455357Y-14213929D01*
X16469643Y-14142500D01*
X16469643Y-14085357D01*
X16455357Y-14013929D01*
X16441071Y-13971071D01*
X16426786Y-13942500D01*
X16398214Y-13899643D01*
X16383928Y-13885357D01*
M02*
