G04 #@! TF.GenerationSoftware,KiCad,Pcbnew,(5.1.2)-1*
G04 #@! TF.CreationDate,2020-03-03T11:12:10+01:00*
G04 #@! TF.ProjectId,Flyback driver Cool-Tip,466c7962-6163-46b2-9064-726976657220,v0.1.3*
G04 #@! TF.SameCoordinates,Original*
G04 #@! TF.FileFunction,Soldermask,Top*
G04 #@! TF.FilePolarity,Negative*
%FSLAX46Y46*%
G04 Gerber Fmt 4.6, Leading zero omitted, Abs format (unit mm)*
G04 Created by KiCad (PCBNEW (5.1.2)-1) date 2020-03-03 11:12:10*
%MOMM*%
%LPD*%
G04 APERTURE LIST*
%ADD10C,0.100000*%
G04 APERTURE END LIST*
D10*
G36*
X126124072Y-102840918D02*
G01*
X126369939Y-102942759D01*
X126591212Y-103090610D01*
X126779390Y-103278788D01*
X126927241Y-103500061D01*
X127029082Y-103745928D01*
X127081000Y-104006938D01*
X127081000Y-104273062D01*
X127029082Y-104534072D01*
X126927241Y-104779939D01*
X126779390Y-105001212D01*
X126591212Y-105189390D01*
X126369939Y-105337241D01*
X126369938Y-105337242D01*
X126369937Y-105337242D01*
X126124072Y-105439082D01*
X125863063Y-105491000D01*
X125596937Y-105491000D01*
X125335928Y-105439082D01*
X125090063Y-105337242D01*
X125090062Y-105337242D01*
X125090061Y-105337241D01*
X124868788Y-105189390D01*
X124680610Y-105001212D01*
X124532759Y-104779939D01*
X124430918Y-104534072D01*
X124379000Y-104273062D01*
X124379000Y-104006938D01*
X124430918Y-103745928D01*
X124532759Y-103500061D01*
X124680610Y-103278788D01*
X124868788Y-103090610D01*
X125090061Y-102942759D01*
X125335928Y-102840918D01*
X125596937Y-102789000D01*
X125863063Y-102789000D01*
X126124072Y-102840918D01*
X126124072Y-102840918D01*
G37*
G36*
X121044072Y-102840918D02*
G01*
X121289939Y-102942759D01*
X121511212Y-103090610D01*
X121699390Y-103278788D01*
X121847241Y-103500061D01*
X121949082Y-103745928D01*
X122001000Y-104006938D01*
X122001000Y-104273062D01*
X121949082Y-104534072D01*
X121847241Y-104779939D01*
X121699390Y-105001212D01*
X121511212Y-105189390D01*
X121289939Y-105337241D01*
X121289938Y-105337242D01*
X121289937Y-105337242D01*
X121044072Y-105439082D01*
X120783063Y-105491000D01*
X120516937Y-105491000D01*
X120255928Y-105439082D01*
X120010063Y-105337242D01*
X120010062Y-105337242D01*
X120010061Y-105337241D01*
X119788788Y-105189390D01*
X119600610Y-105001212D01*
X119452759Y-104779939D01*
X119350918Y-104534072D01*
X119299000Y-104273062D01*
X119299000Y-104006938D01*
X119350918Y-103745928D01*
X119452759Y-103500061D01*
X119600610Y-103278788D01*
X119788788Y-103090610D01*
X120010061Y-102942759D01*
X120255928Y-102840918D01*
X120516937Y-102789000D01*
X120783063Y-102789000D01*
X121044072Y-102840918D01*
X121044072Y-102840918D01*
G37*
G36*
X116921000Y-105491000D02*
G01*
X114219000Y-105491000D01*
X114219000Y-102789000D01*
X116921000Y-102789000D01*
X116921000Y-105491000D01*
X116921000Y-105491000D01*
G37*
G36*
X108344072Y-102840918D02*
G01*
X108589939Y-102942759D01*
X108811212Y-103090610D01*
X108999390Y-103278788D01*
X109147241Y-103500061D01*
X109249082Y-103745928D01*
X109301000Y-104006938D01*
X109301000Y-104273062D01*
X109249082Y-104534072D01*
X109147241Y-104779939D01*
X108999390Y-105001212D01*
X108811212Y-105189390D01*
X108589939Y-105337241D01*
X108589938Y-105337242D01*
X108589937Y-105337242D01*
X108344072Y-105439082D01*
X108083063Y-105491000D01*
X107816937Y-105491000D01*
X107555928Y-105439082D01*
X107310063Y-105337242D01*
X107310062Y-105337242D01*
X107310061Y-105337241D01*
X107088788Y-105189390D01*
X106900610Y-105001212D01*
X106752759Y-104779939D01*
X106650918Y-104534072D01*
X106599000Y-104273062D01*
X106599000Y-104006938D01*
X106650918Y-103745928D01*
X106752759Y-103500061D01*
X106900610Y-103278788D01*
X107088788Y-103090610D01*
X107310061Y-102942759D01*
X107555928Y-102840918D01*
X107816937Y-102789000D01*
X108083063Y-102789000D01*
X108344072Y-102840918D01*
X108344072Y-102840918D01*
G37*
G36*
X104221000Y-105491000D02*
G01*
X101519000Y-105491000D01*
X101519000Y-102789000D01*
X104221000Y-102789000D01*
X104221000Y-105491000D01*
X104221000Y-105491000D01*
G37*
G36*
X138824072Y-102840918D02*
G01*
X139069939Y-102942759D01*
X139291212Y-103090610D01*
X139479390Y-103278788D01*
X139627241Y-103500061D01*
X139729082Y-103745928D01*
X139781000Y-104006938D01*
X139781000Y-104273062D01*
X139729082Y-104534072D01*
X139627241Y-104779939D01*
X139479390Y-105001212D01*
X139291212Y-105189390D01*
X139069939Y-105337241D01*
X139069938Y-105337242D01*
X139069937Y-105337242D01*
X138824072Y-105439082D01*
X138563063Y-105491000D01*
X138296937Y-105491000D01*
X138035928Y-105439082D01*
X137790063Y-105337242D01*
X137790062Y-105337242D01*
X137790061Y-105337241D01*
X137568788Y-105189390D01*
X137380610Y-105001212D01*
X137232759Y-104779939D01*
X137130918Y-104534072D01*
X137079000Y-104273062D01*
X137079000Y-104006938D01*
X137130918Y-103745928D01*
X137232759Y-103500061D01*
X137380610Y-103278788D01*
X137568788Y-103090610D01*
X137790061Y-102942759D01*
X138035928Y-102840918D01*
X138296937Y-102789000D01*
X138563063Y-102789000D01*
X138824072Y-102840918D01*
X138824072Y-102840918D01*
G37*
G36*
X134701000Y-105491000D02*
G01*
X131999000Y-105491000D01*
X131999000Y-102789000D01*
X134701000Y-102789000D01*
X134701000Y-105491000D01*
X134701000Y-105491000D01*
G37*
G36*
X105041000Y-101231000D02*
G01*
X103239000Y-101231000D01*
X103239000Y-99429000D01*
X105041000Y-99429000D01*
X105041000Y-101231000D01*
X105041000Y-101231000D01*
G37*
G36*
X106790443Y-99435519D02*
G01*
X106856627Y-99442037D01*
X107026466Y-99493557D01*
X107182991Y-99577222D01*
X107218729Y-99606552D01*
X107320186Y-99689814D01*
X107403448Y-99791271D01*
X107432778Y-99827009D01*
X107516443Y-99983534D01*
X107567963Y-100153373D01*
X107585359Y-100330000D01*
X107567963Y-100506627D01*
X107516443Y-100676466D01*
X107432778Y-100832991D01*
X107403448Y-100868729D01*
X107320186Y-100970186D01*
X107218729Y-101053448D01*
X107182991Y-101082778D01*
X107026466Y-101166443D01*
X106856627Y-101217963D01*
X106790443Y-101224481D01*
X106724260Y-101231000D01*
X106635740Y-101231000D01*
X106569558Y-101224482D01*
X106503373Y-101217963D01*
X106333534Y-101166443D01*
X106177009Y-101082778D01*
X106141271Y-101053448D01*
X106039814Y-100970186D01*
X105956552Y-100868729D01*
X105927222Y-100832991D01*
X105843557Y-100676466D01*
X105792037Y-100506627D01*
X105774641Y-100330000D01*
X105792037Y-100153373D01*
X105843557Y-99983534D01*
X105927222Y-99827009D01*
X105956552Y-99791271D01*
X106039814Y-99689814D01*
X106141271Y-99606552D01*
X106177009Y-99577222D01*
X106333534Y-99493557D01*
X106503373Y-99442037D01*
X106569558Y-99435518D01*
X106635740Y-99429000D01*
X106724260Y-99429000D01*
X106790443Y-99435519D01*
X106790443Y-99435519D01*
G37*
G36*
X118306720Y-98023520D02*
G01*
X118495881Y-98080901D01*
X118670212Y-98174083D01*
X118823015Y-98299485D01*
X118948417Y-98452288D01*
X118992182Y-98534167D01*
X119041598Y-98626617D01*
X119041599Y-98626620D01*
X119098980Y-98815781D01*
X119113500Y-98963207D01*
X119113500Y-99156794D01*
X119098980Y-99304220D01*
X119041599Y-99493381D01*
X118948417Y-99667712D01*
X118823015Y-99820515D01*
X118670212Y-99945917D01*
X118599839Y-99983532D01*
X118495883Y-100039098D01*
X118495880Y-100039099D01*
X118306719Y-100096480D01*
X118110000Y-100115855D01*
X117913280Y-100096480D01*
X117724119Y-100039099D01*
X117549788Y-99945917D01*
X117396985Y-99820515D01*
X117271583Y-99667712D01*
X117178496Y-99493558D01*
X117178402Y-99493383D01*
X117178401Y-99493380D01*
X117121020Y-99304219D01*
X117106500Y-99156793D01*
X117106500Y-98963206D01*
X117121020Y-98815780D01*
X117178401Y-98626619D01*
X117271583Y-98452288D01*
X117396985Y-98299485D01*
X117549788Y-98174083D01*
X117724120Y-98080901D01*
X117913281Y-98023520D01*
X118110000Y-98004145D01*
X118306720Y-98023520D01*
X118306720Y-98023520D01*
G37*
G36*
X120846720Y-98023520D02*
G01*
X121035881Y-98080901D01*
X121210212Y-98174083D01*
X121363015Y-98299485D01*
X121488417Y-98452288D01*
X121532182Y-98534167D01*
X121581598Y-98626617D01*
X121581599Y-98626620D01*
X121638980Y-98815781D01*
X121653500Y-98963207D01*
X121653500Y-99156794D01*
X121638980Y-99304220D01*
X121581599Y-99493381D01*
X121488417Y-99667712D01*
X121363015Y-99820515D01*
X121210212Y-99945917D01*
X121139839Y-99983532D01*
X121035883Y-100039098D01*
X121035880Y-100039099D01*
X120846719Y-100096480D01*
X120650000Y-100115855D01*
X120453280Y-100096480D01*
X120264119Y-100039099D01*
X120089788Y-99945917D01*
X119936985Y-99820515D01*
X119811583Y-99667712D01*
X119718496Y-99493558D01*
X119718402Y-99493383D01*
X119718401Y-99493380D01*
X119661020Y-99304219D01*
X119646500Y-99156793D01*
X119646500Y-98963206D01*
X119661020Y-98815780D01*
X119718401Y-98626619D01*
X119811583Y-98452288D01*
X119936985Y-98299485D01*
X120089788Y-98174083D01*
X120264120Y-98080901D01*
X120453281Y-98023520D01*
X120650000Y-98004145D01*
X120846720Y-98023520D01*
X120846720Y-98023520D01*
G37*
G36*
X124193500Y-100111000D02*
G01*
X122186500Y-100111000D01*
X122186500Y-98009000D01*
X124193500Y-98009000D01*
X124193500Y-100111000D01*
X124193500Y-100111000D01*
G37*
G36*
X114545239Y-94017101D02*
G01*
X114781053Y-94088634D01*
X114998381Y-94204799D01*
X115188871Y-94361129D01*
X115345201Y-94551619D01*
X115461366Y-94768947D01*
X115532899Y-95004761D01*
X115557053Y-95250000D01*
X115532899Y-95495239D01*
X115461366Y-95731053D01*
X115345201Y-95948381D01*
X115188871Y-96138871D01*
X114998381Y-96295201D01*
X114781053Y-96411366D01*
X114545239Y-96482899D01*
X114361457Y-96501000D01*
X114238543Y-96501000D01*
X114054761Y-96482899D01*
X113818947Y-96411366D01*
X113601619Y-96295201D01*
X113411129Y-96138871D01*
X113254799Y-95948381D01*
X113138634Y-95731053D01*
X113067101Y-95495239D01*
X113042947Y-95250000D01*
X113067101Y-95004761D01*
X113138634Y-94768947D01*
X113254799Y-94551619D01*
X113411129Y-94361129D01*
X113601619Y-94204799D01*
X113818947Y-94088634D01*
X114054761Y-94017101D01*
X114238543Y-93999000D01*
X114361457Y-93999000D01*
X114545239Y-94017101D01*
X114545239Y-94017101D01*
G37*
G36*
X101964903Y-94047075D02*
G01*
X102065236Y-94088634D01*
X102192571Y-94141378D01*
X102397466Y-94278285D01*
X102571715Y-94452534D01*
X102708622Y-94657429D01*
X102802925Y-94885097D01*
X102851000Y-95126787D01*
X102851000Y-95373213D01*
X102802925Y-95614903D01*
X102708622Y-95842571D01*
X102571715Y-96047466D01*
X102397466Y-96221715D01*
X102192571Y-96358622D01*
X102192570Y-96358623D01*
X102192569Y-96358623D01*
X101964903Y-96452925D01*
X101723214Y-96501000D01*
X101476786Y-96501000D01*
X101235097Y-96452925D01*
X101007431Y-96358623D01*
X101007430Y-96358623D01*
X101007429Y-96358622D01*
X100802534Y-96221715D01*
X100628285Y-96047466D01*
X100491378Y-95842571D01*
X100397075Y-95614903D01*
X100349000Y-95373213D01*
X100349000Y-95126787D01*
X100397075Y-94885097D01*
X100491378Y-94657429D01*
X100628285Y-94452534D01*
X100802534Y-94278285D01*
X101007429Y-94141378D01*
X101134765Y-94088634D01*
X101235097Y-94047075D01*
X101476786Y-93999000D01*
X101723214Y-93999000D01*
X101964903Y-94047075D01*
X101964903Y-94047075D01*
G37*
G36*
X123513651Y-92352888D02*
G01*
X123824870Y-92447296D01*
X124111680Y-92600599D01*
X124111683Y-92600601D01*
X124111684Y-92600602D01*
X124363082Y-92806918D01*
X124569398Y-93058316D01*
X124569401Y-93058320D01*
X124722704Y-93345130D01*
X124817112Y-93656349D01*
X124848988Y-93980000D01*
X124817112Y-94303651D01*
X124722704Y-94614870D01*
X124569401Y-94901680D01*
X124569399Y-94901683D01*
X124569398Y-94901684D01*
X124363082Y-95153082D01*
X124111684Y-95359398D01*
X124111680Y-95359401D01*
X123824870Y-95512704D01*
X123513651Y-95607112D01*
X123271107Y-95631000D01*
X123108893Y-95631000D01*
X122866349Y-95607112D01*
X122555130Y-95512704D01*
X122268320Y-95359401D01*
X122268316Y-95359398D01*
X122016918Y-95153082D01*
X121810602Y-94901684D01*
X121810601Y-94901683D01*
X121810599Y-94901680D01*
X121657296Y-94614870D01*
X121562888Y-94303651D01*
X121531012Y-93980000D01*
X121562888Y-93656349D01*
X121657296Y-93345130D01*
X121810599Y-93058320D01*
X121810602Y-93058316D01*
X122016918Y-92806918D01*
X122268316Y-92600602D01*
X122268317Y-92600601D01*
X122268320Y-92600599D01*
X122555130Y-92447296D01*
X122866349Y-92352888D01*
X123108893Y-92329000D01*
X123271107Y-92329000D01*
X123513651Y-92352888D01*
X123513651Y-92352888D01*
G37*
G36*
X137241000Y-94061000D02*
G01*
X134539000Y-94061000D01*
X134539000Y-91359000D01*
X137241000Y-91359000D01*
X137241000Y-94061000D01*
X137241000Y-94061000D01*
G37*
G36*
X119261000Y-90051000D02*
G01*
X118294501Y-90051000D01*
X118270115Y-90053402D01*
X118246666Y-90060515D01*
X118225055Y-90072066D01*
X118206113Y-90087611D01*
X118190568Y-90106553D01*
X118179017Y-90128164D01*
X118171904Y-90151613D01*
X118169502Y-90175999D01*
X118171904Y-90200385D01*
X118179017Y-90223834D01*
X118190568Y-90245445D01*
X118206113Y-90264387D01*
X118225055Y-90279932D01*
X118246666Y-90291483D01*
X118282249Y-90300396D01*
X118335635Y-90305654D01*
X118552600Y-90371470D01*
X118552602Y-90371471D01*
X118752555Y-90478347D01*
X118927818Y-90622182D01*
X119071653Y-90797445D01*
X119162529Y-90967464D01*
X119178530Y-90997400D01*
X119244346Y-91214365D01*
X119258591Y-91359000D01*
X119266569Y-91440000D01*
X119244346Y-91665634D01*
X119178529Y-91882602D01*
X119071653Y-92082555D01*
X118927818Y-92257818D01*
X118752555Y-92401653D01*
X118552602Y-92508529D01*
X118552600Y-92508530D01*
X118335635Y-92574346D01*
X118279271Y-92579897D01*
X118166545Y-92591000D01*
X118053455Y-92591000D01*
X117940729Y-92579897D01*
X117884365Y-92574346D01*
X117667400Y-92508530D01*
X117667398Y-92508529D01*
X117467445Y-92401653D01*
X117292182Y-92257818D01*
X117148347Y-92082555D01*
X117041471Y-91882602D01*
X116975654Y-91665634D01*
X116953431Y-91440000D01*
X116961409Y-91359000D01*
X116975654Y-91214365D01*
X117041470Y-90997400D01*
X117057471Y-90967464D01*
X117148347Y-90797445D01*
X117292182Y-90622182D01*
X117467445Y-90478347D01*
X117667398Y-90371471D01*
X117667400Y-90371470D01*
X117884365Y-90305654D01*
X117937751Y-90300396D01*
X117961785Y-90295616D01*
X117984423Y-90286238D01*
X118004798Y-90272624D01*
X118022125Y-90255297D01*
X118035738Y-90234923D01*
X118045116Y-90212284D01*
X118049896Y-90188251D01*
X118049896Y-90163747D01*
X118045116Y-90139713D01*
X118035738Y-90117075D01*
X118022124Y-90096700D01*
X118004797Y-90079373D01*
X117984423Y-90065760D01*
X117961784Y-90056382D01*
X117925499Y-90051000D01*
X116959000Y-90051000D01*
X116959000Y-87749000D01*
X119261000Y-87749000D01*
X119261000Y-90051000D01*
X119261000Y-90051000D01*
G37*
G36*
X114545239Y-88937101D02*
G01*
X114781053Y-89008634D01*
X114998381Y-89124799D01*
X115188871Y-89281129D01*
X115345201Y-89471619D01*
X115461366Y-89688947D01*
X115532899Y-89924761D01*
X115557053Y-90170000D01*
X115532899Y-90415239D01*
X115461366Y-90651053D01*
X115345201Y-90868381D01*
X115188871Y-91058871D01*
X114998381Y-91215201D01*
X114781053Y-91331366D01*
X114545239Y-91402899D01*
X114361457Y-91421000D01*
X114238543Y-91421000D01*
X114054761Y-91402899D01*
X113818947Y-91331366D01*
X113601619Y-91215201D01*
X113411129Y-91058871D01*
X113254799Y-90868381D01*
X113138634Y-90651053D01*
X113067101Y-90415239D01*
X113042947Y-90170000D01*
X113067101Y-89924761D01*
X113138634Y-89688947D01*
X113254799Y-89471619D01*
X113411129Y-89281129D01*
X113601619Y-89124799D01*
X113818947Y-89008634D01*
X114054761Y-88937101D01*
X114238543Y-88919000D01*
X114361457Y-88919000D01*
X114545239Y-88937101D01*
X114545239Y-88937101D01*
G37*
G36*
X101964903Y-88967075D02*
G01*
X102065236Y-89008634D01*
X102192571Y-89061378D01*
X102397466Y-89198285D01*
X102571715Y-89372534D01*
X102637922Y-89471620D01*
X102708623Y-89577431D01*
X102802925Y-89805097D01*
X102851000Y-90046786D01*
X102851000Y-90293214D01*
X102802925Y-90534903D01*
X102708622Y-90762571D01*
X102571715Y-90967466D01*
X102397466Y-91141715D01*
X102192571Y-91278622D01*
X102192570Y-91278623D01*
X102192569Y-91278623D01*
X101964903Y-91372925D01*
X101723214Y-91421000D01*
X101476786Y-91421000D01*
X101235097Y-91372925D01*
X101007431Y-91278623D01*
X101007430Y-91278623D01*
X101007429Y-91278622D01*
X100802534Y-91141715D01*
X100628285Y-90967466D01*
X100491378Y-90762571D01*
X100397075Y-90534903D01*
X100349000Y-90293214D01*
X100349000Y-90046786D01*
X100397075Y-89805097D01*
X100491377Y-89577431D01*
X100562078Y-89471620D01*
X100628285Y-89372534D01*
X100802534Y-89198285D01*
X101007429Y-89061378D01*
X101134765Y-89008634D01*
X101235097Y-88967075D01*
X101476786Y-88919000D01*
X101723214Y-88919000D01*
X101964903Y-88967075D01*
X101964903Y-88967075D01*
G37*
G36*
X124841000Y-90551000D02*
G01*
X121539000Y-90551000D01*
X121539000Y-87249000D01*
X124841000Y-87249000D01*
X124841000Y-90551000D01*
X124841000Y-90551000D01*
G37*
G36*
X136243758Y-86322899D02*
G01*
X136284072Y-86330918D01*
X136529939Y-86432759D01*
X136751212Y-86580610D01*
X136939390Y-86768788D01*
X137087241Y-86990061D01*
X137189082Y-87235928D01*
X137241000Y-87496938D01*
X137241000Y-87763062D01*
X137189082Y-88024072D01*
X137087241Y-88269939D01*
X136939390Y-88491212D01*
X136751212Y-88679390D01*
X136529939Y-88827241D01*
X136529938Y-88827242D01*
X136529937Y-88827242D01*
X136284072Y-88929082D01*
X136023063Y-88981000D01*
X135756937Y-88981000D01*
X135495928Y-88929082D01*
X135250063Y-88827242D01*
X135250062Y-88827242D01*
X135250061Y-88827241D01*
X135028788Y-88679390D01*
X134840610Y-88491212D01*
X134692759Y-88269939D01*
X134590918Y-88024072D01*
X134539000Y-87763062D01*
X134539000Y-87496938D01*
X134590918Y-87235928D01*
X134692759Y-86990061D01*
X134840610Y-86768788D01*
X135028788Y-86580610D01*
X135250061Y-86432759D01*
X135495928Y-86330918D01*
X135536242Y-86322899D01*
X135756937Y-86279000D01*
X136023063Y-86279000D01*
X136243758Y-86322899D01*
X136243758Y-86322899D01*
G37*
G36*
X114664903Y-83887075D02*
G01*
X114765236Y-83928634D01*
X114892571Y-83981378D01*
X115097466Y-84118285D01*
X115271715Y-84292534D01*
X115408622Y-84497429D01*
X115502925Y-84725097D01*
X115551000Y-84966787D01*
X115551000Y-85213213D01*
X115502925Y-85454903D01*
X115408622Y-85682571D01*
X115271715Y-85887466D01*
X115097466Y-86061715D01*
X114892571Y-86198622D01*
X114892570Y-86198623D01*
X114892569Y-86198623D01*
X114664903Y-86292925D01*
X114423214Y-86341000D01*
X114176786Y-86341000D01*
X113935097Y-86292925D01*
X113707431Y-86198623D01*
X113707430Y-86198623D01*
X113707429Y-86198622D01*
X113502534Y-86061715D01*
X113328285Y-85887466D01*
X113191378Y-85682571D01*
X113097075Y-85454903D01*
X113049000Y-85213213D01*
X113049000Y-84966787D01*
X113097075Y-84725097D01*
X113191378Y-84497429D01*
X113328285Y-84292534D01*
X113502534Y-84118285D01*
X113707429Y-83981378D01*
X113834765Y-83928634D01*
X113935097Y-83887075D01*
X114176786Y-83839000D01*
X114423214Y-83839000D01*
X114664903Y-83887075D01*
X114664903Y-83887075D01*
G37*
G36*
X101845239Y-83857101D02*
G01*
X102081053Y-83928634D01*
X102298381Y-84044799D01*
X102488871Y-84201129D01*
X102645201Y-84391619D01*
X102761366Y-84608947D01*
X102832899Y-84844761D01*
X102857053Y-85090000D01*
X102832899Y-85335239D01*
X102761366Y-85571053D01*
X102645201Y-85788381D01*
X102488871Y-85978871D01*
X102298381Y-86135201D01*
X102081053Y-86251366D01*
X101845239Y-86322899D01*
X101661457Y-86341000D01*
X101538543Y-86341000D01*
X101354761Y-86322899D01*
X101118947Y-86251366D01*
X100901619Y-86135201D01*
X100711129Y-85978871D01*
X100554799Y-85788381D01*
X100438634Y-85571053D01*
X100367101Y-85335239D01*
X100342947Y-85090000D01*
X100367101Y-84844761D01*
X100438634Y-84608947D01*
X100554799Y-84391619D01*
X100711129Y-84201129D01*
X100901619Y-84044799D01*
X101118947Y-83928634D01*
X101354761Y-83857101D01*
X101538543Y-83839000D01*
X101661457Y-83839000D01*
X101845239Y-83857101D01*
X101845239Y-83857101D01*
G37*
G36*
X129265039Y-77727825D02*
G01*
X129510279Y-77802218D01*
X129736293Y-77923025D01*
X129934396Y-78085604D01*
X130096975Y-78283706D01*
X130217782Y-78509720D01*
X130292175Y-78754960D01*
X130292175Y-78754961D01*
X130311000Y-78946094D01*
X130311000Y-81073906D01*
X130304062Y-81144346D01*
X130292175Y-81265040D01*
X130217782Y-81510280D01*
X130096975Y-81736294D01*
X130054624Y-81787899D01*
X129934397Y-81934397D01*
X129787899Y-82054624D01*
X129736294Y-82096975D01*
X129510280Y-82217782D01*
X129265040Y-82292175D01*
X129010000Y-82317294D01*
X128754961Y-82292175D01*
X128509721Y-82217782D01*
X128283707Y-82096975D01*
X128232102Y-82054624D01*
X128085604Y-81934397D01*
X127965377Y-81787899D01*
X127923026Y-81736294D01*
X127802219Y-81510280D01*
X127727826Y-81265040D01*
X127715939Y-81144346D01*
X127709001Y-81073906D01*
X127709000Y-78946095D01*
X127727825Y-78754962D01*
X127727825Y-78754961D01*
X127802218Y-78509721D01*
X127923025Y-78283707D01*
X128085604Y-78085604D01*
X128283706Y-77923025D01*
X128283705Y-77923025D01*
X128283707Y-77923024D01*
X128509718Y-77802219D01*
X128509720Y-77802218D01*
X128754960Y-77727825D01*
X129010000Y-77702706D01*
X129265039Y-77727825D01*
X129265039Y-77727825D01*
G37*
G36*
X123815039Y-77727825D02*
G01*
X124060279Y-77802218D01*
X124286293Y-77923025D01*
X124484396Y-78085604D01*
X124646975Y-78283706D01*
X124767782Y-78509720D01*
X124842175Y-78754960D01*
X124842175Y-78754961D01*
X124861000Y-78946094D01*
X124861000Y-81073906D01*
X124854062Y-81144346D01*
X124842175Y-81265040D01*
X124767782Y-81510280D01*
X124646975Y-81736294D01*
X124604624Y-81787899D01*
X124484397Y-81934397D01*
X124337899Y-82054624D01*
X124286294Y-82096975D01*
X124060280Y-82217782D01*
X123815040Y-82292175D01*
X123560000Y-82317294D01*
X123304961Y-82292175D01*
X123059721Y-82217782D01*
X122833707Y-82096975D01*
X122782102Y-82054624D01*
X122635604Y-81934397D01*
X122515377Y-81787899D01*
X122473026Y-81736294D01*
X122352219Y-81510280D01*
X122277826Y-81265040D01*
X122265939Y-81144346D01*
X122259001Y-81073906D01*
X122259000Y-78946095D01*
X122277825Y-78754962D01*
X122277825Y-78754961D01*
X122352218Y-78509721D01*
X122473025Y-78283707D01*
X122635604Y-78085604D01*
X122833706Y-77923025D01*
X122833705Y-77923025D01*
X122833707Y-77923024D01*
X123059718Y-77802219D01*
X123059720Y-77802218D01*
X123304960Y-77727825D01*
X123560000Y-77702706D01*
X123815039Y-77727825D01*
X123815039Y-77727825D01*
G37*
G36*
X119411000Y-82311000D02*
G01*
X116809000Y-82311000D01*
X116809000Y-77709000D01*
X119411000Y-77709000D01*
X119411000Y-82311000D01*
X119411000Y-82311000D01*
G37*
G36*
X114181000Y-78621000D02*
G01*
X113214501Y-78621000D01*
X113190115Y-78623402D01*
X113166666Y-78630515D01*
X113145055Y-78642066D01*
X113126113Y-78657611D01*
X113110568Y-78676553D01*
X113099017Y-78698164D01*
X113091904Y-78721613D01*
X113089502Y-78745999D01*
X113091904Y-78770385D01*
X113099017Y-78793834D01*
X113110568Y-78815445D01*
X113126113Y-78834387D01*
X113145055Y-78849932D01*
X113166666Y-78861483D01*
X113202249Y-78870396D01*
X113255635Y-78875654D01*
X113472600Y-78941470D01*
X113472602Y-78941471D01*
X113672555Y-79048347D01*
X113847818Y-79192182D01*
X113991653Y-79367445D01*
X114098529Y-79567398D01*
X114098530Y-79567400D01*
X114164346Y-79784365D01*
X114186569Y-80010000D01*
X114164346Y-80235635D01*
X114101327Y-80443381D01*
X114098529Y-80452602D01*
X113991653Y-80652555D01*
X113847818Y-80827818D01*
X113672555Y-80971653D01*
X113481253Y-81073905D01*
X113472600Y-81078530D01*
X113255635Y-81144346D01*
X113199271Y-81149897D01*
X113086545Y-81161000D01*
X112973455Y-81161000D01*
X112860729Y-81149897D01*
X112804365Y-81144346D01*
X112587400Y-81078530D01*
X112578747Y-81073905D01*
X112387445Y-80971653D01*
X112212182Y-80827818D01*
X112068347Y-80652555D01*
X111961471Y-80452602D01*
X111958674Y-80443381D01*
X111895654Y-80235635D01*
X111873431Y-80010000D01*
X111895654Y-79784365D01*
X111961470Y-79567400D01*
X111961471Y-79567398D01*
X112068347Y-79367445D01*
X112212182Y-79192182D01*
X112387445Y-79048347D01*
X112587398Y-78941471D01*
X112587400Y-78941470D01*
X112804365Y-78875654D01*
X112857751Y-78870396D01*
X112881785Y-78865616D01*
X112904423Y-78856238D01*
X112924798Y-78842624D01*
X112942125Y-78825297D01*
X112955738Y-78804923D01*
X112965116Y-78782284D01*
X112969896Y-78758251D01*
X112969896Y-78733747D01*
X112965116Y-78709713D01*
X112955738Y-78687075D01*
X112942124Y-78666700D01*
X112924797Y-78649373D01*
X112904423Y-78635760D01*
X112881784Y-78626382D01*
X112845499Y-78621000D01*
X111879000Y-78621000D01*
X111879000Y-76319000D01*
X114181000Y-76319000D01*
X114181000Y-78621000D01*
X114181000Y-78621000D01*
G37*
G36*
X105606719Y-78973520D02*
G01*
X105795880Y-79030901D01*
X105795883Y-79030902D01*
X105888333Y-79080318D01*
X105970212Y-79124083D01*
X106123015Y-79249485D01*
X106248417Y-79402288D01*
X106341599Y-79576619D01*
X106398980Y-79765780D01*
X106413500Y-79913206D01*
X106413500Y-80106793D01*
X106398980Y-80254219D01*
X106341599Y-80443380D01*
X106341598Y-80443383D01*
X106336671Y-80452600D01*
X106248417Y-80617712D01*
X106123015Y-80770515D01*
X105970212Y-80895917D01*
X105795881Y-80989099D01*
X105606720Y-81046480D01*
X105410000Y-81065855D01*
X105213281Y-81046480D01*
X105024120Y-80989099D01*
X104849788Y-80895917D01*
X104696985Y-80770515D01*
X104571583Y-80617712D01*
X104478401Y-80443381D01*
X104421020Y-80254220D01*
X104406500Y-80106794D01*
X104406500Y-79913207D01*
X104421020Y-79765781D01*
X104478401Y-79576620D01*
X104478402Y-79576617D01*
X104527818Y-79484167D01*
X104571583Y-79402288D01*
X104696985Y-79249485D01*
X104849788Y-79124083D01*
X105024119Y-79030901D01*
X105213280Y-78973520D01*
X105410000Y-78954145D01*
X105606719Y-78973520D01*
X105606719Y-78973520D01*
G37*
G36*
X108146719Y-78973520D02*
G01*
X108335880Y-79030901D01*
X108335883Y-79030902D01*
X108428333Y-79080318D01*
X108510212Y-79124083D01*
X108663015Y-79249485D01*
X108788417Y-79402288D01*
X108881599Y-79576619D01*
X108938980Y-79765780D01*
X108953500Y-79913206D01*
X108953500Y-80106793D01*
X108938980Y-80254219D01*
X108881599Y-80443380D01*
X108881598Y-80443383D01*
X108876671Y-80452600D01*
X108788417Y-80617712D01*
X108663015Y-80770515D01*
X108510212Y-80895917D01*
X108335881Y-80989099D01*
X108146720Y-81046480D01*
X107950000Y-81065855D01*
X107753281Y-81046480D01*
X107564120Y-80989099D01*
X107389788Y-80895917D01*
X107236985Y-80770515D01*
X107111583Y-80617712D01*
X107018401Y-80443381D01*
X106961020Y-80254220D01*
X106946500Y-80106794D01*
X106946500Y-79913207D01*
X106961020Y-79765781D01*
X107018401Y-79576620D01*
X107018402Y-79576617D01*
X107067818Y-79484167D01*
X107111583Y-79402288D01*
X107236985Y-79249485D01*
X107389788Y-79124083D01*
X107564119Y-79030901D01*
X107753280Y-78973520D01*
X107950000Y-78954145D01*
X108146719Y-78973520D01*
X108146719Y-78973520D01*
G37*
G36*
X103873500Y-81061000D02*
G01*
X101866500Y-81061000D01*
X101866500Y-78959000D01*
X103873500Y-78959000D01*
X103873500Y-81061000D01*
X103873500Y-81061000D01*
G37*
M02*
