G04 #@! TF.GenerationSoftware,KiCad,Pcbnew,(5.1.2)-1*
G04 #@! TF.CreationDate,2020-03-03T11:12:10+01:00*
G04 #@! TF.ProjectId,Flyback driver Cool-Tip,466c7962-6163-46b2-9064-726976657220,v0.1.3*
G04 #@! TF.SameCoordinates,Original*
G04 #@! TF.FileFunction,Copper,L2,Bot*
G04 #@! TF.FilePolarity,Positive*
%FSLAX46Y46*%
G04 Gerber Fmt 4.6, Leading zero omitted, Abs format (unit mm)*
G04 Created by KiCad (PCBNEW (5.1.2)-1) date 2020-03-03 11:12:10*
%MOMM*%
%LPD*%
G04 APERTURE LIST*
%ADD10O,1.700000X1.700000*%
%ADD11R,1.700000X1.700000*%
%ADD12O,2.200000X2.200000*%
%ADD13R,2.200000X2.200000*%
%ADD14O,2.400000X2.400000*%
%ADD15C,2.400000*%
%ADD16C,2.600000*%
%ADD17R,2.600000X2.600000*%
%ADD18O,3.200000X3.200000*%
%ADD19R,3.200000X3.200000*%
%ADD20O,2.500000X4.500000*%
%ADD21R,2.500000X4.500000*%
%ADD22R,1.905000X2.000000*%
%ADD23O,1.905000X2.000000*%
%ADD24C,0.500000*%
%ADD25C,4.000000*%
%ADD26C,1.500000*%
G04 APERTURE END LIST*
D10*
X106680000Y-100330000D03*
D11*
X104140000Y-100330000D03*
D12*
X113030000Y-80010000D03*
D13*
X113030000Y-77470000D03*
D12*
X118110000Y-91440000D03*
D13*
X118110000Y-88900000D03*
D14*
X114300000Y-95250000D03*
D15*
X101600000Y-95250000D03*
D14*
X114300000Y-90170000D03*
D15*
X101600000Y-90170000D03*
D16*
X107950000Y-104140000D03*
D17*
X102870000Y-104140000D03*
D18*
X123190000Y-93980000D03*
D19*
X123190000Y-88900000D03*
D20*
X129010000Y-80010000D03*
X123560000Y-80010000D03*
D21*
X118110000Y-80010000D03*
D16*
X135890000Y-87630000D03*
D17*
X135890000Y-92710000D03*
D16*
X138430000Y-104140000D03*
D17*
X133350000Y-104140000D03*
D22*
X102870000Y-80010000D03*
D23*
X105410000Y-80010000D03*
X107950000Y-80010000D03*
D15*
X114300000Y-85090000D03*
D14*
X101600000Y-85090000D03*
D17*
X115570000Y-104140000D03*
D16*
X120650000Y-104140000D03*
X125730000Y-104140000D03*
D22*
X123190000Y-99060000D03*
D23*
X120650000Y-99060000D03*
X118110000Y-99060000D03*
D24*
X107950000Y-104140000D02*
X109249999Y-102840001D01*
D25*
X127070002Y-93980000D02*
X123190000Y-93980000D01*
X129010000Y-92040002D02*
X127070002Y-93980000D01*
X129540000Y-87630000D02*
X129010000Y-88160000D01*
X135890000Y-87630000D02*
X129540000Y-87630000D01*
X129010000Y-92040002D02*
X129010000Y-88160000D01*
X129010000Y-88160000D02*
X129010000Y-80010000D01*
D24*
X114300000Y-97790000D02*
X109249999Y-102840001D01*
X114300000Y-95250000D02*
X114300000Y-97790000D01*
D26*
X115570000Y-93980000D02*
X114300000Y-95250000D01*
X120650000Y-96520000D02*
X123190000Y-93980000D01*
X120650000Y-104140000D02*
X120650000Y-96520000D01*
X118110000Y-91440000D02*
X118110000Y-93980000D01*
X123190000Y-93980000D02*
X118110000Y-93980000D01*
X118110000Y-93980000D02*
X115570000Y-93980000D01*
D24*
X109220000Y-100330000D02*
X114300000Y-95250000D01*
X109220000Y-100330000D02*
X106680000Y-100330000D01*
D26*
X135890000Y-95510000D02*
X135890000Y-92710000D01*
X132340000Y-99060000D02*
X135890000Y-95510000D01*
X125730000Y-104140000D02*
X125730000Y-99060000D01*
X123190000Y-99060000D02*
X125730000Y-99060000D01*
X125730000Y-99060000D02*
X132340000Y-99060000D01*
D24*
X102870000Y-104140000D02*
X102870000Y-101600000D01*
X114300000Y-90170000D02*
X104140000Y-100330000D01*
X102870000Y-101600000D02*
X104140000Y-100330000D01*
X102870000Y-81280000D02*
X102870000Y-80010000D01*
X104140000Y-82550000D02*
X102870000Y-81280000D01*
X104140000Y-87630000D02*
X101600000Y-90170000D01*
X104140000Y-82550000D02*
X104140000Y-87630000D01*
X102870000Y-79962500D02*
X102870000Y-80010000D01*
X105362500Y-77470000D02*
X102870000Y-79962500D01*
X113030000Y-77470000D02*
X105362500Y-77470000D01*
D26*
X107950000Y-88900000D02*
X107950000Y-80010000D01*
X101600000Y-95250000D02*
X107950000Y-88900000D01*
D24*
X113030000Y-80010000D02*
X107950000Y-80010000D01*
M02*
