G04 #@! TF.GenerationSoftware,KiCad,Pcbnew,(5.1.2)-1*
G04 #@! TF.CreationDate,2019-05-07T06:50:58+02:00*
G04 #@! TF.ProjectId,SBD electrode by JLCPCB,53424420-656c-4656-9374-726f64652062,rev?*
G04 #@! TF.SameCoordinates,Original*
G04 #@! TF.FileFunction,Legend,Bot*
G04 #@! TF.FilePolarity,Positive*
%FSLAX46Y46*%
G04 Gerber Fmt 4.6, Leading zero omitted, Abs format (unit mm)*
G04 Created by KiCad (PCBNEW (5.1.2)-1) date 2019-05-07 06:50:58*
%MOMM*%
%LPD*%
G04 APERTURE LIST*
%ADD10C,0.150000*%
G04 APERTURE END LIST*
D10*
X196452380Y-60681904D02*
X196452380Y-55681904D01*
X196452380Y-58062857D02*
X193595238Y-58062857D01*
X193595238Y-60681904D02*
X193595238Y-55681904D01*
X191928571Y-55681904D02*
X190261904Y-60681904D01*
X188595238Y-55681904D01*
X184309523Y-60681904D02*
X187166666Y-60681904D01*
X185738095Y-60681904D02*
X185738095Y-55681904D01*
X186214285Y-56396190D01*
X186690476Y-56872380D01*
X187166666Y-57110476D01*
X196452380Y-115291904D02*
X196452380Y-110291904D01*
X196452380Y-112672857D02*
X193595238Y-112672857D01*
X193595238Y-115291904D02*
X193595238Y-110291904D01*
X191928571Y-110291904D02*
X190261904Y-115291904D01*
X188595238Y-110291904D01*
X184309523Y-115291904D02*
X187166666Y-115291904D01*
X185738095Y-115291904D02*
X185738095Y-110291904D01*
X186214285Y-111006190D01*
X186690476Y-111482380D01*
X187166666Y-111720476D01*
X66912380Y-60681904D02*
X66912380Y-55681904D01*
X66912380Y-58062857D02*
X64055238Y-58062857D01*
X64055238Y-60681904D02*
X64055238Y-55681904D01*
X62388571Y-55681904D02*
X60721904Y-60681904D01*
X59055238Y-55681904D01*
X57626666Y-56158095D02*
X57388571Y-55920000D01*
X56912380Y-55681904D01*
X55721904Y-55681904D01*
X55245714Y-55920000D01*
X55007619Y-56158095D01*
X54769523Y-56634285D01*
X54769523Y-57110476D01*
X55007619Y-57824761D01*
X57864761Y-60681904D01*
X54769523Y-60681904D01*
X66912380Y-115291904D02*
X66912380Y-110291904D01*
X66912380Y-112672857D02*
X64055238Y-112672857D01*
X64055238Y-115291904D02*
X64055238Y-110291904D01*
X62388571Y-110291904D02*
X60721904Y-115291904D01*
X59055238Y-110291904D01*
X57626666Y-110768095D02*
X57388571Y-110530000D01*
X56912380Y-110291904D01*
X55721904Y-110291904D01*
X55245714Y-110530000D01*
X55007619Y-110768095D01*
X54769523Y-111244285D01*
X54769523Y-111720476D01*
X55007619Y-112434761D01*
X57864761Y-115291904D01*
X54769523Y-115291904D01*
M02*
